%TF.GenerationSoftware,KiCad,Pcbnew,(5.1.5)-3*%
%TF.CreationDate,2021-01-06T09:36:04+01:00*%
%TF.ProjectId,cece-pcb,63656365-2d70-4636-922e-6b696361645f,rev?*%
%TF.SameCoordinates,Original*%
%TF.FileFunction,Soldermask,Top*%
%TF.FilePolarity,Negative*%
%FSLAX46Y46*%
G04 Gerber Fmt 4.6, Leading zero omitted, Abs format (unit mm)*
G04 Created by KiCad (PCBNEW (5.1.5)-3) date 2021-01-06 09:36:04*
%MOMM*%
%LPD*%
G04 APERTURE LIST*
%ADD10C,0.100000*%
%ADD11O,1.700000X1.700000*%
%ADD12R,1.700000X1.700000*%
%ADD13R,1.500000X1.000000*%
%ADD14C,3.000000*%
%ADD15R,3.000000X3.000000*%
%ADD16C,1.800000*%
%ADD17R,1.800000X1.800000*%
%ADD18C,1.600000*%
%ADD19O,1.600000X1.600000*%
%ADD20O,1.100000X2.500000*%
%ADD21O,2.500000X1.100000*%
%ADD22R,2.500000X1.100000*%
%ADD23O,2.200000X2.200000*%
%ADD24R,2.200000X2.200000*%
%ADD25C,6.400000*%
%ADD26C,2.500000*%
%ADD27C,2.300000*%
%ADD28R,2.000000X2.300000*%
%ADD29C,1.500000*%
%ADD30R,1.500000X1.500000*%
%ADD31C,2.000000*%
%ADD32R,0.650000X1.060000*%
%ADD33C,0.800000*%
G04 APERTURE END LIST*
D10*
G36*
X162496500Y-95123000D02*
G01*
X161099500Y-95123000D01*
X161099500Y-93091000D01*
X162496500Y-93091000D01*
X162496500Y-95123000D01*
G37*
X162496500Y-95123000D02*
X161099500Y-95123000D01*
X161099500Y-93091000D01*
X162496500Y-93091000D01*
X162496500Y-95123000D01*
G36*
X145478500Y-75438000D02*
G01*
X144081500Y-75438000D01*
X144081500Y-73406000D01*
X145478500Y-73406000D01*
X145478500Y-75438000D01*
G37*
X145478500Y-75438000D02*
X144081500Y-75438000D01*
X144081500Y-73406000D01*
X145478500Y-73406000D01*
X145478500Y-75438000D01*
D11*
%TO.C,JP11*%
X119761000Y-101473000D03*
D12*
X119761000Y-98933000D03*
%TD*%
D11*
%TO.C,J3*%
X134112000Y-83470000D03*
D12*
X136652000Y-83470000D03*
%TD*%
D11*
%TO.C,J2*%
X129286000Y-112776000D03*
X129286000Y-110236000D03*
X129286000Y-107696000D03*
D12*
X129286000Y-105156000D03*
%TD*%
D11*
%TO.C,J1*%
X119761000Y-95250000D03*
X119761000Y-92710000D03*
X119761000Y-90170000D03*
X119761000Y-87630000D03*
D12*
X119761000Y-85090000D03*
%TD*%
D13*
%TO.C,JP3*%
X144780000Y-75072000D03*
X144780000Y-73772000D03*
%TD*%
D14*
%TO.C,J4*%
X145415000Y-37465000D03*
X150495000Y-37465000D03*
D15*
X165735000Y-37465000D03*
D14*
X155575000Y-37465000D03*
X160655000Y-37465000D03*
%TD*%
D16*
%TO.C,D1*%
X125730000Y-84328000D03*
D17*
X128270000Y-84328000D03*
%TD*%
D16*
%TO.C,D3*%
X161036000Y-73152000D03*
D17*
X161036000Y-75692000D03*
%TD*%
D18*
%TO.C,C6*%
X137708000Y-72644000D03*
X140208000Y-72644000D03*
%TD*%
D13*
%TO.C,JP2*%
X161798000Y-94772000D03*
X161798000Y-93472000D03*
%TD*%
D19*
%TO.C,R8*%
X129540000Y-94615000D03*
D18*
X129540000Y-102235000D03*
%TD*%
D20*
%TO.C,U1*%
X135965000Y-96090000D03*
X137965000Y-96090000D03*
X139965000Y-96090000D03*
X141965000Y-96090000D03*
X143965000Y-96090000D03*
X145965000Y-96090000D03*
D21*
X133255000Y-111790000D03*
X133255000Y-109790000D03*
X133255000Y-107790000D03*
X133255000Y-105790000D03*
X133255000Y-103790000D03*
X133255000Y-101790000D03*
X133355000Y-99790000D03*
X133255000Y-97790000D03*
X148655000Y-97790000D03*
X148655000Y-99790000D03*
X148655000Y-101790000D03*
X148655000Y-103790000D03*
X148655000Y-105790000D03*
X148655000Y-107790000D03*
X148655000Y-109790000D03*
D22*
X148655000Y-111790000D03*
%TD*%
D18*
%TO.C,C1*%
X139065000Y-87525000D03*
X139065000Y-92525000D03*
%TD*%
%TO.C,C2*%
X158964000Y-85598000D03*
X156464000Y-85598000D03*
%TD*%
%TO.C,C3*%
X155829000Y-92456000D03*
X158329000Y-92456000D03*
%TD*%
%TO.C,C4*%
X152400000Y-96520000D03*
X152400000Y-91520000D03*
%TD*%
%TO.C,C5*%
X123952000Y-72644000D03*
X126452000Y-72644000D03*
%TD*%
%TO.C,C7*%
X146050000Y-67524000D03*
X146050000Y-65024000D03*
%TD*%
D23*
%TO.C,D2*%
X159004000Y-66040000D03*
D24*
X151384000Y-66040000D03*
%TD*%
D25*
%TO.C,H1*%
X118000000Y-67000000D03*
%TD*%
%TO.C,H2*%
X122000000Y-110000000D03*
%TD*%
%TO.C,H3*%
X165000000Y-67000000D03*
%TD*%
%TO.C,H4*%
X161000000Y-110000000D03*
%TD*%
D14*
%TO.C,K1*%
X154940000Y-61214000D03*
D26*
X148990000Y-59264000D03*
D14*
X148940000Y-47014000D03*
X160990000Y-47064000D03*
D26*
X160990000Y-59264000D03*
%TD*%
D27*
%TO.C,PS1*%
X124420000Y-66484000D03*
X129620000Y-37084000D03*
D28*
X134620000Y-37084000D03*
D27*
X139820000Y-66484000D03*
%TD*%
D29*
%TO.C,Q1*%
X135890000Y-90035000D03*
X135890000Y-87495000D03*
D30*
X135890000Y-92575000D03*
%TD*%
D29*
%TO.C,Q2*%
X154178000Y-72644000D03*
X151638000Y-72644000D03*
D30*
X156718000Y-72644000D03*
%TD*%
D18*
%TO.C,R1*%
X158496000Y-104648000D03*
D19*
X158496000Y-97028000D03*
%TD*%
%TO.C,R2*%
X161544000Y-97028000D03*
D18*
X161544000Y-104648000D03*
%TD*%
%TO.C,R3*%
X130810000Y-91440000D03*
D19*
X123190000Y-91440000D03*
%TD*%
%TO.C,R4*%
X155448000Y-107315000D03*
D18*
X155448000Y-99695000D03*
%TD*%
%TO.C,R5*%
X152400000Y-107315000D03*
D19*
X152400000Y-99695000D03*
%TD*%
D18*
%TO.C,R6*%
X126365000Y-102235000D03*
D19*
X126365000Y-94615000D03*
%TD*%
D18*
%TO.C,R7*%
X123190000Y-102235000D03*
D19*
X123190000Y-94615000D03*
%TD*%
D18*
%TO.C,R9*%
X130556000Y-77724000D03*
D19*
X130556000Y-70104000D03*
%TD*%
%TO.C,R10*%
X133604000Y-77724000D03*
D18*
X133604000Y-70104000D03*
%TD*%
%TO.C,R11*%
X156668000Y-77216000D03*
D19*
X149048000Y-77216000D03*
%TD*%
D18*
%TO.C,R13*%
X123190000Y-88265000D03*
D19*
X130810000Y-88265000D03*
%TD*%
D18*
%TO.C,R14*%
X159004000Y-69215000D03*
D19*
X151384000Y-69215000D03*
%TD*%
D31*
%TO.C,SW1*%
X148590000Y-87956000D03*
X148590000Y-92456000D03*
X142090000Y-87956000D03*
X142090000Y-92456000D03*
%TD*%
D32*
%TO.C,U3*%
X153096000Y-87206000D03*
X151196000Y-87206000D03*
X151196000Y-85006000D03*
X152146000Y-85006000D03*
X153096000Y-85006000D03*
%TD*%
D33*
X137795000Y-81915000D03*
X157480000Y-100330000D03*
X157480000Y-101600000D03*
X157480000Y-99060000D03*
X154940000Y-101600000D03*
X156210000Y-101600000D03*
X152400000Y-101600000D03*
X153670000Y-101600000D03*
X128270000Y-96520000D03*
X126365000Y-96520000D03*
X128905000Y-92075000D03*
X127635000Y-92075000D03*
X126365000Y-92075000D03*
X148590000Y-95250000D03*
X156210000Y-97790000D03*
X154940000Y-97790000D03*
X154940000Y-96520000D03*
X134620000Y-95250000D03*
X133350000Y-93980000D03*
X132080000Y-92710000D03*
X135890000Y-99060000D03*
X137160000Y-99060000D03*
X138430000Y-99060000D03*
X138430000Y-100330000D03*
X138430000Y-101600000D03*
X137160000Y-102870000D03*
X130810000Y-97790000D03*
X130810000Y-96520000D03*
X135890000Y-106680000D03*
X137160000Y-106680000D03*
X138430000Y-105410000D03*
X139700000Y-104140000D03*
X140970000Y-102870000D03*
X142240000Y-101600000D03*
X142240000Y-100330000D03*
X142240000Y-99060000D03*
X143510000Y-99060000D03*
X144780000Y-99060000D03*
X135890000Y-100330000D03*
X137160000Y-100330000D03*
X137160000Y-101600000D03*
X156210000Y-96520000D03*
X137795000Y-85090000D03*
X139065000Y-81915000D03*
X139065000Y-85090000D03*
X140335000Y-81915000D03*
X140335000Y-85090000D03*
X141605000Y-81915000D03*
X141605000Y-85090000D03*
X142875000Y-81915000D03*
X142875000Y-85090000D03*
X144145000Y-85090000D03*
X144145000Y-81915000D03*
X146685000Y-81915000D03*
X145415000Y-85090000D03*
X146685000Y-85090000D03*
X145415000Y-81915000D03*
X147955000Y-85090000D03*
X147955000Y-81915000D03*
X149225000Y-81915000D03*
X151765000Y-81915000D03*
X155575000Y-81915000D03*
X159385000Y-81915000D03*
X158115000Y-81915000D03*
X153035000Y-81915000D03*
X150495000Y-81915000D03*
X156845000Y-81915000D03*
X154305000Y-81915000D03*
X160655000Y-81915000D03*
X161925000Y-81915000D03*
X163195000Y-81915000D03*
X163830000Y-106045000D03*
X163830000Y-89535000D03*
X163830000Y-102235000D03*
X163830000Y-86995000D03*
X163830000Y-98425000D03*
X163830000Y-90805000D03*
X163830000Y-99695000D03*
X163830000Y-94615000D03*
X163830000Y-83185000D03*
X163830000Y-97155000D03*
X163830000Y-88265000D03*
X163830000Y-92075000D03*
X163830000Y-84455000D03*
X163830000Y-104775000D03*
X163830000Y-95885000D03*
X163830000Y-85725000D03*
X163830000Y-100965000D03*
X163830000Y-93345000D03*
X163830000Y-103505000D03*
X118745000Y-81915000D03*
X121285000Y-81915000D03*
X125095000Y-81915000D03*
X128905000Y-81915000D03*
X127635000Y-81915000D03*
X130175000Y-81915000D03*
X122555000Y-81915000D03*
X131445000Y-81915000D03*
X120015000Y-81915000D03*
X126365000Y-81915000D03*
X123825000Y-81915000D03*
X125095000Y-78105000D03*
X126365000Y-78105000D03*
X127635000Y-78105000D03*
X118745000Y-78105000D03*
X121285000Y-78105000D03*
X120015000Y-78105000D03*
X123825000Y-78105000D03*
X122555000Y-78105000D03*
X114300000Y-59690000D03*
X116840000Y-59690000D03*
X133350000Y-59690000D03*
X120650000Y-59690000D03*
X135890000Y-59690000D03*
X124460000Y-59690000D03*
X132080000Y-59690000D03*
X123190000Y-59690000D03*
X128270000Y-59690000D03*
X139700000Y-59690000D03*
X125730000Y-59690000D03*
X134620000Y-59690000D03*
X130810000Y-59690000D03*
X138430000Y-59690000D03*
X118110000Y-59690000D03*
X127000000Y-59690000D03*
X115570000Y-59690000D03*
X137160000Y-59690000D03*
X121920000Y-59690000D03*
X129540000Y-59690000D03*
X119380000Y-59690000D03*
X143510000Y-59690000D03*
X146050000Y-59690000D03*
X140970000Y-59690000D03*
X142240000Y-59690000D03*
X144780000Y-59690000D03*
X165100000Y-78105000D03*
X158750000Y-78105000D03*
X163830000Y-78105000D03*
X160020000Y-78105000D03*
X161290000Y-78105000D03*
X162560000Y-78105000D03*
X127000000Y-99695000D03*
X125730000Y-99695000D03*
X128270000Y-99695000D03*
X126365000Y-104775000D03*
X149352000Y-85090000D03*
X163830000Y-59690000D03*
X166370000Y-59690000D03*
X165100000Y-59690000D03*
X167640000Y-59690000D03*
X168910000Y-59690000D03*
X146685000Y-74930000D03*
X147955000Y-73660000D03*
X147955000Y-74930000D03*
X149225000Y-74930000D03*
X146685000Y-73660000D03*
X149225000Y-73660000D03*
X130810000Y-75692000D03*
X134620000Y-72644000D03*
X124714000Y-104648000D03*
X134239000Y-113411000D03*
X143129000Y-113411000D03*
X135509000Y-113411000D03*
X140589000Y-113411000D03*
X136779000Y-113411000D03*
X144399000Y-113411000D03*
X132969000Y-113411000D03*
X145669000Y-113411000D03*
X139319000Y-113411000D03*
X141859000Y-113411000D03*
X138049000Y-113411000D03*
X148209000Y-113411000D03*
X146939000Y-113411000D03*
X154559000Y-113411000D03*
X149479000Y-113411000D03*
X153289000Y-113411000D03*
X150749000Y-113411000D03*
X155829000Y-113411000D03*
X152019000Y-113411000D03*
X157099000Y-113411000D03*
X123190000Y-96266000D03*
X123190000Y-98171000D03*
X128016000Y-108966000D03*
X128016000Y-111506000D03*
X121412000Y-103886000D03*
X146685000Y-98933000D03*
X145288000Y-90932000D03*
X124714000Y-92964000D03*
X124714000Y-96266000D03*
M02*
