%TF.GenerationSoftware,KiCad,Pcbnew,(5.1.5)-3*%
%TF.CreationDate,2021-01-06T09:36:04+01:00*%
%TF.ProjectId,cece-pcb,63656365-2d70-4636-922e-6b696361645f,rev?*%
%TF.SameCoordinates,Original*%
%TF.FileFunction,Profile,NP*%
%FSLAX46Y46*%
G04 Gerber Fmt 4.6, Leading zero omitted, Abs format (unit mm)*
G04 Created by KiCad (PCBNEW (5.1.5)-3) date 2021-01-06 09:36:04*
%MOMM*%
%LPD*%
G04 APERTURE LIST*
%TA.AperFunction,Profile*%
%ADD10C,0.100000*%
%TD*%
%TA.AperFunction,Profile*%
%ADD11C,0.050000*%
%TD*%
G04 APERTURE END LIST*
D10*
X162700000Y-35500000D02*
X163700000Y-35500000D01*
X162700000Y-40000000D02*
X162700000Y-35500000D01*
X163700000Y-40000000D02*
X162700000Y-40000000D01*
X163700000Y-35500000D02*
X163700000Y-40000000D01*
X157600000Y-35500000D02*
X158600000Y-35500000D01*
X158600000Y-35500000D02*
X158600000Y-40000000D01*
X157600000Y-40000000D02*
X157600000Y-35500000D01*
X158600000Y-40000000D02*
X157600000Y-40000000D01*
X152500000Y-40000000D02*
X152500000Y-35500000D01*
X152500000Y-35500000D02*
X153500000Y-35500000D01*
X153500000Y-40000000D02*
X152500000Y-40000000D01*
X153500000Y-35500000D02*
X153500000Y-40000000D01*
X131500000Y-40000000D02*
X131500000Y-35500000D01*
X131500000Y-35500000D02*
X132500000Y-35500000D01*
X132500000Y-40000000D02*
X131500000Y-40000000D01*
X132500000Y-35500000D02*
X132500000Y-40000000D01*
X148500000Y-35500000D02*
X148500000Y-40000000D01*
X147500000Y-35500000D02*
X148500000Y-35500000D01*
X147500000Y-40000000D02*
X147500000Y-35500000D01*
X148500000Y-40000000D02*
X147500000Y-40000000D01*
X158500000Y-64250000D02*
X151500000Y-64250000D01*
X152500000Y-63250000D02*
X157500000Y-63250000D01*
X152500000Y-57500000D02*
X152500000Y-63250000D01*
X151500000Y-57500000D02*
X152500000Y-57500000D01*
X151500000Y-64250000D02*
X151500000Y-57500000D01*
X158500000Y-57500000D02*
X158500000Y-64250000D01*
X157500000Y-57500000D02*
X158500000Y-57500000D01*
X157500000Y-63250000D02*
X157500000Y-57500000D01*
D11*
X161500000Y-79500000D02*
G75*
G02X161500000Y-80500000I0J-500000D01*
G01*
X138000000Y-80500000D02*
G75*
G02X138000000Y-79500000I0J500000D01*
G01*
X121500000Y-80500000D02*
G75*
G02X121500000Y-79500000I0J500000D01*
G01*
X134000000Y-79500000D02*
G75*
G02X134000000Y-80500000I0J-500000D01*
G01*
X138000000Y-80500000D02*
X161500000Y-80500000D01*
X138000000Y-79500000D02*
X161500000Y-79500000D01*
X134000000Y-80500000D02*
X121500000Y-80500000D01*
X121500000Y-79500000D02*
X134000000Y-79500000D01*
X164000000Y-80000000D02*
G75*
G03X164000000Y-80000000I-500000J0D01*
G01*
X120000000Y-80000000D02*
G75*
G03X120000000Y-80000000I-500000J0D01*
G01*
X165000000Y-80000000D02*
X165000000Y-114500000D01*
X170000000Y-75000000D02*
X165000000Y-80000000D01*
X170000000Y-34000000D02*
X170000000Y-75000000D01*
X118000000Y-80000000D02*
X118000000Y-114500000D01*
X113000000Y-75000000D02*
X118000000Y-80000000D01*
X113000000Y-34000000D02*
X113000000Y-75000000D01*
X165000000Y-114500000D02*
X118000000Y-114500000D01*
X113000000Y-34000000D02*
X170000000Y-34000000D01*
M02*
