%TF.GenerationSoftware,KiCad,Pcbnew,(5.1.5)-3*%
%TF.CreationDate,2020-12-06T12:17:53+01:00*%
%TF.ProjectId,cece-pcb,63656365-2d70-4636-922e-6b696361645f,rev?*%
%TF.SameCoordinates,Original*%
%TF.FileFunction,Soldermask,Bot*%
%TF.FilePolarity,Negative*%
%FSLAX46Y46*%
G04 Gerber Fmt 4.6, Leading zero omitted, Abs format (unit mm)*
G04 Created by KiCad (PCBNEW (5.1.5)-3) date 2020-12-06 12:17:53*
%MOMM*%
%LPD*%
G04 APERTURE LIST*
%ADD10C,3.000000*%
%ADD11R,3.000000X3.000000*%
%ADD12C,1.800000*%
%ADD13R,1.800000X1.800000*%
%ADD14C,1.600000*%
%ADD15O,1.000000X1.000000*%
%ADD16R,1.000000X1.000000*%
%ADD17O,1.600000X1.600000*%
%ADD18O,1.100000X2.500000*%
%ADD19O,2.500000X1.100000*%
%ADD20R,2.500000X1.100000*%
%ADD21O,2.200000X2.200000*%
%ADD22R,2.200000X2.200000*%
%ADD23C,6.400000*%
%ADD24R,1.500000X1.000000*%
%ADD25C,2.500000*%
%ADD26C,2.300000*%
%ADD27R,2.000000X2.300000*%
%ADD28C,1.500000*%
%ADD29R,1.500000X1.500000*%
%ADD30C,2.000000*%
%ADD31R,1.060000X0.650000*%
G04 APERTURE END LIST*
D10*
%TO.C,J4*%
X145415000Y-37465000D03*
X150495000Y-37465000D03*
D11*
X165735000Y-37465000D03*
D10*
X155575000Y-37465000D03*
X160655000Y-37465000D03*
%TD*%
D12*
%TO.C,D1*%
X125730000Y-84328000D03*
D13*
X128270000Y-84328000D03*
%TD*%
D12*
%TO.C,D3*%
X161036000Y-73152000D03*
D13*
X161036000Y-75692000D03*
%TD*%
D14*
%TO.C,C6*%
X137708000Y-72644000D03*
X140208000Y-72644000D03*
%TD*%
D15*
%TO.C,J2*%
X129794000Y-108966000D03*
X129794000Y-107696000D03*
X129794000Y-106426000D03*
D16*
X129794000Y-105156000D03*
%TD*%
D17*
%TO.C,R8*%
X129540000Y-94615000D03*
D14*
X129540000Y-102235000D03*
%TD*%
D18*
%TO.C,U1*%
X135965000Y-96090000D03*
X137965000Y-96090000D03*
X139965000Y-96090000D03*
X141965000Y-96090000D03*
X143965000Y-96090000D03*
X145965000Y-96090000D03*
D19*
X133255000Y-111790000D03*
X133255000Y-109790000D03*
X133255000Y-107790000D03*
X133255000Y-105790000D03*
X133255000Y-103790000D03*
X133255000Y-101790000D03*
X133355000Y-99790000D03*
X133255000Y-97790000D03*
X148655000Y-97790000D03*
X148655000Y-99790000D03*
X148655000Y-101790000D03*
X148655000Y-103790000D03*
X148655000Y-105790000D03*
X148655000Y-107790000D03*
X148655000Y-109790000D03*
D20*
X148655000Y-111790000D03*
%TD*%
D14*
%TO.C,C1*%
X139065000Y-87525000D03*
X139065000Y-92525000D03*
%TD*%
%TO.C,C2*%
X158964000Y-85598000D03*
X156464000Y-85598000D03*
%TD*%
%TO.C,C3*%
X155829000Y-92456000D03*
X158329000Y-92456000D03*
%TD*%
%TO.C,C4*%
X152400000Y-96520000D03*
X152400000Y-91520000D03*
%TD*%
%TO.C,C5*%
X123952000Y-72644000D03*
X126452000Y-72644000D03*
%TD*%
%TO.C,C7*%
X146050000Y-67524000D03*
X146050000Y-65024000D03*
%TD*%
D21*
%TO.C,D2*%
X159004000Y-66040000D03*
D22*
X151384000Y-66040000D03*
%TD*%
D23*
%TO.C,H1*%
X118000000Y-67000000D03*
%TD*%
%TO.C,H2*%
X122000000Y-110000000D03*
%TD*%
%TO.C,H3*%
X165000000Y-67000000D03*
%TD*%
%TO.C,H4*%
X161000000Y-110000000D03*
%TD*%
D16*
%TO.C,J1*%
X120015000Y-91567000D03*
D15*
X120015000Y-92837000D03*
X120015000Y-94107000D03*
X120015000Y-95377000D03*
X120015000Y-96647000D03*
%TD*%
D16*
%TO.C,J3*%
X135890000Y-83470000D03*
D15*
X134620000Y-83470000D03*
%TD*%
D24*
%TO.C,JP1*%
X145415000Y-109205000D03*
X145415000Y-110505000D03*
%TD*%
D16*
%TO.C,JP11*%
X120015000Y-103505000D03*
D15*
X120015000Y-104775000D03*
%TD*%
D10*
%TO.C,K1*%
X154940000Y-61214000D03*
D25*
X148990000Y-59264000D03*
D10*
X148940000Y-47014000D03*
X160990000Y-47064000D03*
D25*
X160990000Y-59264000D03*
%TD*%
D26*
%TO.C,PS1*%
X124420000Y-66484000D03*
X129620000Y-37084000D03*
D27*
X134620000Y-37084000D03*
D26*
X139820000Y-66484000D03*
%TD*%
D28*
%TO.C,Q1*%
X135890000Y-90035000D03*
X135890000Y-87495000D03*
D29*
X135890000Y-92575000D03*
%TD*%
D28*
%TO.C,Q2*%
X154178000Y-72644000D03*
X151638000Y-72644000D03*
D29*
X156718000Y-72644000D03*
%TD*%
D14*
%TO.C,R1*%
X158496000Y-104648000D03*
D17*
X158496000Y-97028000D03*
%TD*%
%TO.C,R2*%
X161544000Y-97028000D03*
D14*
X161544000Y-104648000D03*
%TD*%
%TO.C,R3*%
X130810000Y-91440000D03*
D17*
X123190000Y-91440000D03*
%TD*%
%TO.C,R4*%
X155448000Y-107315000D03*
D14*
X155448000Y-99695000D03*
%TD*%
%TO.C,R5*%
X152400000Y-107315000D03*
D17*
X152400000Y-99695000D03*
%TD*%
D14*
%TO.C,R6*%
X126365000Y-102235000D03*
D17*
X126365000Y-94615000D03*
%TD*%
D14*
%TO.C,R7*%
X123190000Y-102235000D03*
D17*
X123190000Y-94615000D03*
%TD*%
D14*
%TO.C,R9*%
X130556000Y-77724000D03*
D17*
X130556000Y-70104000D03*
%TD*%
%TO.C,R10*%
X133604000Y-77724000D03*
D14*
X133604000Y-70104000D03*
%TD*%
%TO.C,R11*%
X156668000Y-77216000D03*
D17*
X149048000Y-77216000D03*
%TD*%
D14*
%TO.C,R13*%
X123190000Y-88265000D03*
D17*
X130810000Y-88265000D03*
%TD*%
D14*
%TO.C,R14*%
X159004000Y-69215000D03*
D17*
X151384000Y-69215000D03*
%TD*%
D30*
%TO.C,SW1*%
X148590000Y-87956000D03*
X148590000Y-92456000D03*
X142090000Y-87956000D03*
X142090000Y-92456000D03*
%TD*%
D31*
%TO.C,U2*%
X130980000Y-72710000D03*
X130980000Y-74610000D03*
X133180000Y-74610000D03*
X133180000Y-73660000D03*
X133180000Y-72710000D03*
%TD*%
M02*
