M48
; DRILL file {KiCad (5.1.5)-3} date 1/6/2021 9:36:09 AM
; FORMAT={-:-/ absolute / inch / decimal}
; #@! TF.CreationDate,2021-01-06T09:36:09+01:00
; #@! TF.GenerationSoftware,Kicad,Pcbnew,(5.1.5)-3
; #@! TF.FileFunction,Plated,1,2,PTH
FMAT,2
INCH
T1C0.0157
T2C0.0256
T3C0.0315
T4C0.0354
T5C0.0394
T6C0.0433
T7C0.0512
T8C0.0598
T9C0.1260
%
G90
G05
T1
X4.5Y-2.35
X4.55Y-2.35
X4.6Y-2.35
X4.65Y-2.35
X4.675Y-3.075
X4.675Y-3.225
X4.7Y-2.35
X4.725Y-3.075
X4.725Y-3.225
X4.75Y-2.35
X4.775Y-3.075
X4.775Y-3.225
X4.78Y-4.09
X4.8Y-2.35
X4.825Y-3.075
X4.825Y-3.225
X4.85Y-2.35
X4.85Y-3.79
X4.85Y-3.865
X4.875Y-3.075
X4.875Y-3.225
X4.9Y-2.35
X4.91Y-3.66
X4.91Y-3.79
X4.91Y-4.12
X4.925Y-3.075
X4.925Y-3.225
X4.95Y-2.35
X4.95Y-3.925
X4.975Y-3.075
X4.975Y-3.225
X4.975Y-3.625
X4.975Y-3.8
X4.975Y-4.125
X5.0Y-2.35
X5.0Y-3.925
X5.025Y-3.075
X5.025Y-3.225
X5.025Y-3.625
X5.04Y-4.29
X5.04Y-4.39
X5.05Y-2.35
X5.05Y-3.8
X5.05Y-3.925
X5.075Y-3.225
X5.075Y-3.625
X5.1Y-2.35
X5.125Y-3.225
X5.15Y-2.35
X5.15Y-2.98
X5.15Y-3.8
X5.15Y-3.85
X5.175Y-3.225
X5.2Y-2.35
X5.2Y-3.65
X5.235Y-4.465
X5.25Y-2.35
X5.25Y-3.7
X5.285Y-4.465
X5.3Y-2.35
X5.3Y-2.86
X5.3Y-3.75
X5.335Y-4.465
X5.35Y-2.35
X5.35Y-3.9
X5.35Y-3.95
X5.35Y-4.2
X5.385Y-4.465
X5.4Y-2.35
X5.4Y-3.9
X5.4Y-3.95
X5.4Y-4.0
X5.4Y-4.05
X5.4Y-4.2
X5.425Y-3.225
X5.425Y-3.35
X5.435Y-4.465
X5.45Y-2.35
X5.45Y-3.9
X5.45Y-3.95
X5.45Y-4.0
X5.45Y-4.15
X5.475Y-3.225
X5.475Y-3.35
X5.485Y-4.465
X5.5Y-2.35
X5.5Y-4.1
X5.525Y-3.225
X5.525Y-3.35
X5.535Y-4.465
X5.55Y-2.35
X5.55Y-4.05
X5.575Y-3.225
X5.575Y-3.35
X5.585Y-4.465
X5.6Y-2.35
X5.6Y-3.9
X5.6Y-3.95
X5.6Y-4.0
X5.625Y-3.225
X5.625Y-3.35
X5.635Y-4.465
X5.65Y-2.35
X5.65Y-3.9
X5.675Y-3.225
X5.675Y-3.35
X5.685Y-4.465
X5.7Y-2.35
X5.7Y-3.9
X5.72Y-3.58
X5.725Y-3.225
X5.725Y-3.35
X5.735Y-4.465
X5.75Y-2.35
X5.775Y-2.9
X5.775Y-2.95
X5.775Y-3.225
X5.775Y-3.35
X5.775Y-3.895
X5.785Y-4.465
X5.825Y-2.9
X5.825Y-2.95
X5.825Y-3.225
X5.825Y-3.35
X5.835Y-4.465
X5.85Y-3.75
X5.875Y-2.9
X5.875Y-2.95
X5.875Y-3.225
X5.88Y-3.35
X5.885Y-4.465
X5.925Y-3.225
X5.935Y-4.465
X5.975Y-3.225
X5.985Y-4.465
X6.0Y-4.0
X6.025Y-3.225
X6.035Y-4.465
X6.05Y-4.0
X6.075Y-3.225
X6.085Y-4.465
X6.1Y-3.8
X6.1Y-3.85
X6.1Y-4.0
X6.125Y-3.225
X6.135Y-4.465
X6.15Y-3.8
X6.15Y-3.85
X6.15Y-4.0
X6.175Y-3.225
X6.185Y-4.465
X6.2Y-3.9
X6.2Y-3.95
X6.2Y-4.0
X6.225Y-3.225
X6.25Y-3.075
X6.275Y-3.225
X6.3Y-3.075
X6.325Y-3.225
X6.35Y-3.075
X6.375Y-3.225
X6.4Y-3.075
X6.425Y-3.225
X6.45Y-2.35
X6.45Y-3.075
X6.45Y-3.275
X6.45Y-3.325
X6.45Y-3.375
X6.45Y-3.425
X6.45Y-3.475
X6.45Y-3.525
X6.45Y-3.575
X6.45Y-3.625
X6.45Y-3.675
X6.45Y-3.725
X6.45Y-3.775
X6.45Y-3.825
X6.45Y-3.875
X6.45Y-3.925
X6.45Y-3.975
X6.45Y-4.025
X6.45Y-4.075
X6.45Y-4.125
X6.45Y-4.175
X6.5Y-2.35
X6.5Y-3.075
X6.55Y-2.35
X6.6Y-2.35
X6.65Y-2.35
T2
X5.2738Y-3.85
X5.2738Y-3.9287
X5.2738Y-4.0075
X5.2738Y-4.0862
X5.2738Y-4.165
X5.2738Y-4.2437
X5.2738Y-4.3224
X5.2738Y-4.4012
X5.353Y-3.8106
X5.4317Y-3.8106
X5.5104Y-3.8106
X5.5892Y-3.8106
X5.6679Y-3.8106
X5.7467Y-3.8106
X5.825Y-3.85
X5.825Y-3.9287
X5.825Y-4.0075
X5.825Y-4.0862
X5.825Y-4.165
X5.825Y-4.2437
X5.825Y-4.3224
X5.825Y-4.4012
T3
X5.75Y-2.56
X5.75Y-2.6584
X5.26Y-2.76
X5.26Y-3.06
X6.24Y-3.82
X6.24Y-4.12
X5.14Y-2.76
X5.14Y-3.06
X6.135Y-3.64
X6.2334Y-3.64
X6.36Y-3.82
X6.36Y-4.12
X5.96Y-2.725
X6.26Y-2.725
X5.35Y-3.4447
X5.35Y-3.5447
X5.35Y-3.6447
X6.16Y-3.37
X6.2584Y-3.37
X4.85Y-3.6
X5.15Y-3.6
X4.85Y-3.725
X4.85Y-4.025
X4.88Y-2.86
X4.9784Y-2.86
X5.97Y-2.86
X6.07Y-2.86
X6.17Y-2.86
X5.4216Y-2.86
X5.52Y-2.86
X4.975Y-3.725
X4.975Y-4.025
X4.85Y-3.475
X5.15Y-3.475
X6.0Y-3.925
X6.0Y-4.225
X6.0Y-3.6031
X6.0Y-3.8
X5.1Y-3.725
X5.1Y-4.025
X5.868Y-3.04
X6.168Y-3.04
X5.475Y-3.4459
X5.475Y-3.6427
X6.12Y-3.925
X6.12Y-4.225
T4
X6.34Y-2.88
X6.34Y-2.98
X4.95Y-3.32
X5.05Y-3.32
T5
X5.09Y-4.14
X5.09Y-4.24
X5.09Y-4.34
X5.09Y-4.44
X4.8984Y-2.6175
X5.1031Y-1.46
X5.3Y-1.46
X5.5047Y-2.6175
X5.8657Y-2.3332
X6.3382Y-2.3332
X4.715Y-3.895
X4.715Y-3.995
X5.28Y-3.2862
X5.38Y-3.2862
X4.715Y-3.35
X4.715Y-3.45
X4.715Y-3.55
X4.715Y-3.65
X4.715Y-3.75
T6
X5.96Y-2.6
X6.26Y-2.6
X5.5941Y-3.4628
X5.5941Y-3.64
X5.85Y-3.4628
X5.85Y-3.64
T7
X5.8638Y-1.8509
X6.1Y-2.41
X6.3382Y-1.8529
T8
X5.725Y-1.475
X5.925Y-1.475
X6.125Y-1.475
X6.325Y-1.475
X6.525Y-1.475
T9
X4.8031Y-4.3307
X4.6457Y-2.6378
X6.4961Y-2.6378
X6.3386Y-4.3307
T0
M30
