M48
; DRILL file {KiCad (5.1.5)-3} date 7/21/2021 10:48:10 AM
; FORMAT={-:-/ absolute / inch / decimal}
; #@! TF.CreationDate,2021-07-21T10:48:10+02:00
; #@! TF.GenerationSoftware,Kicad,Pcbnew,(5.1.5)-3
; #@! TF.FileFunction,Plated,1,2,PTH
FMAT,2
INCH
T1C0.0118
T2C0.0157
T3C0.0197
T4C0.0315
T5C0.0354
T6C0.0394
T7C0.0433
T8C0.0512
T9C0.0598
T10C0.0787
%
G90
G05
T1
X4.0Y-1.1
X4.0Y-1.2
X4.0Y-1.3
X4.0Y-1.4
X4.0Y-1.5
X4.0Y-1.6
X4.0Y-1.7
X4.0Y-1.8
X4.0Y-1.9
X4.0Y-2.0
X4.0Y-2.1
X4.0Y-2.2
X4.0Y-2.3
X4.0Y-2.4
X4.0Y-2.5
X4.0Y-2.6
X4.34Y-1.33
X4.34Y-1.38
X4.39Y-1.33
X4.39Y-1.38
X4.425Y-2.4362
X4.475Y-2.3862
X4.475Y-2.4362
X4.5Y-1.0
X4.525Y-2.3362
X4.525Y-2.3862
X4.575Y-1.225
X4.575Y-2.2862
X4.575Y-2.3362
X4.575Y-2.625
X4.625Y-1.275
X4.625Y-2.2362
X4.625Y-2.2862
X4.625Y-2.625
X4.63Y-1.04
X4.64Y-0.98
X4.675Y-2.1862
X4.675Y-2.2362
X4.675Y-2.625
X4.7Y-1.45
X4.7Y-1.5
X4.7Y-1.55
X4.7Y-1.6
X4.7Y-1.65
X4.7Y-1.7
X4.7Y-1.75
X4.725Y-2.1862
X4.725Y-2.625
X4.775Y-2.2862
X4.775Y-2.625
X4.7888Y-2.075
X4.825Y-2.2862
X4.825Y-2.625
X4.8388Y-2.075
X4.85Y-1.35
X4.85Y-1.4
X4.85Y-1.45
X4.875Y-2.625
X4.8872Y-2.1734
X4.8888Y-2.075
X4.925Y-2.625
X4.93Y-1.35
X4.93Y-1.4
X4.9372Y-2.1734
X4.9372Y-2.2234
X4.975Y-2.625
X4.9872Y-2.1734
X5.025Y-1.58
X5.025Y-2.075
X5.025Y-2.625
X5.05Y-1.0
X5.05Y-1.05
X5.075Y-1.58
X5.075Y-2.075
X5.075Y-2.625
X5.1Y-1.0
X5.1Y-1.05
X5.125Y-1.58
X5.125Y-1.625
X5.125Y-1.675
X5.125Y-1.725
X5.125Y-1.775
X5.125Y-1.825
X5.125Y-1.875
X5.125Y-1.925
X5.125Y-1.975
X5.125Y-2.025
X5.125Y-2.075
X5.125Y-2.625
X5.15Y-2.175
X5.15Y-2.3
X5.175Y-2.625
X5.2Y-2.175
X5.2Y-2.3
X5.25Y-2.175
X5.25Y-2.3
X5.3Y-2.175
X5.32Y-1.65
X5.32Y-1.7
X5.32Y-1.75
X5.32Y-1.8
X5.32Y-1.85
X5.32Y-1.9
X5.32Y-1.95
X5.32Y-2.0
X5.36Y-1.65
X5.36Y-1.7
X5.36Y-1.75
X5.36Y-1.8
X5.36Y-1.85
X5.36Y-1.9
X5.36Y-1.95
X5.36Y-2.0
X5.3988Y-2.575
X5.3988Y-2.625
X5.4Y-0.95
X5.4Y-1.0
X5.4Y-1.25
X5.4Y-1.3
X5.43Y-2.42
X5.44Y-2.17
X5.4488Y-2.575
X5.4488Y-2.625
X5.45Y-0.95
X5.45Y-1.0
X5.45Y-1.25
X5.45Y-1.3
X5.51Y-2.01
X5.58Y-2.17
X5.5867Y-1.57
X5.6Y-2.275
X5.6Y-2.525
X5.6Y-2.625
X5.65Y-1.125
X5.65Y-1.225
X5.65Y-2.17
X5.65Y-2.225
X5.67Y-1.41
X5.69Y-2.2
X5.7Y-2.525
X5.7Y-2.625
X5.73Y-2.17
X5.75Y-1.125
X5.75Y-1.225
X5.8Y-2.525
X5.8Y-2.625
X5.82Y-1.57
T2
X4.0Y-2.85
X4.0Y-2.95
X4.0Y-3.05
X4.0Y-3.15
X4.0Y-3.25
X4.0Y-3.35
X4.6Y-2.8394
X4.6Y-2.9894
X4.7Y-2.8394
X4.7Y-2.9894
X4.7Y-3.2894
X4.8Y-2.8394
X4.8Y-2.9894
X4.8Y-3.3894
X4.9Y-2.8394
X4.9Y-2.9894
X4.9Y-3.3894
X5.0Y-2.8394
X5.0Y-2.9894
X5.0Y-3.1394
X5.1Y-2.8394
X5.1Y-3.1394
X5.1Y-3.1394
X5.19Y-2.08
X5.19Y-2.12
X5.2Y-2.8394
X5.2Y-3.1394
X5.3Y-2.8394
X5.3Y-3.1394
X5.4Y-2.9394
X5.4Y-3.0894
X5.4Y-3.3894
X5.5Y-2.9394
X5.5Y-3.3894
X5.6Y-2.9394
X5.6Y-3.0894
X5.6Y-3.2894
X5.7Y-2.9394
X5.7Y-3.0894
X5.8Y-2.9394
X5.8Y-3.0894
X5.9Y-2.9394
X5.9Y-3.0894
X6.0Y-2.9394
X6.0Y-3.0894
X6.1Y-2.9394
X6.5Y-2.85
X6.5Y-2.95
X6.5Y-3.05
X6.5Y-3.15
X6.5Y-3.25
X6.5Y-3.35
X6.5Y-3.45
T3
X5.27Y-1.375
X5.27Y-1.425
T4
X5.1266Y-3.0144
X5.225Y-3.0144
X5.73Y-3.25
X6.03Y-3.25
X4.65Y-2.52
X4.75Y-2.52
X4.85Y-2.52
X6.1516Y-3.4144
X6.25Y-3.4144
X5.8Y-3.4144
X5.9Y-3.4144
X6.0Y-3.4144
T5
X4.4585Y-1.3553
X4.5585Y-1.3553
X4.6585Y-1.3553
X4.7585Y-1.3553
X5.0Y-2.53
X5.1Y-2.53
T6
X5.7268Y-1.0039
X5.8268Y-1.0039
X4.8703Y-3.2569
X5.075Y-4.4144
X5.2719Y-4.4144
X5.4766Y-3.2569
X4.26Y-2.935
X4.36Y-2.935
X4.46Y-2.935
X4.1Y-1.025
X4.2Y-1.025
X4.3Y-1.025
X4.4Y-1.025
X4.2731Y-4.4144
X4.47Y-4.4144
X4.26Y-2.5315
X4.36Y-2.5315
X4.46Y-2.5315
X5.8368Y-3.8411
X6.3093Y-3.8411
X4.7Y-4.1191
X4.7Y-4.4144
T7
X5.925Y-3.6144
X6.225Y-3.6144
T8
X5.8368Y-4.3215
X6.075Y-3.7644
X6.3112Y-4.3234
T9
X4.125Y-3.6144
X4.125Y-3.8144
X4.125Y-4.0144
X4.125Y-4.2144
X4.125Y-4.4144
T10
X4.175Y-1.375
X4.175Y-2.2884
X5.0455Y-1.375
X5.0455Y-2.2884
T0
M30
