%TF.GenerationSoftware,KiCad,Pcbnew,(5.1.5)-3*%
%TF.CreationDate,2021-01-06T09:36:04+01:00*%
%TF.ProjectId,cece-pcb,63656365-2d70-4636-922e-6b696361645f,rev?*%
%TF.SameCoordinates,Original*%
%TF.FileFunction,Legend,Bot*%
%TF.FilePolarity,Positive*%
%FSLAX46Y46*%
G04 Gerber Fmt 4.6, Leading zero omitted, Abs format (unit mm)*
G04 Created by KiCad (PCBNEW (5.1.5)-3) date 2021-01-06 09:36:04*
%MOMM*%
%LPD*%
G04 APERTURE LIST*
%ADD10C,0.150000*%
%ADD11C,0.120000*%
%ADD12C,0.160000*%
G04 APERTURE END LIST*
D10*
X150785714Y-40952380D02*
X150785714Y-39952380D01*
X150214285Y-40952380D01*
X150214285Y-39952380D01*
X160345476Y-40857142D02*
X160393095Y-40904761D01*
X160535952Y-40952380D01*
X160631190Y-40952380D01*
X160774047Y-40904761D01*
X160869285Y-40809523D01*
X160916904Y-40714285D01*
X160964523Y-40523809D01*
X160964523Y-40380952D01*
X160916904Y-40190476D01*
X160869285Y-40095238D01*
X160774047Y-40000000D01*
X160631190Y-39952380D01*
X160535952Y-39952380D01*
X160393095Y-40000000D01*
X160345476Y-40047619D01*
X156360714Y-40952380D02*
X156360714Y-39952380D01*
X155789285Y-40952380D01*
X155789285Y-39952380D01*
X154741666Y-40857142D02*
X154789285Y-40904761D01*
X154932142Y-40952380D01*
X155027380Y-40952380D01*
X155170238Y-40904761D01*
X155265476Y-40809523D01*
X155313095Y-40714285D01*
X155360714Y-40523809D01*
X155360714Y-40380952D01*
X155313095Y-40190476D01*
X155265476Y-40095238D01*
X155170238Y-40000000D01*
X155027380Y-39952380D01*
X154932142Y-39952380D01*
X154789285Y-40000000D01*
X154741666Y-40047619D01*
X166544523Y-40952380D02*
X166544523Y-39952380D01*
X165973095Y-40952380D01*
X165973095Y-39952380D01*
X165306428Y-39952380D02*
X165115952Y-39952380D01*
X165020714Y-40000000D01*
X164925476Y-40095238D01*
X164877857Y-40285714D01*
X164877857Y-40619047D01*
X164925476Y-40809523D01*
X165020714Y-40904761D01*
X165115952Y-40952380D01*
X165306428Y-40952380D01*
X165401666Y-40904761D01*
X165496904Y-40809523D01*
X165544523Y-40619047D01*
X165544523Y-40285714D01*
X165496904Y-40095238D01*
X165401666Y-40000000D01*
X165306428Y-39952380D01*
X145190476Y-40952380D02*
X145666666Y-40952380D01*
X145666666Y-39952380D01*
D11*
%TO.C,REF\002A\002A*%
X137565000Y-62860000D02*
X137465000Y-62860000D01*
X137365000Y-62960000D02*
X138065000Y-62960000D01*
X138265000Y-63060000D02*
X137365000Y-63060000D01*
X138565000Y-63360000D02*
X138265000Y-63060000D01*
X138465000Y-63260000D02*
X138565000Y-63360000D01*
X138465000Y-63360000D02*
X138465000Y-63260000D01*
X138565000Y-63260000D02*
X137865000Y-63260000D01*
X137365000Y-63160000D02*
X138465000Y-63160000D01*
X137565000Y-61860000D02*
X137565000Y-61360000D01*
X137465000Y-61360000D02*
X137465000Y-62160000D01*
X137365000Y-61260000D02*
X137365000Y-63260000D01*
X137265000Y-63360000D02*
X137265000Y-61088796D01*
X137073488Y-61334074D02*
X137073488Y-62660000D01*
X137165000Y-64060000D02*
X137165000Y-61060000D01*
X136465000Y-64160000D02*
X136565000Y-64160000D01*
X136572415Y-64079582D02*
X136572415Y-64360000D01*
X136665000Y-63960000D02*
X136665000Y-64460000D01*
X136765000Y-64660000D02*
X136765000Y-63660000D01*
X136865000Y-63660000D02*
X136865000Y-64660000D01*
X136963908Y-64660000D02*
X136963908Y-62860000D01*
X137063908Y-64560000D02*
X136963908Y-64660000D01*
X137063908Y-62761092D02*
X137063908Y-64560000D01*
X136965000Y-62860000D02*
X137063908Y-62761092D01*
X136865000Y-62960000D02*
X136965000Y-62860000D01*
X136665000Y-62760000D02*
X136865000Y-62960000D01*
X136795421Y-62760000D02*
X136665000Y-62760000D01*
X136665000Y-62890421D02*
X136795421Y-62760000D01*
X136534579Y-62760000D02*
X136665000Y-62890421D01*
X136534579Y-62860000D02*
X136534579Y-62760000D01*
X136334579Y-62660000D02*
X136534579Y-62860000D01*
X136334579Y-62818819D02*
X136334579Y-62660000D01*
X135765000Y-62660000D02*
X136265000Y-62660000D01*
X135965000Y-62660000D02*
X135765000Y-62660000D01*
X135765000Y-62460000D02*
X135965000Y-62660000D01*
X135765000Y-62660000D02*
X135765000Y-62460000D01*
X135765000Y-62560000D02*
X135765000Y-62660000D01*
X135865000Y-62560000D02*
X135765000Y-62560000D01*
X135665000Y-62360000D02*
X135865000Y-62560000D01*
X135665000Y-62860000D02*
X135665000Y-62360000D01*
X135465000Y-62760000D02*
X135465000Y-62360000D01*
X135565000Y-62760000D02*
X135565000Y-62360000D01*
X135431726Y-62643330D02*
X135431726Y-62360000D01*
X135365000Y-62360000D02*
X135365000Y-62260000D01*
X135365000Y-62560000D02*
X135365000Y-62360000D01*
X135265000Y-62460000D02*
X135265000Y-62160000D01*
X135165000Y-62560000D02*
X135165000Y-62060000D01*
X134765000Y-62207619D02*
X134765000Y-62160000D01*
X134865000Y-62107619D02*
X134765000Y-62207619D01*
X134865000Y-62360000D02*
X134865000Y-62107619D01*
X134965000Y-62460000D02*
X134965000Y-62160000D01*
X135065000Y-61660000D02*
X135065000Y-62560000D01*
X135065000Y-61960000D02*
X135065000Y-61660000D01*
X135165000Y-61960000D02*
X135065000Y-61960000D01*
X134865000Y-61660000D02*
X135165000Y-61960000D01*
X134865000Y-61731237D02*
X134865000Y-61460000D01*
X134765000Y-61731237D02*
X134865000Y-61731237D01*
X134765000Y-61660000D02*
X134765000Y-61731237D01*
X134765000Y-61360000D02*
X134765000Y-61660000D01*
X134665000Y-61260000D02*
X134765000Y-61360000D01*
X134665000Y-61660000D02*
X134665000Y-61260000D01*
X134465000Y-61660000D02*
X134365000Y-61660000D01*
X134465000Y-61865703D02*
X134465000Y-61660000D01*
X134059297Y-61460000D02*
X134465000Y-61865703D01*
X134165000Y-61565703D02*
X134059297Y-61460000D01*
X134265000Y-61465703D02*
X134165000Y-61565703D01*
X134265000Y-61760000D02*
X134265000Y-61465703D01*
X133865000Y-61360000D02*
X134265000Y-61760000D01*
X133965000Y-61460000D02*
X133865000Y-61360000D01*
X133865000Y-61460000D02*
X133965000Y-61460000D01*
X133665000Y-61260000D02*
X133865000Y-61460000D01*
X133665000Y-61475447D02*
X133665000Y-61260000D01*
X133565000Y-61475447D02*
X133665000Y-61475447D01*
X133565000Y-61286303D02*
X133565000Y-61475447D01*
X133465000Y-61186303D02*
X133565000Y-61286303D01*
X133465000Y-61451844D02*
X133465000Y-61186303D01*
X133365000Y-61451844D02*
X133465000Y-61451844D01*
X133365000Y-61269346D02*
X133365000Y-61451844D01*
X133268104Y-61172450D02*
X133365000Y-61269346D01*
X133268104Y-61463104D02*
X133268104Y-61172450D01*
X133165000Y-61360000D02*
X133268104Y-61463104D01*
X133165000Y-61160000D02*
X133165000Y-61360000D01*
X133065000Y-61160000D02*
X133165000Y-61160000D01*
X133065000Y-62060000D02*
X133065000Y-61160000D01*
X132665000Y-61660000D02*
X132665000Y-61772814D01*
X132765000Y-62260000D02*
X132765000Y-61001578D01*
X132865000Y-62360000D02*
X132765000Y-62260000D01*
X132865000Y-61068542D02*
X132865000Y-62360000D01*
X132965000Y-61068542D02*
X132865000Y-61068542D01*
X132965000Y-62560000D02*
X132965000Y-61068542D01*
X133165000Y-62960000D02*
X133165000Y-62660000D01*
X133265000Y-63060000D02*
X133165000Y-62960000D01*
X133265000Y-62889374D02*
X133265000Y-63060000D01*
X133365000Y-62889374D02*
X133265000Y-62889374D01*
X133365000Y-63160000D02*
X133365000Y-62889374D01*
X133465000Y-63160000D02*
X133365000Y-63160000D01*
X133465000Y-63060000D02*
X133465000Y-63160000D01*
X133565000Y-63060000D02*
X133465000Y-63060000D01*
X133565000Y-63260000D02*
X133565000Y-63060000D01*
X133665000Y-63260000D02*
X133565000Y-63260000D01*
X133665000Y-63060000D02*
X133665000Y-63260000D01*
X133765000Y-63060000D02*
X133665000Y-63060000D01*
X133765000Y-63260000D02*
X133765000Y-63060000D01*
X133865000Y-63260000D02*
X133765000Y-63260000D01*
X133865000Y-62760000D02*
X133865000Y-63260000D01*
X134065000Y-62560000D02*
X133865000Y-62760000D01*
X134065000Y-63260000D02*
X134065000Y-62560000D01*
X133965000Y-63260000D02*
X134065000Y-63260000D01*
X133965000Y-62560000D02*
X133965000Y-63260000D01*
X133865000Y-62460000D02*
X133965000Y-62560000D01*
X133865000Y-62660000D02*
X133865000Y-62460000D01*
X133765000Y-62660000D02*
X133865000Y-62660000D01*
X133765000Y-62360000D02*
X133765000Y-62660000D01*
X133665000Y-62260000D02*
X133765000Y-62360000D01*
X133665000Y-62460000D02*
X133665000Y-62260000D01*
X133465000Y-62260000D02*
X133665000Y-62460000D01*
X133565000Y-62260000D02*
X133465000Y-62260000D01*
X133565000Y-62460000D02*
X133565000Y-62260000D01*
X133365000Y-62260000D02*
X133565000Y-62460000D01*
X133365000Y-62360000D02*
X133365000Y-62260000D01*
X133465000Y-62360000D02*
X133365000Y-62360000D01*
X133265000Y-62160000D02*
X133465000Y-62360000D01*
X133265000Y-62360000D02*
X133265000Y-62160000D01*
X133165000Y-62460000D02*
X133265000Y-62360000D01*
X133165000Y-62160000D02*
X133165000Y-62460000D01*
X133065000Y-62060000D02*
X133165000Y-62160000D01*
X133065000Y-62860000D02*
X133065000Y-62060000D01*
X128865000Y-63560000D02*
X128865000Y-61946352D01*
D12*
X128181254Y-61494464D02*
G75*
G03X127893498Y-61641603I1283746J-2865536D01*
G01*
D11*
X127765000Y-64560000D02*
X127665000Y-64460000D01*
X127881148Y-64560000D02*
X127765000Y-64560000D01*
X127652055Y-64330907D02*
X127881148Y-64560000D01*
X127165000Y-64191041D02*
X127065000Y-64291041D01*
X127046221Y-64072262D02*
X127165000Y-64191041D01*
X127046221Y-64312016D02*
X127046221Y-64072262D01*
D12*
X136604739Y-64061111D02*
X136572415Y-64079582D01*
X136632448Y-63901784D02*
X136604739Y-64061111D01*
X136667084Y-63867147D02*
X136632448Y-63901784D01*
X136646304Y-63857911D02*
X136667084Y-63867147D01*
X136632450Y-63834820D02*
X136646304Y-63857911D01*
X136708650Y-63717057D02*
X136632450Y-63834820D01*
X136680941Y-63673184D02*
X136708650Y-63717057D01*
X136722505Y-63622384D02*
X136680941Y-63673184D01*
X136708652Y-63587748D02*
X136722505Y-63622384D01*
X136851815Y-63555420D02*
X136708652Y-63587748D01*
X136851815Y-63523093D02*
X136851815Y-63555420D01*
X136731743Y-63513856D02*
X136851815Y-63523093D01*
X136817179Y-63393784D02*
X136731743Y-63513856D01*
X136884143Y-63428420D02*
X136817179Y-63393784D01*
X136934943Y-63393784D02*
X136884143Y-63428420D01*
X136884143Y-63276020D02*
X136934943Y-63393784D01*
X136884143Y-63095911D02*
X136884143Y-63276020D01*
X136944179Y-63040493D02*
X136884143Y-63095911D01*
X136944179Y-62987384D02*
X136944179Y-63040493D01*
X136766379Y-62945820D02*
X136944179Y-62987384D01*
X136766379Y-62936584D02*
X136766379Y-62945820D01*
X136623215Y-62888093D02*
X136766379Y-62936584D01*
X136623215Y-62878856D02*
X136623215Y-62888093D01*
X136528543Y-62846529D02*
X136623215Y-62878856D01*
X136486979Y-62860382D02*
X136528543Y-62846529D01*
X136334579Y-62818819D02*
X136486979Y-62860382D01*
X136249143Y-62818819D02*
X136334579Y-62818819D01*
X136235289Y-62761091D02*
X136249143Y-62818819D01*
X136226052Y-62793419D02*
X136235289Y-62761091D01*
X136075961Y-62784182D02*
X136226052Y-62793419D01*
X135895852Y-62675655D02*
X136075961Y-62784182D01*
X135838125Y-62707982D02*
X135895852Y-62675655D01*
X135701889Y-62707982D02*
X135838125Y-62707982D01*
X135678798Y-62719528D02*
X135701889Y-62707982D01*
X135678798Y-62728765D02*
X135678798Y-62719528D01*
X135669562Y-62742619D02*
X135678798Y-62728765D01*
X135724980Y-62818819D02*
X135669562Y-62742619D01*
X135737038Y-62839600D02*
X135724980Y-62818819D01*
X135748584Y-62865000D02*
X135737038Y-62839600D01*
X135759617Y-62895019D02*
X135748584Y-62865000D01*
X135819653Y-63063582D02*
X135759617Y-62895019D01*
X135895853Y-63095910D02*
X135819653Y-63063582D01*
X135895853Y-63149019D02*
X135895853Y-63095910D01*
X135886616Y-63158255D02*
X135895853Y-63149019D01*
X135972053Y-63225219D02*
X135886616Y-63158255D01*
X135981289Y-63285255D02*
X135972053Y-63225219D01*
X136022853Y-63276019D02*
X135981289Y-63285255D01*
X136029523Y-63351449D02*
X136022853Y-63276019D01*
X136037220Y-63405327D02*
X136029523Y-63351449D01*
X136045943Y-63437655D02*
X136037220Y-63405327D01*
X136075961Y-63513855D02*
X136045943Y-63437655D01*
X136140616Y-63550800D02*
X136075961Y-63513855D01*
X136156266Y-63561319D02*
X136140616Y-63550800D01*
X136169351Y-63574404D02*
X136156266Y-63561319D01*
X136179870Y-63590055D02*
X136169351Y-63574404D01*
X136207579Y-63631619D02*
X136179870Y-63590055D01*
X136207579Y-63654709D02*
X136207579Y-63631619D01*
X136283779Y-63802490D02*
X136207579Y-63654709D01*
X136293016Y-63802490D02*
X136283779Y-63802490D01*
X136396925Y-63952581D02*
X136293016Y-63802490D01*
X136420015Y-63952581D02*
X136396925Y-63952581D01*
X136496215Y-64028781D02*
X136420015Y-63952581D01*
X136496215Y-64061109D02*
X136496215Y-64028781D01*
X136572415Y-64079582D02*
X136496215Y-64061109D01*
X136410264Y-64187598D02*
X136429250Y-64241221D01*
X136396410Y-64152962D02*
X136410264Y-64187598D01*
X136387687Y-64137312D02*
X136396410Y-64152962D01*
X136840270Y-64705349D02*
X136934943Y-64770000D01*
X136657851Y-64596822D02*
X136840270Y-64705349D01*
X136632451Y-64543713D02*
X136657851Y-64596822D01*
X136623215Y-64543713D02*
X136632451Y-64543713D01*
X136613978Y-64511385D02*
X136623215Y-64543713D01*
X136581651Y-64511385D02*
X136613978Y-64511385D01*
X136572414Y-64425949D02*
X136581651Y-64511385D01*
X136547014Y-64416712D02*
X136572414Y-64425949D01*
X136505450Y-64308185D02*
X136547014Y-64416712D01*
X136505450Y-64298949D02*
X136505450Y-64308185D01*
X136429250Y-64241221D02*
X136505450Y-64298949D01*
X136334578Y-64038021D02*
X136387687Y-64137312D01*
X136302250Y-64028785D02*
X136334578Y-64038021D01*
X136193723Y-63848676D02*
X136302250Y-64028785D01*
X136175250Y-63848676D02*
X136193723Y-63848676D01*
X136045941Y-63613148D02*
X136175250Y-63848676D01*
X136032087Y-63613148D02*
X136045941Y-63613148D01*
X135972051Y-63523094D02*
X136032087Y-63613148D01*
X135981288Y-63523094D02*
X135972051Y-63523094D01*
X135819651Y-63266785D02*
X135981288Y-63523094D01*
X135810415Y-63276021D02*
X135819651Y-63266785D01*
X135701887Y-63139785D02*
X135810415Y-63276021D01*
X135720361Y-63139785D02*
X135701887Y-63139785D01*
X135687263Y-63104891D02*
X135720361Y-63139785D01*
X135655706Y-63037158D02*
X135687263Y-63104891D01*
X135625688Y-62936585D02*
X135655706Y-63037158D01*
X135540253Y-62828058D02*
X135554106Y-62862694D01*
X135549489Y-62802658D02*
X135540253Y-62828058D01*
X135440962Y-62761094D02*
X135549489Y-62802658D01*
X135399398Y-62698749D02*
X135440962Y-62761094D01*
X135431726Y-62643330D02*
X135399398Y-62698749D01*
X135380926Y-62599458D02*
X135431726Y-62643330D01*
X135380926Y-62580984D02*
X135380926Y-62599458D01*
X135313962Y-62590221D02*
X135380926Y-62580984D01*
X135295489Y-62548657D02*
X135313962Y-62590221D01*
X135270089Y-62548657D02*
X135295489Y-62548657D01*
X135260852Y-62557894D02*
X135270089Y-62548657D01*
X135219288Y-62548657D02*
X135260852Y-62557894D01*
X135196198Y-62590221D02*
X135219288Y-62548657D01*
X134992998Y-62548657D02*
X135196198Y-62590221D01*
X134983762Y-62548657D02*
X134992998Y-62548657D01*
X134898325Y-62430894D02*
X134983762Y-62548657D01*
X134907562Y-62421657D02*
X134898325Y-62430894D01*
X134854453Y-62405494D02*
X134907562Y-62421657D01*
X135587971Y-62902717D02*
X135625688Y-62936585D01*
X135564111Y-62878087D02*
X135587971Y-62902717D01*
X135554106Y-62862694D02*
X135564111Y-62878087D01*
X134812119Y-62359055D02*
X134854453Y-62405494D01*
X134786719Y-62324418D02*
X134812119Y-62359055D01*
X134778252Y-62301584D02*
X134786719Y-62324418D01*
X134747721Y-62275671D02*
X134778252Y-62301584D01*
X134714624Y-62222562D02*
X134747721Y-62275671D01*
X134678962Y-62142257D02*
X134714624Y-62222562D01*
X134755162Y-62042966D02*
X134678962Y-62142257D01*
X134800061Y-62049636D02*
X134755162Y-62042966D01*
X134833158Y-62057334D02*
X134800061Y-62049636D01*
X134854453Y-62066056D02*
X134833158Y-62057334D01*
X134907562Y-62093766D02*
X134854453Y-62066056D01*
X134926035Y-62084529D02*
X134907562Y-62093766D01*
X134939889Y-62107619D02*
X134926035Y-62084529D01*
X135025325Y-62142255D02*
X134939889Y-62107619D01*
X135016088Y-62093764D02*
X135025325Y-62142255D01*
X135057652Y-62066055D02*
X135016088Y-62093764D01*
X134789797Y-61731237D02*
X135057652Y-62066055D01*
X134713597Y-61731237D02*
X134789797Y-61731237D01*
X134586596Y-61830528D02*
X134713597Y-61731237D01*
X134542725Y-61795892D02*
X134586596Y-61830528D01*
X134545804Y-61740216D02*
X134542725Y-61795892D01*
X134548883Y-61693265D02*
X134545804Y-61740216D01*
X134551961Y-61655037D02*
X134548883Y-61693265D01*
X134538107Y-61636564D02*
X134551961Y-61655037D01*
X134561198Y-61583455D02*
X134538107Y-61636564D01*
X134542725Y-61541891D02*
X134561198Y-61583455D01*
X134561198Y-61484163D02*
X134542725Y-61541891D01*
X134551961Y-61474927D02*
X134561198Y-61484163D01*
X134551961Y-61442601D02*
X134551961Y-61474927D01*
X134575051Y-61417201D02*
X134551961Y-61442601D01*
X134542724Y-61433364D02*
X134575051Y-61417201D01*
X134549394Y-61355367D02*
X134542724Y-61433364D01*
X134560170Y-61296871D02*
X134549394Y-61355367D01*
X134575051Y-61257873D02*
X134560170Y-61296871D01*
X134561198Y-61214000D02*
X134575051Y-61257873D01*
X134561198Y-61195527D02*
X134561198Y-61214000D01*
X134551961Y-61163200D02*
X134561198Y-61195527D01*
X134558631Y-61156272D02*
X134551961Y-61163200D01*
X134566328Y-61141648D02*
X134558631Y-61156272D01*
X134575051Y-61119327D02*
X134566328Y-61141648D01*
X134660491Y-61087002D02*
X134575051Y-61119327D01*
X134685377Y-61112658D02*
X134660491Y-61087002D01*
X134701542Y-61134210D02*
X134685377Y-61112658D01*
X134708982Y-61151656D02*
X134701542Y-61134210D01*
X134722835Y-61195529D02*
X134708982Y-61151656D01*
X134778254Y-61239402D02*
X134722835Y-61195529D01*
X134778254Y-61257875D02*
X134778254Y-61239402D01*
X134799034Y-61227857D02*
X134778254Y-61257875D01*
X134854452Y-61389493D02*
X134799034Y-61227857D01*
X134872926Y-61389493D02*
X134854452Y-61389493D01*
X134895246Y-61429774D02*
X134872926Y-61389493D01*
X134912949Y-61458253D02*
X134895246Y-61429774D01*
X134926035Y-61474930D02*
X134912949Y-61458253D01*
X134926035Y-61493403D02*
X134926035Y-61474930D01*
X135002235Y-61551130D02*
X134926035Y-61493403D01*
X135002235Y-61601930D02*
X135002235Y-61551130D01*
X135034562Y-61601930D02*
X135002235Y-61601930D01*
X135025325Y-61627330D02*
X135034562Y-61601930D01*
X135092289Y-61678130D02*
X135025325Y-61627330D01*
X135101526Y-61805130D02*
X135092289Y-61678130D01*
X135140780Y-61843358D02*
X135101526Y-61805130D01*
X135166180Y-61871836D02*
X135140780Y-61843358D01*
X135177726Y-61890567D02*
X135166180Y-61871836D01*
X135161562Y-61904420D02*
X135177726Y-61890567D01*
X135219289Y-62052202D02*
X135161562Y-61904420D01*
X135260853Y-62093766D02*
X135219289Y-62052202D01*
X135295489Y-62169966D02*
X135260853Y-62093766D01*
X135380926Y-62183819D02*
X135295489Y-62169966D01*
X135380926Y-62246164D02*
X135380926Y-62183819D01*
X135464053Y-62246164D02*
X135380926Y-62246164D01*
X135549489Y-62310819D02*
X135464053Y-62246164D01*
X135625689Y-62287729D02*
X135549489Y-62310819D01*
X135658017Y-62322365D02*
X135625689Y-62287729D01*
X135796562Y-62405493D02*
X135658017Y-62322365D01*
X135886617Y-62387019D02*
X135796562Y-62405493D01*
X135851980Y-62481692D02*
X135886617Y-62387019D01*
X135946653Y-62481692D02*
X135851980Y-62481692D01*
X136013617Y-62548656D02*
X135946653Y-62481692D01*
X136032090Y-62548656D02*
X136013617Y-62548656D01*
X136032090Y-62590219D02*
X136032090Y-62548656D01*
X136131381Y-62548656D02*
X136032090Y-62590219D01*
X136140618Y-62608692D02*
X136131381Y-62548656D01*
X136283781Y-62634092D02*
X136140618Y-62608692D01*
X136420018Y-62675656D02*
X136283781Y-62634092D01*
X136486981Y-62666419D02*
X136420018Y-62675656D01*
X136555227Y-62672320D02*
X136486981Y-62666419D01*
X136624499Y-62690023D02*
X136555227Y-62672320D01*
X136694799Y-62719528D02*
X136624499Y-62690023D01*
X136708653Y-62728765D02*
X136694799Y-62719528D01*
X136766380Y-62742618D02*
X136708653Y-62728765D01*
X136817180Y-62728765D02*
X136766380Y-62742618D01*
X136807944Y-62793419D02*
X136817180Y-62728765D01*
X136911853Y-62802656D02*
X136807944Y-62793419D01*
X136911853Y-62784183D02*
X136911853Y-62802656D01*
X136960344Y-62802656D02*
X136911853Y-62784183D01*
X137029616Y-62761092D02*
X136960344Y-62802656D01*
X137043470Y-62608692D02*
X137029616Y-62761092D01*
X137001906Y-62516329D02*
X137043470Y-62608692D01*
X137017300Y-62439871D02*
X137001906Y-62516329D01*
X137026536Y-62382914D02*
X137017300Y-62439871D01*
X137029615Y-62345456D02*
X137026536Y-62382914D01*
X137011142Y-62246165D02*
X137029615Y-62345456D01*
X137029615Y-62211529D02*
X137011142Y-62246165D01*
X137023456Y-62165603D02*
X137029615Y-62211529D01*
X137014220Y-62126348D02*
X137023456Y-62165603D01*
X137001906Y-62093765D02*
X137014220Y-62126348D01*
X137055015Y-61904420D02*
X137001906Y-62093765D01*
X137011143Y-61814365D02*
X137055015Y-61904420D01*
X137029616Y-61701220D02*
X137011143Y-61814365D01*
X137011143Y-61569601D02*
X137029616Y-61701220D01*
X137029616Y-61537274D02*
X137011143Y-61569601D01*
X137073488Y-61334074D02*
X137029616Y-61537274D01*
X137073488Y-61204765D02*
X137073488Y-61334074D01*
X137101197Y-61137801D02*
X137073488Y-61204765D01*
X137113000Y-61113684D02*
X137101197Y-61137801D01*
X137123775Y-61096750D02*
X137113000Y-61113684D01*
X137133525Y-61087001D02*
X137123775Y-61096750D01*
X137214343Y-61020038D02*
X137133525Y-61087001D01*
X137276432Y-61059548D02*
X137214343Y-61020038D01*
X137317995Y-61088796D02*
X137276432Y-61059548D01*
X137339034Y-61107783D02*
X137317995Y-61088796D01*
X137375979Y-61153965D02*
X137339034Y-61107783D01*
X137366743Y-61214000D02*
X137375979Y-61153965D01*
X137426779Y-61204765D02*
X137366743Y-61214000D01*
X137452179Y-61271728D02*
X137426779Y-61204765D01*
X137535306Y-61280965D02*
X137452179Y-61271728D01*
X137564298Y-61315601D02*
X137535306Y-61280965D01*
X137592777Y-61354855D02*
X137564298Y-61315601D01*
X137620743Y-61398729D02*
X137592777Y-61354855D01*
X137611506Y-61668892D02*
X137620743Y-61398729D01*
X137641529Y-61668892D02*
X137611506Y-61668892D01*
X137646146Y-61701220D02*
X137641529Y-61668892D01*
X137634600Y-61731238D02*
X137646146Y-61701220D01*
X137602272Y-61719691D02*
X137634600Y-61731238D01*
X137569945Y-61763564D02*
X137602272Y-61719691D01*
X137546855Y-61948291D02*
X137569945Y-61763564D01*
X137502982Y-62008327D02*
X137546855Y-61948291D01*
X137526072Y-62052200D02*
X137502982Y-62008327D01*
X137502982Y-62075290D02*
X137526072Y-62052200D01*
X137493746Y-62183818D02*
X137502982Y-62075290D01*
X137461418Y-62211527D02*
X137493746Y-62183818D01*
X137493746Y-62246163D02*
X137461418Y-62211527D01*
X137493746Y-62269253D02*
X137493746Y-62246163D01*
X137484509Y-62269253D02*
X137493746Y-62269253D01*
X137452182Y-62770326D02*
X137484509Y-62269253D01*
X137588418Y-62828053D02*
X137452182Y-62770326D01*
X137602272Y-62818817D02*
X137588418Y-62828053D01*
X137823944Y-62913489D02*
X137602272Y-62818817D01*
X137934781Y-62888089D02*
X137823944Y-62913489D01*
X138061781Y-62922726D02*
X137934781Y-62888089D01*
X138288072Y-62922726D02*
X138061781Y-62922726D01*
X138382744Y-62987380D02*
X138288072Y-62922726D01*
X138567472Y-63181344D02*
X138382744Y-62987380D01*
X138590562Y-63167490D02*
X138567472Y-63181344D01*
X138618527Y-63200587D02*
X138590562Y-63167490D01*
X138647006Y-63244460D02*
X138618527Y-63200587D01*
X138675998Y-63299109D02*
X138647006Y-63244460D01*
X138643671Y-63393781D02*
X138675998Y-63299109D01*
X138567471Y-63393781D02*
X138643671Y-63393781D01*
X138525907Y-63460745D02*
X138567471Y-63393781D01*
X138433544Y-63430727D02*
X138525907Y-63460745D01*
X138410452Y-63421490D02*
X138433544Y-63430727D01*
X138390440Y-63409175D02*
X138410452Y-63421490D01*
X138373507Y-63393781D02*
X138390440Y-63409175D01*
X138331944Y-63352218D02*
X138373507Y-63393781D01*
X138126435Y-63299109D02*
X138331944Y-63352218D01*
X138008671Y-63333745D02*
X138126435Y-63299109D01*
X137999434Y-63299109D02*
X138008671Y-63333745D01*
X137814707Y-63310655D02*
X137999434Y-63299109D01*
X137696943Y-63225219D02*
X137814707Y-63310655D01*
X137648452Y-63231376D02*
X137696943Y-63225219D01*
X137616894Y-63237534D02*
X137648452Y-63231376D01*
X137602271Y-63243692D02*
X137616894Y-63237534D01*
X137588417Y-63234455D02*
X137602271Y-63243692D01*
X137579180Y-63243692D02*
X137588417Y-63234455D01*
X137546853Y-63243692D02*
X137579180Y-63243692D01*
X137470653Y-63276019D02*
X137546853Y-63243692D01*
X137399071Y-63215983D02*
X137470653Y-63276019D01*
X137322871Y-63243692D02*
X137399071Y-63215983D01*
X137301319Y-63332207D02*
X137322871Y-63243692D01*
X137276689Y-63419183D02*
X137301319Y-63332207D01*
X137248980Y-63504619D02*
X137276689Y-63419183D01*
X137322871Y-63504619D02*
X137248980Y-63504619D01*
X137290544Y-63546183D02*
X137322871Y-63504619D01*
X137267454Y-63546183D02*
X137290544Y-63546183D01*
X137191254Y-64146547D02*
X137267454Y-63546183D01*
X137191254Y-64178874D02*
X137191254Y-64146547D01*
X137138145Y-64231983D02*
X137191254Y-64178874D01*
X137138145Y-64317419D02*
X137138145Y-64231983D01*
X137119672Y-64372838D02*
X137138145Y-64317419D01*
X137111203Y-64441853D02*
X137119672Y-64372838D01*
X137104276Y-64488804D02*
X137111203Y-64441853D01*
X137098888Y-64513692D02*
X137104276Y-64488804D01*
X137095552Y-64529855D02*
X137098888Y-64513692D01*
X137091703Y-64547558D02*
X137095552Y-64529855D01*
X137087342Y-64566801D02*
X137091703Y-64547558D01*
X137096579Y-64670710D02*
X137087342Y-64566801D01*
X137043470Y-64756147D02*
X137096579Y-64670710D01*
X136934943Y-64770000D02*
X137043470Y-64756147D01*
X133307873Y-62411135D02*
X133362779Y-62400873D01*
X133269388Y-62420371D02*
X133307873Y-62411135D01*
X133247324Y-62428582D02*
X133269388Y-62420371D01*
X133697597Y-62978145D02*
X133656033Y-62992000D01*
X133750706Y-62978145D02*
X133697597Y-62978145D01*
X133755323Y-62897327D02*
X133750706Y-62978145D01*
X133792269Y-62841908D02*
X133755323Y-62897327D01*
X133778415Y-62671036D02*
X133792269Y-62841908D01*
X133669888Y-62580981D02*
X133778415Y-62671036D01*
X133589070Y-62463218D02*
X133669888Y-62580981D01*
X133436670Y-62449364D02*
X133589070Y-62463218D01*
X133362779Y-62400873D02*
X133436670Y-62449364D01*
X133201143Y-62453982D02*
X133247324Y-62428582D01*
X133187289Y-62539419D02*
X133201143Y-62453982D01*
X133201143Y-62599455D02*
X133187289Y-62539419D01*
X133238088Y-62590218D02*
X133201143Y-62599455D01*
X133264001Y-62649228D02*
X133238088Y-62590218D01*
X133286322Y-62696949D02*
X133264001Y-62649228D01*
X133305052Y-62733382D02*
X133286322Y-62696949D01*
X133277343Y-62784182D02*
X133305052Y-62733382D01*
X133318906Y-62784182D02*
X133277343Y-62784182D01*
X133332247Y-62788800D02*
X133318906Y-62784182D01*
X133350719Y-62802654D02*
X133332247Y-62788800D01*
X133374324Y-62825745D02*
X133350719Y-62802654D01*
X133398184Y-62855507D02*
X133374324Y-62825745D01*
X133414348Y-62889374D02*
X133398184Y-62855507D01*
X133422814Y-62927345D02*
X133414348Y-62889374D01*
X133448215Y-62942739D02*
X133422814Y-62927345D01*
X133478233Y-62964290D02*
X133448215Y-62942739D01*
X133512870Y-62992000D02*
X133478233Y-62964290D01*
X133575215Y-62964290D02*
X133512870Y-62992000D01*
X133656033Y-62992000D02*
X133575215Y-62964290D01*
X133394849Y-63220357D02*
X133422815Y-63257559D01*
X133369449Y-63194957D02*
X133394849Y-63220357D01*
X133346615Y-63181359D02*
X133369449Y-63194957D01*
X133540579Y-63333759D02*
X133711452Y-63384546D01*
X133508252Y-63285268D02*
X133540579Y-63333759D01*
X133489779Y-63285268D02*
X133508252Y-63285268D01*
X133445906Y-63257559D02*
X133489779Y-63285268D01*
X133422815Y-63257559D02*
X133445906Y-63257559D01*
X133314288Y-63190596D02*
X133346615Y-63181359D01*
X133286835Y-63169044D02*
X133314288Y-63190596D01*
X133262974Y-63144413D02*
X133286835Y-63169044D01*
X133242706Y-63116705D02*
X133262974Y-63144413D01*
X133210379Y-63116705D02*
X133242706Y-63116705D01*
X133048743Y-62936596D02*
X133210379Y-63116705D01*
X133016415Y-62869632D02*
X133048743Y-62936596D01*
X132940215Y-62860395D02*
X133016415Y-62869632D01*
X132940215Y-62784195D02*
X132940215Y-62860395D01*
X132930979Y-62784195D02*
X132940215Y-62784195D01*
X132921742Y-62751868D02*
X132930979Y-62784195D01*
X132930979Y-62719541D02*
X132921742Y-62751868D01*
X132907889Y-62684904D02*
X132930979Y-62719541D01*
X132907889Y-62657195D02*
X132907889Y-62684904D01*
X132965616Y-62657195D02*
X132907889Y-62657195D01*
X132940216Y-62580995D02*
X132965616Y-62657195D01*
X132898652Y-62557905D02*
X132940216Y-62580995D01*
X132889416Y-62516342D02*
X132898652Y-62557905D01*
X132898652Y-62495561D02*
X132889416Y-62516342D01*
X132889416Y-62421670D02*
X132898652Y-62495561D01*
X132822452Y-62396270D02*
X132889416Y-62421670D01*
X132746252Y-62260034D02*
X132822452Y-62396270D01*
X132713925Y-62151507D02*
X132746252Y-62260034D01*
X132695452Y-62142270D02*
X132713925Y-62151507D01*
X132686215Y-62052215D02*
X132695452Y-62142270D01*
X132695452Y-61999106D02*
X132686215Y-62052215D01*
X132663124Y-61980632D02*
X132695452Y-61999106D01*
X132651578Y-61925215D02*
X132663124Y-61980632D01*
X132672361Y-61890578D02*
X132651578Y-61925215D01*
X132663124Y-61830542D02*
X132672361Y-61890578D01*
X132695452Y-61818996D02*
X132663124Y-61830542D01*
X132695452Y-61772814D02*
X132695452Y-61818996D01*
X132619252Y-61745105D02*
X132695452Y-61772814D01*
X132610015Y-61678141D02*
X132619252Y-61745105D01*
X132619252Y-61668904D02*
X132610015Y-61678141D01*
X132651579Y-61537286D02*
X132619252Y-61668904D01*
X132628489Y-61451850D02*
X132651579Y-61537286D01*
X132651579Y-61347941D02*
X132628489Y-61451850D01*
X132637725Y-61280977D02*
X132651579Y-61347941D01*
X132672362Y-61195541D02*
X132637725Y-61280977D01*
X132663125Y-61140123D02*
X132672362Y-61195541D01*
X132672362Y-61110104D02*
X132663125Y-61140123D01*
X132663125Y-61054686D02*
X132672362Y-61110104D01*
X132710332Y-61006961D02*
X132663125Y-61054686D01*
X132741120Y-60977713D02*
X132710332Y-61006961D01*
X132755489Y-60966941D02*
X132741120Y-60977713D01*
X132780889Y-60960014D02*
X132755489Y-60966941D01*
X132813216Y-61001578D02*
X132780889Y-60960014D01*
X132875561Y-60978487D02*
X132813216Y-61001578D01*
X132921743Y-61036215D02*
X132875561Y-60978487D01*
X132984089Y-61045451D02*
X132921743Y-61036215D01*
X133025652Y-61045451D02*
X132984089Y-61045451D01*
X133048743Y-61068542D02*
X133025652Y-61045451D01*
X133099029Y-61075212D02*
X133048743Y-61068542D01*
X133135975Y-61082909D02*
X133099029Y-61075212D01*
X133159579Y-61091632D02*
X133135975Y-61082909D01*
X133210379Y-61119341D02*
X133159579Y-61091632D01*
X133272724Y-61119341D02*
X133210379Y-61119341D01*
X133295815Y-61172450D02*
X133272724Y-61119341D01*
X133305051Y-61163213D02*
X133295815Y-61172450D01*
X133337379Y-61172450D02*
X133305051Y-61163213D01*
X133362779Y-61163213D02*
X133337379Y-61172450D01*
X133390488Y-61186303D02*
X133362779Y-61163213D01*
X133457451Y-61186303D02*
X133390488Y-61186303D01*
X133489779Y-61163213D02*
X133457451Y-61186303D01*
X133531085Y-61184251D02*
X133489779Y-61163213D01*
X133571879Y-61201184D02*
X133531085Y-61184251D01*
X133612160Y-61214013D02*
X133571879Y-61201184D01*
X133646797Y-61244032D02*
X133612160Y-61214013D01*
X133674506Y-61244032D02*
X133646797Y-61244032D01*
X133720688Y-61267122D02*
X133674506Y-61244032D01*
X133796888Y-61267122D02*
X133720688Y-61267122D01*
X133849997Y-61317922D02*
X133796888Y-61267122D01*
X133882324Y-61299449D02*
X133849997Y-61317922D01*
X133892330Y-61305349D02*
X133882324Y-61299449D01*
X133919269Y-61316895D02*
X133892330Y-61305349D01*
X133963142Y-61334085D02*
X133919269Y-61316895D01*
X133990851Y-61366412D02*
X133963142Y-61334085D01*
X134062433Y-61357176D02*
X133990851Y-61366412D01*
X134090142Y-61421830D02*
X134062433Y-61357176D01*
X134180197Y-61412594D02*
X134090142Y-61421830D01*
X134198670Y-61465703D02*
X134180197Y-61412594D01*
X134265633Y-61470320D02*
X134198670Y-61465703D01*
X134325670Y-61532665D02*
X134265633Y-61470320D01*
X134436505Y-61546519D02*
X134325670Y-61532665D01*
X134445743Y-61569609D02*
X134436505Y-61546519D01*
X134519634Y-61611172D02*
X134445743Y-61569609D01*
X134510397Y-61673518D02*
X134519634Y-61611172D01*
X134563506Y-61772809D02*
X134510397Y-61673518D01*
X134528869Y-61805136D02*
X134563506Y-61772809D01*
X134495003Y-61813089D02*
X134528869Y-61805136D01*
X134464216Y-61827713D02*
X134495003Y-61813089D01*
X134436505Y-61849009D02*
X134464216Y-61827713D01*
X134360306Y-61858245D02*
X134436505Y-61849009D01*
X134288724Y-61754336D02*
X134360306Y-61858245D01*
X134221761Y-61735863D02*
X134288724Y-61754336D01*
X134221761Y-61710463D02*
X134221761Y-61735863D01*
X134153258Y-61678132D02*
X134221761Y-61710463D01*
X134098609Y-61658120D02*
X134153258Y-61678132D01*
X134057815Y-61650427D02*
X134098609Y-61658120D01*
X134013943Y-61606554D02*
X134057815Y-61650427D01*
X133967761Y-61606554D02*
X134013943Y-61606554D01*
X133933124Y-61574227D02*
X133967761Y-61606554D01*
X133914651Y-61588080D02*
X133933124Y-61574227D01*
X133849997Y-61560371D02*
X133914651Y-61588080D01*
X133863850Y-61560371D02*
X133849997Y-61560371D01*
X133796887Y-61555754D02*
X133863850Y-61560371D01*
X133739159Y-61507263D02*
X133796887Y-61555754D01*
X133692978Y-61507263D02*
X133739159Y-61507263D01*
X133706831Y-61488790D02*
X133692978Y-61507263D01*
X133651413Y-61516499D02*
X133706831Y-61488790D01*
X133607540Y-61511880D02*
X133651413Y-61516499D01*
X133552122Y-61511880D02*
X133607540Y-61511880D01*
X133535959Y-61484171D02*
X133552122Y-61511880D01*
X133494651Y-61475447D02*
X133535959Y-61484171D01*
X133444621Y-61467751D02*
X133494651Y-61475447D01*
X133385868Y-61461079D02*
X133444621Y-61467751D01*
X133376631Y-61451844D02*
X133385868Y-61461079D01*
X133341995Y-61484171D02*
X133376631Y-61451844D01*
X133315055Y-61471342D02*
X133341995Y-61484171D01*
X133268104Y-61454409D02*
X133315055Y-61471342D01*
X133201140Y-61433371D02*
X133268104Y-61454409D01*
X133154958Y-61465698D02*
X133201140Y-61433371D01*
X133154958Y-61537280D02*
X133154958Y-61465698D01*
X133101849Y-61560370D02*
X133154958Y-61537280D01*
X133124940Y-61569607D02*
X133101849Y-61560370D01*
X133111086Y-61611171D02*
X133124940Y-61569607D01*
X133127762Y-61630156D02*
X133111086Y-61611171D01*
X133150083Y-61677877D02*
X133127762Y-61630156D01*
X133178050Y-61754334D02*
X133150083Y-61677877D01*
X133154959Y-61805134D02*
X133178050Y-61754334D01*
X133154959Y-61862862D02*
X133154959Y-61805134D01*
X133111087Y-61980624D02*
X133154959Y-61862862D01*
X133143414Y-62075298D02*
X133111087Y-61980624D01*
X133228850Y-62107625D02*
X133143414Y-62075298D01*
X133228850Y-62128406D02*
X133228850Y-62107625D01*
X133263487Y-62142259D02*
X133228850Y-62128406D01*
X133272723Y-62107623D02*
X133263487Y-62142259D01*
X133372014Y-62128403D02*
X133272723Y-62107623D01*
X133381251Y-62142257D02*
X133372014Y-62128403D01*
X133422815Y-62142257D02*
X133381251Y-62142257D01*
X133413578Y-62193057D02*
X133422815Y-62142257D01*
X133616778Y-62188437D02*
X133413578Y-62193057D01*
X133819978Y-62269255D02*
X133616778Y-62188437D01*
X133854614Y-62363928D02*
X133819978Y-62269255D01*
X133879244Y-62383683D02*
X133854614Y-62363928D01*
X133906953Y-62409084D02*
X133879244Y-62383683D01*
X133937742Y-62440128D02*
X133906953Y-62409084D01*
X134057814Y-62504783D02*
X133937742Y-62440128D01*
X134099378Y-62539419D02*
X134057814Y-62504783D01*
X134157105Y-62567128D02*
X134099378Y-62539419D01*
X134157105Y-62599455D02*
X134157105Y-62567128D01*
X134184814Y-62643328D02*
X134157105Y-62599455D01*
X134166341Y-62666418D02*
X134184814Y-62643328D01*
X134122468Y-62675655D02*
X134166341Y-62666418D01*
X134122468Y-62742619D02*
X134122468Y-62675655D01*
X134131705Y-62742619D02*
X134122468Y-62742619D01*
X134143251Y-62784182D02*
X134131705Y-62742619D01*
X134175579Y-62784182D02*
X134143251Y-62784182D01*
X134184815Y-62996619D02*
X134175579Y-62784182D01*
X134108615Y-63072819D02*
X134184815Y-62996619D01*
X134108615Y-63116691D02*
X134108615Y-63072819D01*
X134157106Y-63158255D02*
X134108615Y-63116691D01*
X134122470Y-63276019D02*
X134157106Y-63158255D01*
X134099379Y-63276019D02*
X134122470Y-63276019D01*
X134037034Y-63310655D02*
X134099379Y-63276019D01*
X133928507Y-63310655D02*
X134037034Y-63310655D01*
X133819979Y-63319892D02*
X133928507Y-63310655D01*
X133787652Y-63352219D02*
X133819979Y-63319892D01*
X133769179Y-63352219D02*
X133787652Y-63352219D01*
X133778415Y-63375309D02*
X133769179Y-63352219D01*
X133769179Y-63375309D02*
X133778415Y-63375309D01*
X133711452Y-63384546D02*
X133769179Y-63375309D01*
X132208319Y-65268369D02*
X132246794Y-65142993D01*
X132246794Y-65142993D02*
X132280839Y-65007901D01*
X132280839Y-65007901D02*
X132309196Y-64869602D01*
X132309196Y-64869602D02*
X132332300Y-64731659D01*
X132332300Y-64731659D02*
X132352140Y-64588559D01*
X132352140Y-64588559D02*
X132369054Y-64445418D01*
X132369054Y-64445418D02*
X132384465Y-64300263D01*
X132384465Y-64300263D02*
X132390833Y-64238140D01*
X131759963Y-66050113D02*
X131836403Y-65965865D01*
X131836403Y-65965865D02*
X131906194Y-65873602D01*
X131906194Y-65873602D02*
X131969766Y-65777041D01*
X131969766Y-65777041D02*
X132028979Y-65675567D01*
X132028979Y-65675567D02*
X132084301Y-65569060D01*
X132084301Y-65569060D02*
X132136375Y-65455814D01*
X132136375Y-65455814D02*
X132183168Y-65339270D01*
X132183168Y-65339270D02*
X132208319Y-65268369D01*
X129908259Y-67191730D02*
X130042288Y-67165150D01*
X130042288Y-67165150D02*
X130175979Y-67132209D01*
X130175979Y-67132209D02*
X130300194Y-67095679D01*
X130300194Y-67095679D02*
X130422705Y-67053850D01*
X130422705Y-67053850D02*
X130541372Y-67007591D01*
X130541372Y-67007591D02*
X130654196Y-66958087D01*
X130654196Y-66958087D02*
X130764823Y-66903994D01*
X130764823Y-66903994D02*
X130873154Y-66845324D01*
X130873154Y-66845324D02*
X130891721Y-66834676D01*
X128876960Y-67191730D02*
X129026081Y-67213899D01*
X129026081Y-67213899D02*
X129173107Y-67228299D01*
X129173107Y-67228299D02*
X129337872Y-67235811D01*
X129337872Y-67235811D02*
X129500792Y-67234360D01*
X129500792Y-67234360D02*
X129653335Y-67224989D01*
X129653335Y-67224989D02*
X129798201Y-67208825D01*
X129798201Y-67208825D02*
X129908259Y-67191730D01*
X127893498Y-66834676D02*
X128000561Y-66893586D01*
X128000561Y-66893586D02*
X128109025Y-66947632D01*
X128109025Y-66947632D02*
X128225258Y-66999660D01*
X128225258Y-66999660D02*
X128343592Y-67046727D01*
X128343592Y-67046727D02*
X128463804Y-67088756D01*
X128463804Y-67088756D02*
X128587655Y-67126217D01*
X128587655Y-67126217D02*
X128716990Y-67159239D01*
X128716990Y-67159239D02*
X128851692Y-67187202D01*
X128851692Y-67187202D02*
X128876960Y-67191730D01*
X127092549Y-66161500D02*
X127166980Y-66247124D01*
X127166980Y-66247124D02*
X127246144Y-66331428D01*
X127246144Y-66331428D02*
X127326828Y-66411031D01*
X127326828Y-66411031D02*
X127411327Y-66488308D01*
X127411327Y-66488308D02*
X127499100Y-66562643D01*
X127499100Y-66562643D02*
X127591290Y-66634812D01*
X127591290Y-66634812D02*
X127684526Y-66702169D01*
X127684526Y-66702169D02*
X127782006Y-66767007D01*
X127782006Y-66767007D02*
X127881947Y-66827972D01*
X127881947Y-66827972D02*
X127893498Y-66834676D01*
X126576900Y-65268370D02*
X126622873Y-65386221D01*
X126622873Y-65386221D02*
X126671672Y-65497433D01*
X126671672Y-65497433D02*
X126725858Y-65608381D01*
X126725858Y-65608381D02*
X126783555Y-65715254D01*
X126783555Y-65715254D02*
X126844045Y-65817346D01*
X126844045Y-65817346D02*
X126907100Y-65914879D01*
X126907100Y-65914879D02*
X126974769Y-66011123D01*
X126974769Y-66011123D02*
X127044595Y-66102651D01*
X127044595Y-66102651D02*
X127092549Y-66161500D01*
X126394387Y-64238139D02*
X126398584Y-64396214D01*
X126398584Y-64396214D02*
X126410384Y-64546707D01*
X126410384Y-64546707D02*
X126428636Y-64689318D01*
X126428636Y-64689318D02*
X126453062Y-64827875D01*
X126453062Y-64827875D02*
X126482592Y-64959776D01*
X126482592Y-64959776D02*
X126516786Y-65086028D01*
X126516786Y-65086028D02*
X126555999Y-65209319D01*
X126555999Y-65209319D02*
X126576900Y-65268370D01*
X126576900Y-63207909D02*
X126535842Y-63328017D01*
X126535842Y-63328017D02*
X126498384Y-63455475D01*
X126498384Y-63455475D02*
X126466458Y-63585098D01*
X126466458Y-63585098D02*
X126439596Y-63720062D01*
X126439596Y-63720062D02*
X126418399Y-63860188D01*
X126418399Y-63860188D02*
X126403338Y-64007297D01*
X126403338Y-64007297D02*
X126395089Y-64173444D01*
X126395089Y-64173444D02*
X126394387Y-64238139D01*
X127092549Y-62314779D02*
X127020878Y-62403896D01*
X127020878Y-62403896D02*
X126952088Y-62496520D01*
X126952088Y-62496520D02*
X126886913Y-62591726D01*
X126886913Y-62591726D02*
X126824392Y-62691099D01*
X126824392Y-62691099D02*
X126765793Y-62792833D01*
X126765793Y-62792833D02*
X126710524Y-62898130D01*
X126710524Y-62898130D02*
X126658217Y-63008300D01*
X126658217Y-63008300D02*
X126609872Y-63121913D01*
X126609872Y-63121913D02*
X126576900Y-63207909D01*
X127893497Y-61641602D02*
X127792411Y-61702663D01*
X127792411Y-61702663D02*
X127691284Y-61769429D01*
X127691284Y-61769429D02*
X127597863Y-61836529D01*
X127597863Y-61836529D02*
X127507473Y-61906830D01*
X127507473Y-61906830D02*
X127420400Y-61980007D01*
X127420400Y-61980007D02*
X127333913Y-62058529D01*
X127333913Y-62058529D02*
X127248926Y-62141996D01*
X127248926Y-62141996D02*
X127170425Y-62225339D01*
X127170425Y-62225339D02*
X127095844Y-62310842D01*
X127095844Y-62310842D02*
X127092549Y-62314779D01*
X129565000Y-61260000D02*
X129427858Y-61236538D01*
X129427858Y-61236538D02*
X129270675Y-61239976D01*
X129270675Y-61239976D02*
X129119878Y-61251563D01*
X129119878Y-61251563D02*
X128973624Y-61269233D01*
X128973624Y-61269233D02*
X128876961Y-61284548D01*
X131692670Y-62314778D02*
X131617025Y-62228576D01*
X131617025Y-62228576D02*
X131537867Y-62144750D01*
X131537867Y-62144750D02*
X131455968Y-62064177D01*
X131455968Y-62064177D02*
X131372200Y-61987625D01*
X131372200Y-61987625D02*
X131284951Y-61913627D01*
X131284951Y-61913627D02*
X131194646Y-61842694D01*
X131194646Y-61842694D02*
X131100070Y-61774103D01*
X131100070Y-61774103D02*
X131002904Y-61709267D01*
X131002904Y-61709267D02*
X130903239Y-61648300D01*
X130903239Y-61648300D02*
X130891721Y-61641602D01*
X132208319Y-63207909D02*
X132165092Y-63090052D01*
X132165092Y-63090052D02*
X132116107Y-62975167D01*
X132116107Y-62975167D02*
X132063220Y-62866090D01*
X132063220Y-62866090D02*
X132004236Y-62757495D01*
X132004236Y-62757495D02*
X131943562Y-62656558D01*
X131943562Y-62656558D02*
X131879548Y-62559294D01*
X131879548Y-62559294D02*
X131812613Y-62465759D01*
X131812613Y-62465759D02*
X131742511Y-62375204D01*
X131742511Y-62375204D02*
X131692670Y-62314778D01*
X132390833Y-64238140D02*
X132375726Y-64092365D01*
X132375726Y-64092365D02*
X132358198Y-63936715D01*
X132358198Y-63936715D02*
X132339639Y-63794570D01*
X132339639Y-63794570D02*
X132317891Y-63655447D01*
X132317891Y-63655447D02*
X132292141Y-63520109D01*
X132292141Y-63520109D02*
X132261499Y-63388273D01*
X132261499Y-63388273D02*
X132226146Y-63263067D01*
X132226146Y-63263067D02*
X132208319Y-63207909D01*
X132390833Y-64238140D02*
X132390833Y-64238140D01*
X127702740Y-63373507D02*
X127702740Y-63373507D01*
X127329594Y-63395009D02*
X127325371Y-63332038D01*
X127324602Y-63428031D02*
X127329594Y-63395009D01*
X127315003Y-63439857D02*
X127324602Y-63428031D01*
X127306863Y-63441316D02*
X127315003Y-63439857D01*
X127296879Y-63440472D02*
X127306863Y-63441316D01*
X127281828Y-63441931D02*
X127296879Y-63440472D01*
X127263781Y-63448074D02*
X127281828Y-63441931D01*
X127252185Y-63455140D02*
X127263781Y-63448074D01*
X127242432Y-63458519D02*
X127252185Y-63455140D01*
X127215170Y-63441700D02*
X127242432Y-63458519D01*
X127192976Y-63402765D02*
X127215170Y-63441700D01*
X127178154Y-63365212D02*
X127192976Y-63402765D01*
X127165868Y-63329887D02*
X127178154Y-63365212D01*
X127154502Y-63285807D02*
X127165868Y-63329887D01*
X127144980Y-63232512D02*
X127154502Y-63285807D01*
X126884337Y-63394318D02*
X126829814Y-63367287D01*
X126939784Y-63421810D02*
X126884337Y-63394318D01*
X126995690Y-63450224D02*
X126939784Y-63421810D01*
X127040692Y-63473032D02*
X126995690Y-63450224D01*
X127084772Y-63495840D02*
X127040692Y-63473032D01*
X127128392Y-63518649D02*
X127084772Y-63495840D01*
X126874815Y-63505670D02*
X126838108Y-63495841D01*
X126914748Y-63519186D02*
X126874815Y-63505670D01*
X126958368Y-63537310D02*
X126914748Y-63519186D01*
X126995690Y-63555971D02*
X126958368Y-63537310D01*
X127028866Y-63574632D02*
X126995690Y-63555971D01*
X127057894Y-63593294D02*
X127028866Y-63574632D01*
X127709190Y-63382415D02*
X127702740Y-63373507D01*
X127718406Y-63388098D02*
X127709190Y-63382415D01*
X127727621Y-63390094D02*
X127718406Y-63388098D01*
X127790823Y-63427800D02*
X127727621Y-63390094D01*
X127851722Y-63476104D02*
X127790823Y-63427800D01*
X127891425Y-63512428D02*
X127851722Y-63476104D01*
X127895495Y-63517573D02*
X127891425Y-63512428D01*
X127903251Y-63523180D02*
X127895495Y-63517573D01*
X127914233Y-63526943D02*
X127903251Y-63523180D01*
X127924983Y-63527019D02*
X127914233Y-63526943D01*
X127935275Y-63523410D02*
X127924983Y-63527019D01*
X127943261Y-63516575D02*
X127935275Y-63523410D01*
X127947331Y-63504979D02*
X127943261Y-63516575D01*
X127945411Y-63491539D02*
X127947331Y-63504979D01*
X127941188Y-63477180D02*
X127945411Y-63491539D01*
X127928593Y-63429950D02*
X127941188Y-63477180D01*
X127923371Y-63402074D02*
X127928593Y-63429950D01*
X127912159Y-63371433D02*
X127923371Y-63402074D01*
X127899719Y-63347396D02*
X127912159Y-63371433D01*
X127888660Y-63331193D02*
X127899719Y-63347396D01*
X127874837Y-63319597D02*
X127888660Y-63331193D01*
X127857174Y-63312915D02*
X127874837Y-63319597D01*
X127831678Y-63311763D02*
X127857174Y-63312915D01*
X127796046Y-63313376D02*
X127831678Y-63311763D01*
X127750813Y-63318675D02*
X127796046Y-63313376D01*
X127728620Y-63325356D02*
X127750813Y-63318675D01*
X127719327Y-63332037D02*
X127728620Y-63325356D01*
X127709498Y-63344171D02*
X127719327Y-63332037D01*
X127702894Y-63358608D02*
X127709498Y-63344171D01*
X127702740Y-63373507D02*
X127702894Y-63358608D01*
X127348179Y-63889798D02*
X127348179Y-63889798D01*
X127374903Y-63889644D02*
X127348179Y-63889798D01*
X127423744Y-63894098D02*
X127374903Y-63889644D01*
X127485027Y-63910532D02*
X127423744Y-63894098D01*
X127531948Y-63927273D02*
X127485027Y-63910532D01*
X127575644Y-63951848D02*
X127531948Y-63927273D01*
X127607361Y-63989324D02*
X127575644Y-63951848D01*
X127616192Y-64009521D02*
X127607361Y-63989324D01*
X127625484Y-64034786D02*
X127616192Y-64009521D01*
X127634316Y-64061895D02*
X127625484Y-64034786D01*
X127639461Y-64079174D02*
X127634316Y-64061895D01*
X127643684Y-64092306D02*
X127639461Y-64079174D01*
X127648830Y-64105438D02*
X127643684Y-64092306D01*
X127656509Y-64124099D02*
X127648830Y-64105438D01*
X127667414Y-64144143D02*
X127656509Y-64124099D01*
X127682005Y-64161421D02*
X127667414Y-64144143D01*
X127720633Y-64182924D02*
X127682005Y-64161421D01*
X127764329Y-64188300D02*
X127720633Y-64182924D01*
X127804339Y-64182156D02*
X127764329Y-64188300D01*
X127831525Y-64171942D02*
X127804339Y-64182156D01*
X127872533Y-64144680D02*
X127831525Y-64171942D01*
X127903865Y-64092997D02*
X127872533Y-64144680D01*
X127907244Y-64052603D02*
X127903865Y-64092997D01*
X127899104Y-64015895D02*
X127907244Y-64052603D01*
X127883131Y-63985177D02*
X127899104Y-64015895D01*
X127863779Y-63965748D02*
X127883131Y-63985177D01*
X127844426Y-63954152D02*
X127863779Y-63965748D01*
X127820927Y-63933341D02*
X127844426Y-63954152D01*
X127802650Y-63902931D02*
X127820927Y-63933341D01*
X127793588Y-63876666D02*
X127802650Y-63902931D01*
X127775311Y-63846256D02*
X127793588Y-63876666D01*
X127747280Y-63820452D02*
X127775311Y-63846256D01*
X127721094Y-63804326D02*
X127747280Y-63820452D01*
X127702740Y-63796492D02*
X127721094Y-63804326D01*
X127679548Y-63788352D02*
X127702740Y-63796492D01*
X127642994Y-63782515D02*
X127679548Y-63788352D01*
X127599066Y-63788198D02*
X127642994Y-63782515D01*
X127579791Y-63796492D02*
X127599066Y-63788198D01*
X127563741Y-63804786D02*
X127579791Y-63796492D01*
X127538937Y-63813080D02*
X127563741Y-63804786D01*
X127517357Y-63817150D02*
X127538937Y-63813080D01*
X127496239Y-63817995D02*
X127517357Y-63817150D01*
X127478806Y-63811006D02*
X127496239Y-63817995D01*
X127471280Y-63800025D02*
X127478806Y-63811006D01*
X127468362Y-63785357D02*
X127471280Y-63800025D01*
X127462218Y-63763317D02*
X127468362Y-63785357D01*
X127456382Y-63749647D02*
X127462218Y-63763317D01*
X127441791Y-63727224D02*
X127456382Y-63749647D01*
X127416602Y-63705260D02*
X127441791Y-63727224D01*
X127387958Y-63695277D02*
X127416602Y-63705260D01*
X127361617Y-63694509D02*
X127387958Y-63695277D01*
X127339885Y-63696966D02*
X127361617Y-63694509D01*
X127304789Y-63707410D02*
X127339885Y-63696966D01*
X127276145Y-63723844D02*
X127304789Y-63707410D01*
X127250725Y-63742582D02*
X127276145Y-63723844D01*
X127219393Y-63769000D02*
X127250725Y-63742582D01*
X127197737Y-63793574D02*
X127219393Y-63769000D01*
X127188522Y-63821374D02*
X127197737Y-63793574D01*
X127191747Y-63849481D02*
X127188522Y-63821374D01*
X127204649Y-63876206D02*
X127191747Y-63849481D01*
X127225844Y-63896019D02*
X127204649Y-63876206D01*
X127256639Y-63903621D02*
X127225844Y-63896019D01*
X127293884Y-63897400D02*
X127256639Y-63903621D01*
X127348179Y-63889798D02*
X127293884Y-63897400D01*
X127354399Y-64063969D02*
X127354399Y-64063969D01*
X127377898Y-64067194D02*
X127354399Y-64063969D01*
X127402779Y-64060743D02*
X127377898Y-64067194D01*
X127429043Y-64063969D02*
X127402779Y-64060743D01*
X127444402Y-64079712D02*
X127429043Y-64063969D01*
X127453771Y-64098680D02*
X127444402Y-64079712D01*
X127470513Y-64115805D02*
X127453771Y-64098680D01*
X127498158Y-64124637D02*
X127470513Y-64115805D01*
X127529952Y-64121488D02*
X127498158Y-64124637D01*
X127557597Y-64105438D02*
X127529952Y-64121488D01*
X127574493Y-64070726D02*
X127557597Y-64105438D01*
X127571114Y-64032329D02*
X127574493Y-64070726D01*
X127553451Y-64001765D02*
X127571114Y-64032329D01*
X127533561Y-63990860D02*
X127553451Y-64001765D01*
X127506298Y-63985024D02*
X127533561Y-63990860D01*
X127464292Y-63968589D02*
X127506298Y-63985024D01*
X127445630Y-63957147D02*
X127464292Y-63968589D01*
X127433881Y-63950313D02*
X127445630Y-63957147D01*
X127420749Y-63945782D02*
X127433881Y-63950313D01*
X127404929Y-63944937D02*
X127420749Y-63945782D01*
X127372983Y-63950082D02*
X127404929Y-63944937D01*
X127341958Y-63972736D02*
X127372983Y-63950082D01*
X127330900Y-64006987D02*
X127341958Y-63972736D01*
X127336429Y-64040777D02*
X127330900Y-64006987D01*
X127354399Y-64063969D02*
X127336429Y-64040777D01*
X127503688Y-64314858D02*
X127503688Y-64314858D01*
X127501153Y-64324073D02*
X127503688Y-64314858D01*
X127498619Y-64336053D02*
X127501153Y-64324073D01*
X127497467Y-64352180D02*
X127498619Y-64336053D01*
X127501922Y-64374834D02*
X127497467Y-64352180D01*
X127513748Y-64395185D02*
X127501922Y-64374834D01*
X127530643Y-64416457D02*
X127513748Y-64395185D01*
X127569884Y-64461151D02*
X127530643Y-64416457D01*
X127595765Y-64487876D02*
X127569884Y-64461151D01*
X127619801Y-64515983D02*
X127595765Y-64487876D01*
X127640306Y-64545472D02*
X127619801Y-64515983D01*
X127649751Y-64562520D02*
X127640306Y-64545472D01*
X127663344Y-64578187D02*
X127649751Y-64562520D01*
X127707348Y-64606524D02*
X127663344Y-64578187D01*
X127749969Y-64618273D02*
X127707348Y-64606524D01*
X127781531Y-64621729D02*
X127749969Y-64618273D01*
X127826840Y-64622497D02*
X127781531Y-64621729D01*
X127879982Y-64612667D02*
X127826840Y-64622497D01*
X127922526Y-64580260D02*
X127879982Y-64612667D01*
X127936273Y-64544857D02*
X127922526Y-64580260D01*
X127935735Y-64508533D02*
X127936273Y-64544857D01*
X127920453Y-64482807D02*
X127935735Y-64508533D01*
X127904634Y-64475896D02*
X127920453Y-64482807D01*
X127883745Y-64475896D02*
X127904634Y-64475896D01*
X127854102Y-64470367D02*
X127883745Y-64475896D01*
X127846039Y-64466681D02*
X127854102Y-64470367D01*
X127829682Y-64456083D02*
X127846039Y-64466681D01*
X127798118Y-64433044D02*
X127829682Y-64456083D01*
X127753885Y-64399331D02*
X127798118Y-64433044D01*
X127731768Y-64381746D02*
X127753885Y-64399331D01*
X127711033Y-64368767D02*
X127731768Y-64381746D01*
X127695982Y-64359936D02*
X127711033Y-64368767D01*
X127681851Y-64352026D02*
X127695982Y-64359936D01*
X127665418Y-64341812D02*
X127681851Y-64352026D01*
X127652055Y-64330907D02*
X127665418Y-64341812D01*
X127641457Y-64320923D02*
X127652055Y-64330907D01*
X127628095Y-64308637D02*
X127641457Y-64320923D01*
X127594767Y-64281144D02*
X127628095Y-64308637D01*
X127570192Y-64265632D02*
X127594767Y-64281144D01*
X127549304Y-64263020D02*
X127570192Y-64265632D01*
X127526419Y-64277381D02*
X127549304Y-64263020D01*
X127511367Y-64297732D02*
X127526419Y-64277381D01*
X127503688Y-64314858D02*
X127511367Y-64297732D01*
X127016425Y-64298270D02*
X127016425Y-64298270D01*
X127046221Y-64312016D02*
X127016425Y-64298270D01*
X127070949Y-64318390D02*
X127046221Y-64312016D01*
X127086921Y-64321077D02*
X127070949Y-64318390D01*
X127113800Y-64320463D02*
X127086921Y-64321077D01*
X127156805Y-64310633D02*
X127113800Y-64320463D01*
X127203036Y-64279608D02*
X127156805Y-64310633D01*
X127218318Y-64262483D02*
X127203036Y-64279608D01*
X127238208Y-64222780D02*
X127218318Y-64262483D01*
X127242432Y-64165568D02*
X127238208Y-64222780D01*
X127237671Y-64143067D02*
X127242432Y-64165568D01*
X127218165Y-64103058D02*
X127237671Y-64143067D01*
X127176081Y-64068115D02*
X127218165Y-64103058D01*
X127143827Y-64060436D02*
X127176081Y-64068115D01*
X127111574Y-64063354D02*
X127143827Y-64060436D01*
X127076555Y-64072262D02*
X127111574Y-64063354D01*
X127041690Y-64083475D02*
X127076555Y-64072262D01*
X127009130Y-64099755D02*
X127041690Y-64083475D01*
X126981176Y-64126173D02*
X127009130Y-64099755D01*
X126971193Y-64143221D02*
X126981176Y-64126173D01*
X126959366Y-64178239D02*
X126971193Y-64143221D01*
X126960441Y-64225698D02*
X126959366Y-64178239D01*
X126977260Y-64262483D02*
X126960441Y-64225698D01*
X126999607Y-64286366D02*
X126977260Y-64262483D01*
X127016425Y-64298270D02*
X126999607Y-64286366D01*
X128863878Y-63680379D02*
X128863878Y-63680379D01*
X128880542Y-63664021D02*
X128863878Y-63680379D01*
X128887991Y-63637988D02*
X128880542Y-63664021D01*
X128890832Y-63611955D02*
X128887991Y-63637988D01*
X128911106Y-63544682D02*
X128890832Y-63611955D01*
X128938291Y-63495379D02*
X128911106Y-63544682D01*
X128965476Y-63437784D02*
X128938291Y-63495379D01*
X128975460Y-63374965D02*
X128965476Y-63437784D01*
X128962405Y-63273904D02*
X128975460Y-63374965D01*
X128936448Y-63060414D02*
X128951847Y-63206535D01*
X128951847Y-63206535D02*
X128962405Y-63273904D01*
X128930228Y-62979549D02*
X128936448Y-63060414D01*
X128928154Y-62924948D02*
X128930228Y-62979549D01*
X128930228Y-62880023D02*
X128928154Y-62924948D01*
X128941901Y-62807682D02*
X128930228Y-62880023D01*
X128957260Y-62751929D02*
X128941901Y-62807682D01*
X128971697Y-62693412D02*
X128957260Y-62751929D01*
X128975998Y-62643879D02*
X128971697Y-62693412D01*
X128970161Y-62559789D02*
X128975998Y-62643879D01*
X128950962Y-62388613D02*
X128967462Y-62535677D01*
X128967462Y-62535677D02*
X128970161Y-62559789D01*
X128925851Y-62164525D02*
X128942400Y-62308219D01*
X128942400Y-62308219D02*
X128950962Y-62388613D01*
X128920091Y-62061160D02*
X128925851Y-62164525D01*
X128932301Y-62011244D02*
X128920091Y-62061160D01*
X128948659Y-61976148D02*
X128932301Y-62011244D01*
X128966398Y-61925386D02*
X128948659Y-61976148D01*
X128975844Y-61859881D02*
X128966398Y-61925386D01*
X128976612Y-61825707D02*
X128975844Y-61859881D01*
X128969547Y-61785543D02*
X128976612Y-61825707D01*
X128946816Y-61758281D02*
X128969547Y-61785543D01*
X128929230Y-61755363D02*
X128946816Y-61758281D01*
X128911183Y-61758435D02*
X128929230Y-61755363D01*
X128894979Y-61766575D02*
X128911183Y-61758435D01*
X128875090Y-61794836D02*
X128894979Y-61766575D01*
X128868562Y-61835076D02*
X128875090Y-61794836D01*
X128868024Y-61882689D02*
X128868562Y-61835076D01*
X128868024Y-61946352D02*
X128868024Y-61882689D01*
X128868024Y-62009093D02*
X128868024Y-61946352D01*
X128868024Y-62071374D02*
X128868024Y-62009093D01*
X128864414Y-62128509D02*
X128868024Y-62071374D01*
X128852972Y-62207762D02*
X128864414Y-62128509D01*
X128832775Y-62320189D02*
X128852972Y-62207762D01*
X128810198Y-62436303D02*
X128832775Y-62320189D01*
X128798678Y-62495742D02*
X128810198Y-62436303D01*
X128795453Y-62544123D02*
X128798678Y-62495742D01*
X128802595Y-62621685D02*
X128795453Y-62544123D01*
X128816648Y-62678053D02*
X128802595Y-62621685D01*
X128826555Y-62747321D02*
X128816648Y-62678053D01*
X128817647Y-62835636D02*
X128826555Y-62747321D01*
X128789847Y-62907823D02*
X128817647Y-62835636D01*
X128760204Y-63016871D02*
X128789847Y-62907823D01*
X128753753Y-63101806D02*
X128760204Y-63016871D01*
X128761126Y-63180752D02*
X128753753Y-63101806D01*
X128760204Y-63344478D02*
X128761427Y-63185531D01*
X128761427Y-63185531D02*
X128761126Y-63180752D01*
X128762354Y-63373429D02*
X128760204Y-63344478D01*
X128769112Y-63455831D02*
X128762354Y-63373429D01*
X128780939Y-63591219D02*
X128769112Y-63455831D01*
X128783012Y-63610495D02*
X128780939Y-63591219D01*
X128791997Y-63637604D02*
X128783012Y-63610495D01*
X128812041Y-63663791D02*
X128791997Y-63637604D01*
X128821333Y-63670856D02*
X128812041Y-63663791D01*
X128840762Y-63680225D02*
X128821333Y-63670856D01*
X128863878Y-63680379D02*
X128840762Y-63680225D01*
X127914233Y-65554787D02*
X127914233Y-65554787D01*
X127869845Y-65493043D02*
X127914233Y-65554787D01*
X127838359Y-65438212D02*
X127869845Y-65493043D01*
X127810559Y-65393056D02*
X127838359Y-65438212D01*
X127801805Y-65344138D02*
X127810559Y-65393056D01*
X127788904Y-65293377D02*
X127801805Y-65344138D01*
X127760796Y-65241693D02*
X127788904Y-65293377D01*
X127748894Y-65229176D02*
X127760796Y-65241693D01*
X127738833Y-65218962D02*
X127748894Y-65229176D01*
X127725547Y-65202297D02*
X127738833Y-65218962D01*
X127708346Y-65175112D02*
X127725547Y-65202297D01*
X127691604Y-65141016D02*
X127708346Y-65175112D01*
X127671637Y-65090331D02*
X127691604Y-65141016D01*
X127645988Y-65020294D02*
X127671637Y-65090331D01*
X127630936Y-64984815D02*
X127645988Y-65020294D01*
X127613581Y-64965924D02*
X127630936Y-64984815D01*
X127587547Y-64950181D02*
X127613581Y-64965924D01*
X127562896Y-64942271D02*
X127587547Y-64950181D01*
X127545157Y-64938968D02*
X127562896Y-64942271D01*
X127513748Y-64937816D02*
X127545157Y-64938968D01*
X127487407Y-64940812D02*
X127513748Y-64937816D01*
X127468439Y-64945189D02*
X127487407Y-64940812D01*
X127455692Y-64934361D02*
X127468439Y-64945189D01*
X127427277Y-64919386D02*
X127455692Y-64934361D01*
X127385500Y-64914087D02*
X127427277Y-64919386D01*
X127356549Y-64921152D02*
X127385500Y-64914087D01*
X127336351Y-64933286D02*
X127356549Y-64921152D01*
X127325370Y-64943116D02*
X127336351Y-64933286D01*
X127307246Y-64923917D02*
X127325370Y-64943116D01*
X127289584Y-64904257D02*
X127307246Y-64923917D01*
X127271460Y-64885058D02*
X127289584Y-64904257D01*
X127245581Y-64885443D02*
X127271460Y-64885058D01*
X127215093Y-64881219D02*
X127245581Y-64885443D01*
X127182302Y-64870545D02*
X127215093Y-64881219D01*
X127145440Y-64847890D02*
X127182302Y-64870545D01*
X127116872Y-64820628D02*
X127145440Y-64847890D01*
X127095216Y-64793826D02*
X127116872Y-64820628D01*
X127070027Y-64754507D02*
X127095216Y-64793826D01*
X127055436Y-64729473D02*
X127070027Y-64754507D01*
X127037159Y-64715035D02*
X127055436Y-64729473D01*
X127000297Y-64712885D02*
X127037159Y-64715035D01*
X126964818Y-64726862D02*
X127000297Y-64712885D01*
X126937633Y-64744064D02*
X126964818Y-64726862D01*
X126880805Y-64797666D02*
X126937633Y-64744064D01*
X126843789Y-64857720D02*
X126880805Y-64797666D01*
X126821519Y-64909940D02*
X126843789Y-64857720D01*
X126812228Y-64933976D02*
X126821519Y-64909940D01*
X126805239Y-64952945D02*
X126812228Y-64933976D01*
X126794564Y-64974217D02*
X126805239Y-64952945D01*
X126769606Y-65011616D02*
X126794564Y-64974217D01*
X126742805Y-65041182D02*
X126769606Y-65011616D01*
X126717847Y-65063377D02*
X126742805Y-65041182D01*
X126704484Y-64944498D02*
X126717847Y-65063377D01*
X126696651Y-64840825D02*
X126704484Y-64944498D01*
X126692965Y-64752357D02*
X126696651Y-64840825D01*
X126692888Y-64678481D02*
X126692965Y-64752357D01*
X126699262Y-64617506D02*
X126692888Y-64678481D01*
X126715773Y-64561599D02*
X126699262Y-64617506D01*
X126721609Y-64548467D02*
X126715773Y-64561599D01*
X126737583Y-64520130D02*
X126721609Y-64548467D01*
X126773830Y-64455853D02*
X126737583Y-64520130D01*
X126811920Y-64387813D02*
X126773830Y-64455853D01*
X126835266Y-64344193D02*
X126811920Y-64387813D01*
X126844328Y-64323151D02*
X126835266Y-64344193D01*
X126846401Y-64289361D02*
X126844328Y-64323151D01*
X126833269Y-64233916D02*
X126846401Y-64289361D01*
X126800785Y-64119952D02*
X126833269Y-64233916D01*
X126778131Y-64032790D02*
X126800785Y-64119952D01*
X126770221Y-63981107D02*
X126778131Y-64032790D01*
X126773830Y-63943708D02*
X126770221Y-63981107D01*
X126781049Y-63917291D02*
X126773830Y-63943708D01*
X126798404Y-63878894D02*
X126781049Y-63917291D01*
X126831887Y-63840035D02*
X126798404Y-63878894D01*
X126866598Y-63821911D02*
X126831887Y-63840035D01*
X126914671Y-63813924D02*
X126866598Y-63821911D01*
X126997764Y-63798565D02*
X126914671Y-63813924D01*
X127056128Y-63783974D02*
X126997764Y-63798565D01*
X127098365Y-63770305D02*
X127056128Y-63783974D01*
X127130465Y-63752949D02*
X127098365Y-63770305D01*
X127155577Y-63728299D02*
X127130465Y-63752949D01*
X127176542Y-63703647D02*
X127155577Y-63728299D01*
X127211330Y-63672085D02*
X127176542Y-63703647D01*
X127240666Y-63650044D02*
X127211330Y-63672085D01*
X127266315Y-63633995D02*
X127240666Y-63650044D01*
X127294268Y-63624395D02*
X127266315Y-63633995D01*
X127344261Y-63621630D02*
X127294268Y-63624395D01*
X127394255Y-63634071D02*
X127344261Y-63621630D01*
X127437337Y-63661717D02*
X127394255Y-63634071D01*
X127456843Y-63683220D02*
X127437337Y-63661717D01*
X127470359Y-63702419D02*
X127456843Y-63683220D01*
X127491247Y-63719774D02*
X127470359Y-63702419D01*
X127511981Y-63728529D02*
X127491247Y-63719774D01*
X127535481Y-63731754D02*
X127511981Y-63728529D01*
X127565891Y-63732215D02*
X127535481Y-63731754D01*
X127635775Y-63734058D02*
X127565891Y-63732215D01*
X127682619Y-63737283D02*
X127635775Y-63734058D01*
X127711034Y-63744656D02*
X127682619Y-63737283D01*
X127741060Y-63765775D02*
X127711034Y-63744656D01*
X127768783Y-63797491D02*
X127741060Y-63765775D01*
X127800192Y-63842108D02*
X127768783Y-63797491D01*
X127816550Y-63866299D02*
X127800192Y-63842108D01*
X127828760Y-63883577D02*
X127816550Y-63866299D01*
X127843735Y-63898092D02*
X127828760Y-63883577D01*
X127870306Y-63914526D02*
X127843735Y-63898092D01*
X127904249Y-63924509D02*
X127870306Y-63914526D01*
X127939114Y-63918826D02*
X127904249Y-63924509D01*
X127968987Y-63880813D02*
X127939114Y-63918826D01*
X127976283Y-63831741D02*
X127968987Y-63880813D01*
X127974363Y-63800639D02*
X127976283Y-63831741D01*
X127969294Y-63778215D02*
X127974363Y-63800639D01*
X127951785Y-63742889D02*
X127969294Y-63778215D01*
X127912159Y-63667938D02*
X127951785Y-63742889D01*
X127884360Y-63614719D02*
X127912159Y-63667938D01*
X127865314Y-63586382D02*
X127884360Y-63614719D01*
X127845809Y-63574632D02*
X127865314Y-63586382D01*
X127816243Y-63575170D02*
X127845809Y-63574632D01*
X127788980Y-63587227D02*
X127816243Y-63575170D01*
X127769091Y-63601587D02*
X127788980Y-63587227D01*
X127786984Y-63551363D02*
X127769091Y-63601587D01*
X127786446Y-63503904D02*
X127786984Y-63551363D01*
X127767017Y-63464739D02*
X127786446Y-63503904D01*
X127732613Y-63441393D02*
X127767017Y-63464739D01*
X127693601Y-63432792D02*
X127732613Y-63441393D01*
X127659197Y-63431563D02*
X127693601Y-63432792D01*
X127642226Y-63431871D02*
X127659197Y-63431563D01*
X127627097Y-63434021D02*
X127642226Y-63431871D01*
X127611508Y-63439858D02*
X127627097Y-63434021D01*
X127578639Y-63469269D02*
X127611508Y-63439858D01*
X127562820Y-63503750D02*
X127578639Y-63469269D01*
X127557598Y-63524869D02*
X127562820Y-63503750D01*
X127556906Y-63507360D02*
X127557598Y-63524869D01*
X127554833Y-63477410D02*
X127556906Y-63507360D01*
X127551377Y-63437784D02*
X127554833Y-63477410D01*
X127545617Y-63364521D02*
X127551377Y-63437784D01*
X127546769Y-63323053D02*
X127545617Y-63364521D01*
X127557598Y-63300935D02*
X127546769Y-63323053D01*
X127576566Y-63290798D02*
X127557598Y-63300935D01*
X127601524Y-63288955D02*
X127576566Y-63290798D01*
X127634316Y-63288494D02*
X127601524Y-63288955D01*
X127726239Y-63265226D02*
X127634316Y-63288494D01*
X127784987Y-63230899D02*
X127726239Y-63265226D01*
X127839588Y-63220071D02*
X127784987Y-63230899D01*
X127913311Y-63276361D02*
X127839588Y-63220071D01*
X127958005Y-63369052D02*
X127913311Y-63276361D01*
X127976437Y-63433637D02*
X127958005Y-63369052D01*
X127997555Y-63544529D02*
X127976437Y-63433637D01*
X128008537Y-63630999D02*
X127997555Y-63544529D01*
X128011685Y-63665864D02*
X128008537Y-63630999D01*
X128014219Y-63701190D02*
X128011685Y-63665864D01*
X128022283Y-63734212D02*
X128014219Y-63701190D01*
X128042788Y-63761244D02*
X128022283Y-63734212D01*
X128072123Y-63774836D02*
X128042788Y-63761244D01*
X128106066Y-63777370D02*
X128072123Y-63774836D01*
X128138167Y-63767464D02*
X128106066Y-63777370D01*
X128164200Y-63735594D02*
X128138167Y-63767464D01*
X128177793Y-63694969D02*
X128164200Y-63735594D01*
X128206590Y-63653424D02*
X128177793Y-63694969D01*
X128218033Y-63646128D02*
X128206590Y-63653424D01*
X128240073Y-63637911D02*
X128218033Y-63646128D01*
X128291602Y-63618175D02*
X128240073Y-63637911D01*
X128340520Y-63598899D02*
X128291602Y-63618175D01*
X128373312Y-63584231D02*
X128340520Y-63598899D01*
X128393202Y-63570485D02*
X128373312Y-63584231D01*
X128417162Y-63533316D02*
X128393202Y-63570485D01*
X128427299Y-63494305D02*
X128417162Y-63533316D01*
X128430524Y-63462666D02*
X128427299Y-63494305D01*
X128425071Y-63402458D02*
X128430524Y-63462666D01*
X128410404Y-63362525D02*
X128425071Y-63402458D01*
X128407716Y-63317523D02*
X128410404Y-63362525D01*
X128426300Y-63271139D02*
X128407716Y-63317523D01*
X128449953Y-63233970D02*
X128426300Y-63271139D01*
X128461626Y-63184821D02*
X128449953Y-63233970D01*
X128460935Y-63165854D02*
X128461626Y-63184821D01*
X128457479Y-63153336D02*
X128460935Y-63165854D01*
X128455406Y-63132985D02*
X128457479Y-63153336D01*
X128464851Y-63087676D02*
X128455406Y-63132985D01*
X128482591Y-63051121D02*
X128464851Y-63087676D01*
X128498948Y-63004431D02*
X128482591Y-63051121D01*
X128502711Y-62972023D02*
X128498948Y-63004431D01*
X128500023Y-62945605D02*
X128502711Y-62972023D01*
X128501021Y-62900757D02*
X128500023Y-62945605D01*
X128508087Y-62863819D02*
X128501021Y-62900757D01*
X128517456Y-62827802D02*
X128508087Y-62863819D01*
X128530050Y-62786717D02*
X128517456Y-62827802D01*
X128547099Y-62738030D02*
X128530050Y-62786717D01*
X128558618Y-62709615D02*
X128547099Y-62738030D01*
X128567372Y-62678897D02*
X128558618Y-62709615D01*
X128573132Y-62635431D02*
X128567372Y-62678897D01*
X128573362Y-62600720D02*
X128573132Y-62635431D01*
X128573593Y-62562784D02*
X128573362Y-62600720D01*
X128580735Y-62515939D02*
X128573593Y-62562784D01*
X128597553Y-62458957D02*
X128580735Y-62515939D01*
X128629577Y-62392761D02*
X128597553Y-62458957D01*
X128631112Y-62360506D02*
X128629577Y-62392761D01*
X128632187Y-62322724D02*
X128631112Y-62360506D01*
X128633723Y-62280793D02*
X128632187Y-62322724D01*
X128635182Y-62199545D02*
X128633723Y-62280793D01*
X128635720Y-62131197D02*
X128635182Y-62199545D01*
X128635797Y-62077594D02*
X128635720Y-62131197D01*
X128636641Y-62005254D02*
X128635797Y-62077594D01*
X128635643Y-61926001D02*
X128636641Y-62005254D01*
X128633724Y-61841220D02*
X128635643Y-61926001D01*
X128603466Y-61840145D02*
X128633724Y-61841220D01*
X128567219Y-61835383D02*
X128603466Y-61840145D01*
X128525904Y-61824632D02*
X128567219Y-61835383D01*
X128448878Y-61788154D02*
X128525904Y-61824632D01*
X128394891Y-61745688D02*
X128448878Y-61788154D01*
X128362100Y-61710592D02*
X128394891Y-61745688D01*
X128330460Y-61670351D02*
X128362100Y-61710592D01*
X128291449Y-61597397D02*
X128330460Y-61670351D01*
X128266721Y-61494952D02*
X128291449Y-61597397D01*
X128262881Y-61441657D02*
X128266721Y-61494952D01*
X128270560Y-61386518D02*
X128262881Y-61441657D01*
X128299896Y-61337369D02*
X128270560Y-61386518D01*
X128338370Y-61310568D02*
X128299896Y-61337369D01*
X128376845Y-61299893D02*
X128338370Y-61310568D01*
X128405642Y-61297973D02*
X128376845Y-61299893D01*
X128390053Y-61316788D02*
X128405642Y-61297973D01*
X128372160Y-61351729D02*
X128390053Y-61316788D01*
X128370394Y-61395426D02*
X128372160Y-61351729D01*
X128374003Y-61404872D02*
X128370394Y-61395426D01*
X128381298Y-61417082D02*
X128374003Y-61404872D01*
X128393202Y-61426528D02*
X128381298Y-61417082D01*
X128414013Y-61425837D02*
X128393202Y-61426528D01*
X128432521Y-61416851D02*
X128414013Y-61425837D01*
X128445038Y-61407867D02*
X128432521Y-61416851D01*
X128470611Y-61377994D02*
X128445038Y-61407867D01*
X128483743Y-61347198D02*
X128470611Y-61377994D01*
X128488581Y-61322855D02*
X128483743Y-61347198D01*
X128487660Y-61341208D02*
X128488581Y-61322855D01*
X128492267Y-61374308D02*
X128487660Y-61341208D01*
X128513462Y-61407866D02*
X128492267Y-61374308D01*
X128520220Y-61413549D02*
X128513462Y-61407866D01*
X128531586Y-61420154D02*
X128520220Y-61413549D01*
X128546638Y-61424455D02*
X128531586Y-61420154D01*
X128574360Y-61421382D02*
X128546638Y-61424455D01*
X128601162Y-61405409D02*
X128574360Y-61421382D01*
X128623356Y-61378838D02*
X128601162Y-61405409D01*
X128625813Y-61398114D02*
X128623356Y-61378838D01*
X128627810Y-61422458D02*
X128625813Y-61398114D01*
X128627503Y-61451410D02*
X128627810Y-61422458D01*
X128623126Y-61488962D02*
X128627503Y-61451410D01*
X128618748Y-61512692D02*
X128623126Y-61488962D01*
X128621282Y-61532274D02*
X128618748Y-61512692D01*
X128646317Y-61564681D02*
X128621282Y-61532274D01*
X128684715Y-61585570D02*
X128646317Y-61564681D01*
X128724955Y-61586184D02*
X128684715Y-61585570D01*
X128757747Y-61551703D02*
X128724955Y-61586184D01*
X128777176Y-61495566D02*
X128757747Y-61551703D01*
X128814114Y-61438969D02*
X128777176Y-61495566D01*
X128864031Y-61413472D02*
X128814114Y-61438969D01*
X128917633Y-61406407D02*
X128864031Y-61413472D01*
X128967550Y-61409940D02*
X128917633Y-61406407D01*
X128965016Y-61427066D02*
X128967550Y-61409940D01*
X128966629Y-61461238D02*
X128965016Y-61427066D01*
X128986212Y-61499099D02*
X128966629Y-61461238D01*
X129011323Y-61518604D02*
X128986212Y-61499099D01*
X129036435Y-61526592D02*
X129011323Y-61518604D01*
X129054635Y-61528127D02*
X129036435Y-61526592D01*
X129097103Y-61521830D02*
X129054635Y-61528127D01*
X129127590Y-61506779D02*
X129097103Y-61521830D01*
X129143794Y-61494952D02*
X129127590Y-61506779D01*
X129136038Y-61520832D02*
X129143794Y-61494952D01*
X129137036Y-61543025D02*
X129136038Y-61520832D01*
X129145867Y-61559229D02*
X129137036Y-61543025D01*
X129163454Y-61567062D02*
X129145867Y-61559229D01*
X129185647Y-61565219D02*
X129163454Y-61567062D01*
X129210145Y-61559230D02*
X129185647Y-61565219D01*
X129238482Y-61549093D02*
X129210145Y-61559230D01*
X129275113Y-61529279D02*
X129238482Y-61549093D01*
X129315892Y-61497026D02*
X129275113Y-61529279D01*
X129294466Y-61570211D02*
X129315892Y-61497026D01*
X129285480Y-61631877D02*
X129294466Y-61570211D01*
X129284789Y-61681563D02*
X129285480Y-61631877D01*
X129285634Y-61707443D02*
X129284789Y-61681563D01*
X129286018Y-61731019D02*
X129285634Y-61707443D01*
X129282716Y-61758281D02*
X129286018Y-61731019D01*
X129268279Y-61806048D02*
X129282716Y-61758281D01*
X129248773Y-61843217D02*
X129268279Y-61806048D01*
X129228806Y-61878542D02*
X129248773Y-61843217D01*
X129219975Y-61900429D02*
X129228806Y-61878542D01*
X129209300Y-61954109D02*
X129219975Y-61900429D01*
X129201851Y-62058933D02*
X129209300Y-61954109D01*
X129201620Y-62133962D02*
X129201851Y-62058933D01*
X129204155Y-62207147D02*
X129201620Y-62133962D01*
X129208071Y-62305675D02*
X129204155Y-62207147D01*
X129217364Y-62417641D02*
X129208071Y-62305675D01*
X129227117Y-62529608D02*
X129217364Y-62417641D01*
X129222586Y-62641576D02*
X129227117Y-62529608D01*
X129217133Y-62678590D02*
X129222586Y-62641576D01*
X129219053Y-62723438D02*
X129217133Y-62678590D01*
X129237100Y-62770130D02*
X129219053Y-62723438D01*
X129258525Y-62794550D02*
X129237100Y-62770130D01*
X129282716Y-62810677D02*
X129258525Y-62794550D01*
X129305524Y-62819892D02*
X129282716Y-62810677D01*
X129281411Y-62856447D02*
X129305524Y-62819892D01*
X129257758Y-62903599D02*
X129281411Y-62856447D01*
X129239174Y-62960888D02*
X129257758Y-62903599D01*
X129238482Y-63066097D02*
X129239174Y-62960888D01*
X129269584Y-63181904D02*
X129238482Y-63066097D01*
X129307598Y-63363139D02*
X129281765Y-63228818D01*
X129281765Y-63228818D02*
X129269584Y-63181904D01*
X129319808Y-63445002D02*
X129307598Y-63363139D01*
X129326489Y-63506592D02*
X129319808Y-63445002D01*
X129326259Y-63558044D02*
X129326489Y-63506592D01*
X129323417Y-63597824D02*
X129326259Y-63558044D01*
X129321497Y-63663407D02*
X129323417Y-63597824D01*
X129324185Y-63748803D02*
X129321497Y-63663407D01*
X129327564Y-63781210D02*
X129324185Y-63748803D01*
X129336012Y-63809010D02*
X129327564Y-63781210D01*
X129353214Y-63827594D02*
X129336012Y-63809010D01*
X129371337Y-63832509D02*
X129353214Y-63827594D01*
X129390382Y-63830973D02*
X129371337Y-63832509D01*
X129407123Y-63823448D02*
X129390382Y-63830973D01*
X129418105Y-63810239D02*
X129407123Y-63823448D01*
X129425862Y-63788275D02*
X129418105Y-63810239D01*
X129429931Y-63752950D02*
X129425862Y-63788275D01*
X129430853Y-63715090D02*
X129429931Y-63752950D01*
X129427628Y-63668475D02*
X129430853Y-63715090D01*
X129417491Y-63614028D02*
X129427628Y-63668475D01*
X129476393Y-63549367D02*
X129417491Y-63614028D01*
X129538981Y-63447844D02*
X129478095Y-63547226D01*
X129478095Y-63547226D02*
X129476393Y-63549367D01*
X129577147Y-63311302D02*
X129543339Y-63438171D01*
X129543339Y-63438171D02*
X129538981Y-63447844D01*
X129578529Y-63281429D02*
X129577147Y-63311302D01*
X129578530Y-63253400D02*
X129578529Y-63281429D01*
X129577148Y-63226291D02*
X129578530Y-63253400D01*
X129711231Y-63056267D02*
X129641927Y-63146996D01*
X129641927Y-63146996D02*
X129577148Y-63226291D01*
X129845315Y-62830951D02*
X129789257Y-62936546D01*
X129789257Y-62936546D02*
X129726306Y-63034925D01*
X129726306Y-63034925D02*
X129711231Y-63056267D01*
X129937929Y-62566931D02*
X129902013Y-62692064D01*
X129902013Y-62692064D02*
X129855928Y-62808099D01*
X129855928Y-62808099D02*
X129845315Y-62830951D01*
X129951369Y-62501425D02*
X129937929Y-62566931D01*
X129965268Y-62410577D02*
X129951369Y-62501425D01*
X129977325Y-62303601D02*
X129965268Y-62410577D01*
X129985158Y-62197701D02*
X129977325Y-62303601D01*
X129988844Y-62086732D02*
X129985158Y-62197701D01*
X129989766Y-61944892D02*
X129988844Y-62086732D01*
X129988153Y-61835614D02*
X129989766Y-61944892D01*
X129983776Y-61814342D02*
X129988153Y-61835614D01*
X129983545Y-61793530D02*
X129983776Y-61814342D01*
X129984698Y-61776098D02*
X129983545Y-61793530D01*
X129983084Y-61760508D02*
X129984698Y-61776098D01*
X129977325Y-61745841D02*
X129983084Y-61760508D01*
X129953058Y-61727257D02*
X129977325Y-61745841D01*
X129913125Y-61720191D02*
X129953058Y-61727257D01*
X129857065Y-61716812D02*
X129913125Y-61720191D01*
X129781728Y-61710975D02*
X129857065Y-61716812D01*
X129728510Y-61701914D02*
X129781728Y-61710975D01*
X129689114Y-61683637D02*
X129728510Y-61701914D01*
X129661084Y-61656374D02*
X129689114Y-61683637D01*
X129639044Y-61616211D02*
X129661084Y-61656374D01*
X129616543Y-61557156D02*
X129639044Y-61616211D01*
X129596576Y-61498254D02*
X129616543Y-61557156D01*
X129583982Y-61432901D02*
X129596576Y-61498254D01*
X129587515Y-61360177D02*
X129583982Y-61432901D01*
X129597575Y-61322164D02*
X129587515Y-61360177D01*
X129609939Y-61291061D02*
X129597575Y-61322164D01*
X129622763Y-61266871D02*
X129609939Y-61291061D01*
X129628753Y-61293981D02*
X129622763Y-61266871D01*
X129641655Y-61315099D02*
X129628753Y-61293981D01*
X129660086Y-61327002D02*
X129641655Y-61315099D01*
X129674293Y-61329690D02*
X129660086Y-61327002D01*
X129686656Y-61327770D02*
X129674293Y-61329690D01*
X129695334Y-61324928D02*
X129686656Y-61327770D01*
X129723519Y-61306728D02*
X129695334Y-61324928D01*
X129739722Y-61284381D02*
X129723519Y-61306728D01*
X129747171Y-61268945D02*
X129739722Y-61284381D01*
X129751164Y-61280925D02*
X129747171Y-61268945D01*
X129761148Y-61299817D02*
X129751164Y-61280925D01*
X129780346Y-61318708D02*
X129761148Y-61299817D01*
X129802617Y-61328384D02*
X129780346Y-61318708D01*
X129821662Y-61331148D02*
X129802617Y-61328384D01*
X129834256Y-61331148D02*
X129821662Y-61331148D01*
X129883866Y-61313486D02*
X129834256Y-61331148D01*
X129915966Y-61283842D02*
X129883866Y-61313486D01*
X129929635Y-61264798D02*
X129915966Y-61283842D01*
X129932707Y-61283536D02*
X129929635Y-61264798D01*
X129939005Y-61299970D02*
X129932707Y-61283536D01*
X129950370Y-61310414D02*
X129939005Y-61299970D01*
X129964347Y-61309646D02*
X129950370Y-61310414D01*
X129977862Y-61302889D02*
X129964347Y-61309646D01*
X129991839Y-61302121D02*
X129977862Y-61302889D01*
X130006814Y-61325389D02*
X129991839Y-61302121D01*
X130010731Y-61363863D02*
X130006814Y-61325389D01*
X130010501Y-61395426D02*
X130010731Y-61363863D01*
X130006738Y-61435974D02*
X130010501Y-61395426D01*
X130003896Y-61461316D02*
X130006738Y-61435974D01*
X130008427Y-61482511D02*
X130003896Y-61461316D01*
X130018333Y-61495028D02*
X130008427Y-61482511D01*
X130035152Y-61505243D02*
X130018333Y-61495028D01*
X130064410Y-61521907D02*
X130035152Y-61505243D01*
X130104575Y-61547557D02*
X130064410Y-61521907D01*
X130138287Y-61573667D02*
X130104575Y-61547557D01*
X130166010Y-61604846D02*
X130138287Y-61573667D01*
X130177836Y-61623583D02*
X130166010Y-61604846D01*
X130187359Y-61648312D02*
X130177836Y-61623583D01*
X130186744Y-61675343D02*
X130187359Y-61648312D01*
X130180985Y-61687860D02*
X130186744Y-61675343D01*
X130173843Y-61696692D02*
X130180985Y-61687860D01*
X130168083Y-61702298D02*
X130173843Y-61696692D01*
X130156871Y-61771798D02*
X130168083Y-61702298D01*
X130183442Y-61886452D02*
X130156871Y-61771798D01*
X130213699Y-62023684D02*
X130184776Y-61891316D01*
X130184776Y-61891316D02*
X130183442Y-61886452D01*
X130220380Y-62135728D02*
X130213699Y-62023684D01*
X130220150Y-62216439D02*
X130220380Y-62135728D01*
X130244801Y-62299454D02*
X130220150Y-62216439D01*
X130258701Y-62326486D02*
X130244801Y-62299454D01*
X130271679Y-62351214D02*
X130258701Y-62326486D01*
X130284197Y-62382393D02*
X130271679Y-62351214D01*
X130296100Y-62449204D02*
X130284197Y-62382393D01*
X130288190Y-62518781D02*
X130296100Y-62449204D01*
X130257242Y-62581445D02*
X130288190Y-62518781D01*
X130244033Y-62595882D02*
X130257242Y-62581445D01*
X130231746Y-62604330D02*
X130244033Y-62595882D01*
X130211626Y-62622914D02*
X130231746Y-62604330D01*
X130167700Y-62687806D02*
X130211626Y-62622914D01*
X130144969Y-62757766D02*
X130167700Y-62687806D01*
X130132834Y-62832334D02*
X130144969Y-62757766D01*
X130130454Y-62862590D02*
X130132834Y-62832334D01*
X130133142Y-62886397D02*
X130130454Y-62862590D01*
X130143202Y-62902831D02*
X130133142Y-62886397D01*
X130156334Y-62907592D02*
X130143202Y-62902831D01*
X130168084Y-62907746D02*
X130156334Y-62907592D01*
X130174304Y-62906978D02*
X130168084Y-62907746D01*
X130195038Y-62891082D02*
X130174304Y-62906978D01*
X130210244Y-62862744D02*
X130195038Y-62891082D01*
X130224067Y-62826113D02*
X130210244Y-62862744D01*
X130238888Y-62790480D02*
X130224067Y-62826113D01*
X130265229Y-62734574D02*
X130238888Y-62790480D01*
X130300785Y-62672677D02*
X130265229Y-62734574D01*
X130330504Y-62634434D02*
X130300785Y-62672677D01*
X130350548Y-62614159D02*
X130330504Y-62634434D01*
X130369209Y-62585592D02*
X130350548Y-62614159D01*
X130384184Y-62538287D02*
X130369209Y-62585592D01*
X130388101Y-62496049D02*
X130384184Y-62538287D01*
X130400311Y-62440450D02*
X130388101Y-62496049D01*
X130423350Y-62393374D02*
X130400311Y-62440450D01*
X130445006Y-62366573D02*
X130423350Y-62393374D01*
X130462515Y-62326410D02*
X130445006Y-62366573D01*
X130467814Y-62271732D02*
X130462515Y-62326410D01*
X130463436Y-62223504D02*
X130467814Y-62271732D01*
X130468735Y-62156386D02*
X130463436Y-62223504D01*
X130476184Y-62129738D02*
X130468735Y-62156386D01*
X130484094Y-62109080D02*
X130476184Y-62129738D01*
X130495690Y-62071374D02*
X130484094Y-62109080D01*
X130501603Y-62049564D02*
X130495690Y-62071374D01*
X130509821Y-62003334D02*
X130501603Y-62049564D01*
X130518498Y-61930379D02*
X130509821Y-62003334D01*
X130524488Y-61844521D02*
X130518498Y-61930379D01*
X130524949Y-61803360D02*
X130524488Y-61844521D01*
X130530939Y-61764502D02*
X130524949Y-61803360D01*
X130543456Y-61722265D02*
X130530939Y-61764502D01*
X130553670Y-61686478D02*
X130543456Y-61722265D01*
X130557894Y-61644241D02*
X130553670Y-61686478D01*
X130557433Y-61626195D02*
X130557894Y-61644241D01*
X130554207Y-61598011D02*
X130557433Y-61626195D01*
X130545453Y-61567523D02*
X130554207Y-61598011D01*
X130461516Y-61505703D02*
X130545453Y-61567523D01*
X130338415Y-61479363D02*
X130461516Y-61505703D01*
X130232361Y-61416161D02*
X130331316Y-61477360D01*
X130331316Y-61477360D02*
X130338415Y-61479363D01*
X130200261Y-61326310D02*
X130232361Y-61416161D01*
X130202257Y-61239225D02*
X130200261Y-61326310D01*
X130211626Y-61192226D02*
X130202257Y-61239225D01*
X130214391Y-61182935D02*
X130211626Y-61192226D01*
X130222684Y-61159359D02*
X130214391Y-61182935D01*
X130236507Y-61127949D02*
X130222684Y-61159359D01*
X130257703Y-61092240D02*
X130236507Y-61127949D01*
X130295486Y-61034413D02*
X130257703Y-61092240D01*
X130348475Y-60960000D02*
X130295486Y-61034413D01*
X130340872Y-61015138D02*
X130348475Y-60960000D01*
X130334651Y-61059679D02*
X130340872Y-61015138D01*
X130329813Y-61092701D02*
X130334651Y-61059679D01*
X130326357Y-61123495D02*
X130329813Y-61092701D01*
X130327049Y-61146918D02*
X130326357Y-61123495D01*
X130336034Y-61165272D02*
X130327049Y-61146918D01*
X130354387Y-61178711D02*
X130336034Y-61165272D01*
X130376428Y-61184317D02*
X130354387Y-61178711D01*
X130396164Y-61179786D02*
X130376428Y-61184317D01*
X130405533Y-61165963D02*
X130396164Y-61179786D01*
X130408912Y-61145228D02*
X130405533Y-61165963D01*
X130412752Y-61117582D02*
X130408912Y-61145228D01*
X130419433Y-61089398D02*
X130412752Y-61117582D01*
X130433026Y-61055225D02*
X130419433Y-61089398D01*
X130456294Y-61015983D02*
X130433026Y-61055225D01*
X130459980Y-61052076D02*
X130456294Y-61015983D01*
X130473343Y-61079416D02*
X130459980Y-61052076D01*
X130493617Y-61094775D02*
X130473343Y-61079416D01*
X130510358Y-61096847D02*
X130493617Y-61094775D01*
X130525256Y-61093392D02*
X130510358Y-61096847D01*
X130535085Y-61088554D02*
X130525256Y-61093392D01*
X130564959Y-61060754D02*
X130535085Y-61088554D01*
X130579166Y-61029268D02*
X130564959Y-61060754D01*
X130582775Y-61009762D02*
X130579166Y-61029268D01*
X130574097Y-61045318D02*
X130582775Y-61009762D01*
X130579703Y-61077188D02*
X130574097Y-61045318D01*
X130597290Y-61098921D02*
X130579703Y-61077188D01*
X130618485Y-61106908D02*
X130597290Y-61098921D01*
X130636915Y-61106140D02*
X130618485Y-61106908D01*
X130647052Y-61103068D02*
X130636915Y-61106140D01*
X130669707Y-61089168D02*
X130647052Y-61103068D01*
X130681764Y-61073425D02*
X130669707Y-61089168D01*
X130686448Y-61063672D02*
X130681764Y-61073425D01*
X130689443Y-61091165D02*
X130686448Y-61063672D01*
X130688291Y-61123265D02*
X130689443Y-61091165D01*
X130680228Y-61159052D02*
X130688291Y-61123265D01*
X130663410Y-61196297D02*
X130680228Y-61159052D01*
X130649356Y-61223406D02*
X130663410Y-61196297D01*
X130649126Y-61244063D02*
X130649356Y-61223406D01*
X130663257Y-61254124D02*
X130649126Y-61244063D01*
X130684758Y-61256811D02*
X130663257Y-61254124D01*
X130707183Y-61266872D02*
X130684758Y-61256811D01*
X130720929Y-61289987D02*
X130707183Y-61266872D01*
X130723156Y-61335680D02*
X130720929Y-61289987D01*
X130717550Y-61418234D02*
X130723156Y-61335680D01*
X130711560Y-61499713D02*
X130717550Y-61418234D01*
X130711100Y-61540645D02*
X130711560Y-61499713D01*
X130717550Y-61565449D02*
X130711100Y-61540645D01*
X130733063Y-61594478D02*
X130717550Y-61565449D01*
X130746271Y-61615212D02*
X130733063Y-61594478D01*
X130750725Y-61640094D02*
X130746271Y-61615212D01*
X130746348Y-61658985D02*
X130750725Y-61640094D01*
X130736442Y-61683406D02*
X130746348Y-61658985D01*
X130719624Y-61727180D02*
X130736442Y-61683406D01*
X130718242Y-61731403D02*
X130719624Y-61727180D01*
X130714095Y-61744381D02*
X130718242Y-61731403D01*
X130707183Y-61766575D02*
X130714095Y-61744381D01*
X130707643Y-61913176D02*
X130707183Y-61766575D01*
X130742662Y-62119678D02*
X130718530Y-61983243D01*
X130718530Y-61983243D02*
X130707643Y-61913176D01*
X130769387Y-62328483D02*
X130753585Y-62180440D01*
X130753585Y-62180440D02*
X130742662Y-62119678D01*
X130769771Y-62360352D02*
X130769387Y-62328483D01*
X130772458Y-62392683D02*
X130769771Y-62360352D01*
X130779754Y-62430082D02*
X130772458Y-62392683D01*
X130803023Y-62494360D02*
X130779754Y-62430082D01*
X130822145Y-62536520D02*
X130803023Y-62494360D01*
X130823297Y-62573151D02*
X130822145Y-62536520D01*
X130810932Y-62591351D02*
X130823297Y-62573151D01*
X130785206Y-62608170D02*
X130810932Y-62591351D01*
X130738285Y-62641575D02*
X130785206Y-62608170D01*
X130699503Y-62673598D02*
X130738285Y-62641575D01*
X130665790Y-62707004D02*
X130699503Y-62673598D01*
X130636685Y-62747322D02*
X130665790Y-62707004D01*
X130620789Y-62777656D02*
X130636685Y-62747322D01*
X130607657Y-62818587D02*
X130620789Y-62777656D01*
X130605583Y-62869656D02*
X130607657Y-62818587D01*
X130612034Y-62898531D02*
X130605583Y-62869656D01*
X130621249Y-62922336D02*
X130612034Y-62898531D01*
X130630465Y-62940153D02*
X130621249Y-62922336D01*
X130600515Y-62931706D02*
X130630465Y-62940153D01*
X130580241Y-62932013D02*
X130600515Y-62931706D01*
X130568261Y-62936007D02*
X130580241Y-62932013D01*
X130534625Y-62985385D02*
X130568261Y-62936007D01*
X130532782Y-63062871D02*
X130534625Y-62985385D01*
X130568261Y-63137132D02*
X130532782Y-63062871D01*
X130597059Y-63160401D02*
X130568261Y-63137132D01*
X130625857Y-63173994D02*
X130597059Y-63160401D01*
X130649126Y-63180674D02*
X130625857Y-63173994D01*
X130640986Y-63192425D02*
X130649126Y-63180674D01*
X130629621Y-63206938D02*
X130640986Y-63192425D01*
X130615951Y-63224217D02*
X130629621Y-63206938D01*
X130586308Y-63260081D02*
X130615951Y-63224217D01*
X130570949Y-63280278D02*
X130586308Y-63260081D01*
X130562040Y-63296788D02*
X130570949Y-63280278D01*
X130555053Y-63317292D02*
X130562040Y-63296788D01*
X130550368Y-63348856D02*
X130555053Y-63317292D01*
X130559967Y-63377653D02*
X130550368Y-63348856D01*
X130584772Y-63389941D02*
X130559967Y-63377653D01*
X130618792Y-63388866D02*
X130584772Y-63389941D01*
X130657420Y-63373507D02*
X130618792Y-63388866D01*
X130648588Y-63426802D02*
X130657420Y-63373507D01*
X130648972Y-63470883D02*
X130648588Y-63426802D01*
X130655346Y-63506208D02*
X130648972Y-63470883D01*
X130669707Y-63547446D02*
X130655346Y-63506208D01*
X130688676Y-63583156D02*
X130669707Y-63547446D01*
X130707183Y-63611954D02*
X130688676Y-63583156D01*
X130741280Y-63661487D02*
X130707183Y-63611954D01*
X130764318Y-63697197D02*
X130741280Y-63661487D01*
X130769387Y-63730142D02*
X130764318Y-63697197D01*
X130765931Y-63740662D02*
X130769387Y-63730142D01*
X130759711Y-63749340D02*
X130765931Y-63740662D01*
X130750725Y-63765390D02*
X130759711Y-63749340D01*
X130742048Y-63787584D02*
X130750725Y-63765390D01*
X130733831Y-63829591D02*
X130742048Y-63787584D01*
X130740358Y-63879430D02*
X130733831Y-63829591D01*
X130761708Y-63911147D02*
X130740358Y-63879430D01*
X130786742Y-63931344D02*
X130761708Y-63911147D01*
X130806709Y-63964443D02*
X130786742Y-63931344D01*
X130810242Y-63991244D02*
X130806709Y-63964443D01*
X130808706Y-64012977D02*
X130810242Y-63991244D01*
X130815003Y-64041161D02*
X130808706Y-64012977D01*
X130826829Y-64062432D02*
X130815003Y-64041161D01*
X130841881Y-64080018D02*
X130826829Y-64062432D01*
X130860619Y-64105438D02*
X130841881Y-64080018D01*
X130874058Y-64130012D02*
X130860619Y-64105438D01*
X130882428Y-64152744D02*
X130874058Y-64130012D01*
X130887574Y-64171789D02*
X130882428Y-64152744D01*
X130881968Y-64185611D02*
X130887574Y-64171789D01*
X130873137Y-64202199D02*
X130881968Y-64185611D01*
X130860619Y-64221551D02*
X130873137Y-64202199D01*
X130823988Y-64261792D02*
X130860619Y-64221551D01*
X130792886Y-64284984D02*
X130823988Y-64261792D01*
X130767313Y-64312784D02*
X130792886Y-64284984D01*
X130750265Y-64362240D02*
X130767313Y-64312784D01*
X130749804Y-64416764D02*
X130750265Y-64362240D01*
X130767313Y-64466220D02*
X130749804Y-64416764D01*
X130788739Y-64490487D02*
X130767313Y-64466220D01*
X130808782Y-64509685D02*
X130788739Y-64490487D01*
X130823297Y-64536718D02*
X130808782Y-64509685D01*
X130826368Y-64558527D02*
X130823297Y-64536718D01*
X130824372Y-64579876D02*
X130826368Y-64558527D01*
X130819150Y-64603068D02*
X130824372Y-64579876D01*
X130798646Y-64658513D02*
X130819150Y-64603068D01*
X130779523Y-64692764D02*
X130798646Y-64658513D01*
X130775607Y-64719182D02*
X130779523Y-64692764D01*
X130794882Y-64736691D02*
X130775607Y-64719182D01*
X130826138Y-64745906D02*
X130794882Y-64736691D01*
X130860619Y-64768945D02*
X130826138Y-64745906D01*
X130877821Y-64808724D02*
X130860619Y-64768945D01*
X130882122Y-64853573D02*
X130877821Y-64808724D01*
X130902088Y-64909940D02*
X130882122Y-64853573D01*
X130916064Y-64929062D02*
X130902088Y-64909940D01*
X130928198Y-64942655D02*
X130916064Y-64929062D01*
X130943557Y-64965923D02*
X130928198Y-64942655D01*
X130960068Y-65004859D02*
X130943557Y-64965923D01*
X130966442Y-65032735D02*
X130960068Y-65004859D01*
X130978806Y-65059229D02*
X130966442Y-65032735D01*
X131003688Y-65080425D02*
X130978806Y-65059229D01*
X131041010Y-65093326D02*
X131003688Y-65080425D01*
X131103213Y-65121433D02*
X131041010Y-65093326D01*
X131148676Y-65147697D02*
X131103213Y-65121433D01*
X131182158Y-65175343D02*
X131148676Y-65147697D01*
X131198593Y-65208518D02*
X131182158Y-65175343D01*
X131199130Y-65232862D02*
X131198593Y-65208518D01*
X131195981Y-65252599D02*
X131199130Y-65232862D01*
X131200666Y-65268648D02*
X131195981Y-65252599D01*
X131219020Y-65278402D02*
X131200666Y-65268648D01*
X131243825Y-65278939D02*
X131219020Y-65278402D01*
X131273237Y-65283163D02*
X131243825Y-65278939D01*
X131297121Y-65297140D02*
X131273237Y-65283163D01*
X131319161Y-65325861D02*
X131297121Y-65297140D01*
X131345808Y-65374395D02*
X131319161Y-65325861D01*
X131367772Y-65417938D02*
X131345808Y-65374395D01*
X131391578Y-65469774D02*
X131367772Y-65417938D01*
X131416306Y-65529904D02*
X131391578Y-65469774D01*
X131400025Y-65537968D02*
X131416306Y-65529904D01*
X131371765Y-65559854D02*
X131400025Y-65537968D01*
X131349955Y-65598328D02*
X131371765Y-65559854D01*
X131347267Y-65635804D02*
X131349955Y-65598328D01*
X131358864Y-65674202D02*
X131347267Y-65635804D01*
X131389351Y-65702002D02*
X131358864Y-65674202D01*
X131426366Y-65709221D02*
X131389351Y-65702002D01*
X131462920Y-65698930D02*
X131426366Y-65709221D01*
X131493024Y-65672973D02*
X131462920Y-65698930D01*
X131505311Y-65696473D02*
X131493024Y-65672973D01*
X131520823Y-65725501D02*
X131505311Y-65696473D01*
X131538640Y-65760059D02*
X131520823Y-65725501D01*
X131577652Y-65840463D02*
X131538640Y-65760059D01*
X131600537Y-65886310D02*
X131577652Y-65840463D01*
X131621578Y-65915568D02*
X131600537Y-65886310D01*
X131654754Y-65943521D02*
X131621578Y-65915568D01*
X131707281Y-65969171D02*
X131654754Y-65943521D01*
X131783308Y-65986066D02*
X131707281Y-65969171D01*
X131772097Y-66007031D02*
X131783308Y-65986066D01*
X131759963Y-66050113D02*
X131772097Y-66007031D01*
X131766721Y-66104253D02*
X131759963Y-66050113D01*
X131803813Y-66151559D02*
X131766721Y-66104253D01*
X131863021Y-66177208D02*
X131803813Y-66151559D01*
X131934671Y-66174751D02*
X131863021Y-66177208D01*
X131931292Y-66211535D02*
X131934671Y-66174751D01*
X131938050Y-66272741D02*
X131931292Y-66211535D01*
X131967846Y-66346847D02*
X131938050Y-66272741D01*
X132008855Y-66398530D02*
X131967846Y-66346847D01*
X132049863Y-66431322D02*
X132008855Y-66398530D01*
X132079813Y-66448447D02*
X132049863Y-66431322D01*
X132068294Y-66489917D02*
X132079813Y-66448447D01*
X132055392Y-66539679D02*
X132068294Y-66489917D01*
X132042491Y-66597736D02*
X132055392Y-66539679D01*
X132032123Y-66663472D02*
X132042491Y-66597736D01*
X132031432Y-66699259D02*
X132032123Y-66663472D01*
X132036270Y-66717997D02*
X132031432Y-66699259D01*
X132075206Y-66765917D02*
X132036270Y-66717997D01*
X132126581Y-66793102D02*
X132075206Y-66765917D01*
X132166898Y-66805082D02*
X132126581Y-66793102D01*
X132148468Y-66825663D02*
X132166898Y-66805082D01*
X132123125Y-66868822D02*
X132148468Y-66825663D01*
X132117135Y-66925342D02*
X132123125Y-66868822D01*
X132154074Y-66985012D02*
X132117135Y-66925342D01*
X132230178Y-67021183D02*
X132154074Y-66985012D01*
X132330702Y-67018649D02*
X132230178Y-67021183D01*
X132318492Y-67041917D02*
X132330702Y-67018649D01*
X132306281Y-67073480D02*
X132318492Y-67041917D01*
X132299600Y-67111954D02*
X132306281Y-67073480D01*
X132307970Y-67178382D02*
X132299600Y-67111954D01*
X132333389Y-67232830D02*
X132307970Y-67178382D01*
X132363877Y-67275758D02*
X132333389Y-67232830D01*
X132411413Y-67327364D02*
X132363877Y-67275758D01*
X132459410Y-67363765D02*
X132411413Y-67327364D01*
X132502799Y-67387725D02*
X132459410Y-67363765D01*
X132454495Y-67399474D02*
X132502799Y-67387725D01*
X132416328Y-67427811D02*
X132454495Y-67399474D01*
X132392905Y-67468589D02*
X132416328Y-67427811D01*
X132389987Y-67517047D02*
X132392905Y-67468589D01*
X132402736Y-67553524D02*
X132389987Y-67517047D01*
X132413640Y-67570189D02*
X132402736Y-67553524D01*
X132405346Y-67587852D02*
X132413640Y-67570189D01*
X132397053Y-67620259D02*
X132405346Y-67587852D01*
X132401199Y-67661421D02*
X132397053Y-67620259D01*
X132426465Y-67703582D02*
X132401199Y-67661421D01*
X132469239Y-67731919D02*
X132426465Y-67703582D01*
X132523533Y-67742286D02*
X132469239Y-67731919D01*
X132499112Y-67748660D02*
X132523533Y-67742286D01*
X132462251Y-67767014D02*
X132499112Y-67748660D01*
X132424007Y-67802417D02*
X132462251Y-67767014D01*
X132395133Y-67872299D02*
X132424007Y-67802417D01*
X132396208Y-67931585D02*
X132395133Y-67872299D01*
X132403273Y-67960000D02*
X132396208Y-67931585D01*
X132361343Y-67932046D02*
X132403273Y-67960000D01*
X132302826Y-67902250D02*
X132361343Y-67932046D01*
X132229102Y-67877061D02*
X132302826Y-67902250D01*
X132142862Y-67862931D02*
X132229102Y-67877061D01*
X132069984Y-67862163D02*
X132142862Y-67862931D01*
X132015536Y-67868768D02*
X132069984Y-67862163D01*
X132009085Y-67837435D02*
X132015536Y-67868768D01*
X131994340Y-67793662D02*
X132009085Y-67837435D01*
X131965773Y-67744359D02*
X131994340Y-67793662D01*
X131944193Y-67717558D02*
X131965773Y-67744359D01*
X131903723Y-67683384D02*
X131944193Y-67717558D01*
X131843439Y-67655200D02*
X131903723Y-67683384D01*
X131780774Y-67646907D02*
X131843439Y-67655200D01*
X131726404Y-67653818D02*
X131780774Y-67646907D01*
X131681709Y-67667641D02*
X131726404Y-67653818D01*
X131636093Y-67686456D02*
X131681709Y-67667641D01*
X131598771Y-67707575D02*
X131636093Y-67686456D01*
X131569742Y-67727772D02*
X131598771Y-67707575D01*
X131584947Y-67683155D02*
X131569742Y-67727772D01*
X131586330Y-67650055D02*
X131584947Y-67683155D01*
X131582183Y-67630319D02*
X131586330Y-67650055D01*
X131530039Y-67563815D02*
X131582183Y-67630319D01*
X131459465Y-67533711D02*
X131530039Y-67563815D01*
X131418380Y-67526647D02*
X131459465Y-67533711D01*
X131387431Y-67526416D02*
X131418380Y-67526647D01*
X131361551Y-67528950D02*
X131387431Y-67526416D01*
X131341662Y-67532867D02*
X131361551Y-67528950D01*
X131343889Y-67504606D02*
X131341662Y-67532867D01*
X131344272Y-67469895D02*
X131343889Y-67504606D01*
X131339588Y-67429193D02*
X131344272Y-67469895D01*
X131331525Y-67387878D02*
X131339588Y-67429193D01*
X131311020Y-67336425D02*
X131331525Y-67387878D01*
X131271164Y-67284051D02*
X131311020Y-67336425D01*
X131235147Y-67255253D02*
X131271164Y-67284051D01*
X131200052Y-67237513D02*
X131235147Y-67255253D01*
X131169564Y-67228068D02*
X131200052Y-67237513D01*
X131185077Y-67210098D02*
X131169564Y-67228068D01*
X131201051Y-67185216D02*
X131185077Y-67210098D01*
X131215180Y-67153424D02*
X131201051Y-67185216D01*
X131226085Y-67095674D02*
X131215180Y-67153424D01*
X131220863Y-67042532D02*
X131226085Y-67095674D01*
X131198592Y-67012428D02*
X131220863Y-67042532D01*
X131197057Y-67010969D02*
X131198592Y-67012428D01*
X131195982Y-67010432D02*
X131197057Y-67010969D01*
X131194445Y-67010355D02*
X131195982Y-67010432D01*
X131164189Y-67016498D02*
X131194445Y-67010355D01*
X131136235Y-67033239D02*
X131164189Y-67016498D01*
X131111507Y-67051824D02*
X131136235Y-67033239D01*
X131089160Y-67066645D02*
X131111507Y-67051824D01*
X131058519Y-67080545D02*
X131089160Y-67066645D01*
X131018202Y-67091220D02*
X131058519Y-67080545D01*
X131024269Y-67056969D02*
X131018202Y-67091220D01*
X131023884Y-67007974D02*
X131024269Y-67056969D01*
X131007834Y-66950224D02*
X131023884Y-67007974D01*
X130986332Y-66913900D02*
X131007834Y-66950224D01*
X130961604Y-66886331D02*
X130986332Y-66913900D01*
X130937337Y-66865213D02*
X130961604Y-66886331D01*
X130899016Y-66838718D02*
X130937337Y-66865213D01*
X130864382Y-66820518D02*
X130899016Y-66838718D01*
X130835737Y-66809229D02*
X130864382Y-66820518D01*
X130847103Y-66769526D02*
X130835737Y-66809229D01*
X130853400Y-66708628D02*
X130847103Y-66769526D01*
X130844031Y-66632985D02*
X130853400Y-66708628D01*
X130824142Y-66579152D02*
X130844031Y-66632985D01*
X130801026Y-66538220D02*
X130824142Y-66579152D01*
X130779754Y-66510651D02*
X130801026Y-66538220D01*
X130774993Y-66456127D02*
X130779754Y-66510651D01*
X130769310Y-66408975D02*
X130774993Y-66456127D01*
X130763166Y-66369656D02*
X130769310Y-66408975D01*
X130754105Y-66318664D02*
X130763166Y-66369656D01*
X130744582Y-66289329D02*
X130754105Y-66318664D01*
X130729991Y-66274277D02*
X130744582Y-66289329D01*
X130698889Y-66268210D02*
X130729991Y-66274277D01*
X130669170Y-66275505D02*
X130698889Y-66268210D01*
X130649126Y-66284644D02*
X130669170Y-66275505D01*
X130618331Y-66307759D02*
X130649126Y-66284644D01*
X130599056Y-66331335D02*
X130618331Y-66307759D01*
X130588996Y-66348921D02*
X130599056Y-66331335D01*
X130587229Y-66318588D02*
X130588996Y-66348921D01*
X130587306Y-66281803D02*
X130587229Y-66318588D01*
X130591069Y-66239028D02*
X130587306Y-66281803D01*
X130610499Y-66159161D02*
X130591069Y-66239028D01*
X130631770Y-66099108D02*
X130610499Y-66159161D01*
X130642906Y-66035828D02*
X130631770Y-66099108D01*
X130641446Y-65995819D02*
X130642906Y-66035828D01*
X130629851Y-65946593D02*
X130641446Y-65995819D01*
X130603510Y-65888614D02*
X130629851Y-65946593D01*
X130635456Y-65833552D02*
X130603510Y-65888614D01*
X130651737Y-65785401D02*
X130635456Y-65833552D01*
X130657420Y-65745544D02*
X130651737Y-65785401D01*
X130654578Y-65690636D02*
X130657420Y-65745544D01*
X130647129Y-65631120D02*
X130654578Y-65690636D01*
X130642906Y-65569300D02*
X130647129Y-65631120D01*
X130642829Y-65559547D02*
X130642906Y-65569300D01*
X130642291Y-65546569D02*
X130642829Y-65559547D01*
X130640832Y-65529905D02*
X130642291Y-65546569D01*
X130635917Y-65501490D02*
X130640832Y-65529905D01*
X130631924Y-65473998D02*
X130635917Y-65501490D01*
X130632538Y-65434525D02*
X130631924Y-65473998D01*
X130639603Y-65383917D02*
X130632538Y-65434525D01*
X130644826Y-65348976D02*
X130639603Y-65383917D01*
X130636685Y-65324632D02*
X130644826Y-65348976D01*
X130613263Y-65311500D02*
X130636685Y-65324632D01*
X130582007Y-65309427D02*
X130613263Y-65311500D01*
X130551673Y-65318412D02*
X130582007Y-65309427D01*
X130509206Y-65361724D02*
X130551673Y-65318412D01*
X130487012Y-65428535D02*
X130509206Y-65361724D01*
X130474955Y-65505023D02*
X130487012Y-65428535D01*
X130468735Y-65583200D02*
X130474955Y-65505023D01*
X130463897Y-65635574D02*
X130468735Y-65583200D01*
X130443854Y-65675046D02*
X130463897Y-65635574D01*
X130414825Y-65696319D02*
X130443854Y-65675046D01*
X130389944Y-65706993D02*
X130414825Y-65696319D01*
X130369210Y-65726883D02*
X130389944Y-65706993D01*
X130360224Y-65768506D02*
X130369210Y-65726883D01*
X130371974Y-65820726D02*
X130360224Y-65768506D01*
X130387870Y-65892760D02*
X130371974Y-65820726D01*
X130392401Y-65944366D02*
X130387870Y-65892760D01*
X130390942Y-65990443D02*
X130392401Y-65944366D01*
X130385797Y-66029609D02*
X130390942Y-65990443D01*
X130344250Y-66018012D02*
X130385797Y-66029609D01*
X130303626Y-66026690D02*
X130344250Y-66018012D01*
X130271756Y-66052417D02*
X130303626Y-66026690D01*
X130259392Y-66082751D02*
X130271756Y-66052417D01*
X130259930Y-66116771D02*
X130259392Y-66082751D01*
X130273829Y-66149869D02*
X130259930Y-66116771D01*
X130248642Y-66150867D02*
X130273829Y-66149869D01*
X130216080Y-66155091D02*
X130248642Y-66150867D01*
X130178451Y-66164383D02*
X130216080Y-66155091D01*
X130113712Y-66196100D02*
X130178451Y-66164383D01*
X130066944Y-66228737D02*
X130113712Y-66196100D01*
X130010500Y-66249395D02*
X130066944Y-66228737D01*
X129962657Y-66249472D02*
X130010500Y-66249395D01*
X129929097Y-66244480D02*
X129962657Y-66249472D01*
X129900607Y-66251469D02*
X129929097Y-66244480D01*
X129876033Y-66286333D02*
X129900607Y-66251469D01*
X129868507Y-66334100D02*
X129876033Y-66286333D01*
X129871579Y-66384170D02*
X129868507Y-66334100D01*
X129846697Y-66358751D02*
X129871579Y-66384170D01*
X129816286Y-66345311D02*
X129846697Y-66358751D01*
X129784494Y-66344774D02*
X129816286Y-66345311D01*
X129750012Y-66364357D02*
X129784494Y-66344774D01*
X129731197Y-66393616D02*
X129750012Y-66364357D01*
X129724363Y-66413198D02*
X129731197Y-66393616D01*
X129723979Y-66466264D02*
X129724363Y-66413198D01*
X129746172Y-66518407D02*
X129723979Y-66466264D01*
X129788641Y-66564561D02*
X129746172Y-66518407D01*
X129756387Y-66566941D02*
X129788641Y-66564561D01*
X129718603Y-66564253D02*
X129756387Y-66566941D01*
X129676673Y-66554193D02*
X129718603Y-66564253D01*
X129623762Y-66529389D02*
X129676673Y-66554193D01*
X129585134Y-66505045D02*
X129623762Y-66529389D01*
X129541899Y-66494063D02*
X129585134Y-66505045D01*
X129504269Y-66502664D02*
X129541899Y-66494063D01*
X129478619Y-66518637D02*
X129504269Y-66502664D01*
X129446520Y-66527238D02*
X129478619Y-66518637D01*
X129395911Y-66506120D02*
X129446520Y-66527238D01*
X129348530Y-66457816D02*
X129395911Y-66506120D01*
X129274422Y-66404904D02*
X129348530Y-66457816D01*
X129242629Y-66390467D02*
X129274422Y-66404904D01*
X129192866Y-66377873D02*
X129242629Y-66390467D01*
X129150015Y-66388316D02*
X129192866Y-66377873D01*
X129138035Y-66421185D02*
X129150015Y-66388316D01*
X129146789Y-66470180D02*
X129138035Y-66421185D01*
X129174897Y-66529313D02*
X129146789Y-66470180D01*
X129137267Y-66502127D02*
X129174897Y-66529313D01*
X129092265Y-66465265D02*
X129137267Y-66502127D01*
X129042195Y-66417345D02*
X129092265Y-66465265D01*
X128989514Y-66356447D02*
X129042195Y-66417345D01*
X128956646Y-66311676D02*
X128989514Y-66356447D01*
X128913640Y-66265983D02*
X128956646Y-66311676D01*
X128833543Y-66211765D02*
X128913640Y-66265983D01*
X128773260Y-66188881D02*
X128833543Y-66211765D01*
X128716662Y-66145722D02*
X128773260Y-66188881D01*
X128669817Y-66057254D02*
X128716662Y-66145722D01*
X128648775Y-65979845D02*
X128669817Y-66057254D01*
X128608841Y-65934229D02*
X128648775Y-65979845D01*
X128565376Y-65932693D02*
X128608841Y-65934229D01*
X128527900Y-65945441D02*
X128565376Y-65932693D01*
X128492728Y-65942523D02*
X128527900Y-65945441D01*
X128472301Y-65901361D02*
X128492728Y-65942523D01*
X128471686Y-65831631D02*
X128472301Y-65901361D01*
X128451259Y-65739324D02*
X128471686Y-65831631D01*
X128413629Y-65681344D02*
X128451259Y-65739324D01*
X128378303Y-65644559D02*
X128413629Y-65681344D01*
X128355879Y-65592109D02*
X128378303Y-65644559D01*
X128352961Y-65544495D02*
X128355879Y-65592109D01*
X128353269Y-65504255D02*
X128352961Y-65544495D01*
X128339292Y-65463554D02*
X128353269Y-65504255D01*
X128318787Y-65440362D02*
X128339292Y-65463554D01*
X128299666Y-65428689D02*
X128318787Y-65440362D01*
X128283309Y-65409644D02*
X128299666Y-65428689D01*
X128280775Y-65350819D02*
X128283309Y-65409644D01*
X128301739Y-65290151D02*
X128280775Y-65350819D01*
X128301970Y-65227179D02*
X128301739Y-65290151D01*
X128286304Y-65203757D02*
X128301970Y-65227179D01*
X128265109Y-65189089D02*
X128286304Y-65203757D01*
X128239766Y-65167049D02*
X128265109Y-65189089D01*
X128206283Y-65057693D02*
X128239766Y-65167049D01*
X128217956Y-64936357D02*
X128206283Y-65057693D01*
X128194150Y-64827001D02*
X128217956Y-64936357D01*
X128167272Y-64799202D02*
X128194150Y-64827001D01*
X128118737Y-64774628D02*
X128167272Y-64799202D01*
X128040714Y-64760651D02*
X128118737Y-64774628D01*
X128050620Y-64857182D02*
X128040714Y-64760651D01*
X128053615Y-64967536D02*
X128050620Y-64857182D01*
X128046934Y-65090331D02*
X128053615Y-64967536D01*
X128014373Y-65277096D02*
X128040570Y-65142532D01*
X128040570Y-65142532D02*
X128046934Y-65090331D01*
X127966146Y-65432989D02*
X128006271Y-65308619D01*
X128006271Y-65308619D02*
X128014373Y-65277096D01*
X127914233Y-65554787D02*
X127962599Y-65442147D01*
X127962599Y-65442147D02*
X127966146Y-65432989D01*
D11*
%TO.C,JP1*%
X144415000Y-111255000D02*
X146415000Y-111255000D01*
X144415000Y-108455000D02*
X144415000Y-111255000D01*
X146415000Y-108455000D02*
X144415000Y-108455000D01*
X146415000Y-111255000D02*
X146415000Y-108455000D01*
%TO.C,U2*%
X131180000Y-72050000D02*
X133630000Y-72050000D01*
X132980000Y-75270000D02*
X131180000Y-75270000D01*
%TO.C,NT9*%
D10*
X134929999Y-100512619D02*
X134929999Y-101512619D01*
X135168094Y-101512619D01*
X135310951Y-101465000D01*
X135406189Y-101369761D01*
X135453808Y-101274523D01*
X135501427Y-101084047D01*
X135501427Y-100941190D01*
X135453808Y-100750714D01*
X135406189Y-100655476D01*
X135310951Y-100560238D01*
X135168094Y-100512619D01*
X134929999Y-100512619D01*
X136358570Y-101179285D02*
X136358570Y-100512619D01*
X136120475Y-101560238D02*
X135882379Y-100845952D01*
X136501427Y-100845952D01*
X137596665Y-101560238D02*
X136739522Y-100274523D01*
X138453808Y-101465000D02*
X138358570Y-101512619D01*
X138215713Y-101512619D01*
X138072856Y-101465000D01*
X137977618Y-101369761D01*
X137929999Y-101274523D01*
X137882379Y-101084047D01*
X137882379Y-100941190D01*
X137929999Y-100750714D01*
X137977618Y-100655476D01*
X138072856Y-100560238D01*
X138215713Y-100512619D01*
X138310951Y-100512619D01*
X138453808Y-100560238D01*
X138501427Y-100607857D01*
X138501427Y-100941190D01*
X138310951Y-100941190D01*
X138929999Y-100512619D02*
X138929999Y-101512619D01*
X139310951Y-101512619D01*
X139406189Y-101465000D01*
X139453808Y-101417380D01*
X139501427Y-101322142D01*
X139501427Y-101179285D01*
X139453808Y-101084047D01*
X139406189Y-101036428D01*
X139310951Y-100988809D01*
X138929999Y-100988809D01*
X139929999Y-100512619D02*
X139929999Y-101512619D01*
X140596665Y-101512619D02*
X140787141Y-101512619D01*
X140882379Y-101465000D01*
X140977618Y-101369761D01*
X141025237Y-101179285D01*
X141025237Y-100845952D01*
X140977618Y-100655476D01*
X140882379Y-100560238D01*
X140787141Y-100512619D01*
X140596665Y-100512619D01*
X140501427Y-100560238D01*
X140406189Y-100655476D01*
X140358570Y-100845952D01*
X140358570Y-101179285D01*
X140406189Y-101369761D01*
X140501427Y-101465000D01*
X140596665Y-101512619D01*
X141406189Y-101417380D02*
X141453808Y-101465000D01*
X141549046Y-101512619D01*
X141787141Y-101512619D01*
X141882379Y-101465000D01*
X141929999Y-101417380D01*
X141977618Y-101322142D01*
X141977618Y-101226904D01*
X141929999Y-101084047D01*
X141358570Y-100512619D01*
X141977618Y-100512619D01*
%TO.C,NT8*%
X134929999Y-103052619D02*
X134929999Y-104052619D01*
X135168094Y-104052619D01*
X135310951Y-104005000D01*
X135406189Y-103909761D01*
X135453808Y-103814523D01*
X135501427Y-103624047D01*
X135501427Y-103481190D01*
X135453808Y-103290714D01*
X135406189Y-103195476D01*
X135310951Y-103100238D01*
X135168094Y-103052619D01*
X134929999Y-103052619D01*
X135834760Y-104052619D02*
X136453808Y-104052619D01*
X136120475Y-103671666D01*
X136263332Y-103671666D01*
X136358570Y-103624047D01*
X136406189Y-103576428D01*
X136453808Y-103481190D01*
X136453808Y-103243095D01*
X136406189Y-103147857D01*
X136358570Y-103100238D01*
X136263332Y-103052619D01*
X135977618Y-103052619D01*
X135882379Y-103100238D01*
X135834760Y-103147857D01*
X137596665Y-104100238D02*
X136739522Y-102814523D01*
X138453808Y-104005000D02*
X138358570Y-104052619D01*
X138215713Y-104052619D01*
X138072856Y-104005000D01*
X137977618Y-103909761D01*
X137929999Y-103814523D01*
X137882379Y-103624047D01*
X137882379Y-103481190D01*
X137929999Y-103290714D01*
X137977618Y-103195476D01*
X138072856Y-103100238D01*
X138215713Y-103052619D01*
X138310951Y-103052619D01*
X138453808Y-103100238D01*
X138501427Y-103147857D01*
X138501427Y-103481190D01*
X138310951Y-103481190D01*
X138929999Y-103052619D02*
X138929999Y-104052619D01*
X139310951Y-104052619D01*
X139406189Y-104005000D01*
X139453808Y-103957380D01*
X139501427Y-103862142D01*
X139501427Y-103719285D01*
X139453808Y-103624047D01*
X139406189Y-103576428D01*
X139310951Y-103528809D01*
X138929999Y-103528809D01*
X139929999Y-103052619D02*
X139929999Y-104052619D01*
X140596665Y-104052619D02*
X140787141Y-104052619D01*
X140882379Y-104005000D01*
X140977618Y-103909761D01*
X141025237Y-103719285D01*
X141025237Y-103385952D01*
X140977618Y-103195476D01*
X140882379Y-103100238D01*
X140787141Y-103052619D01*
X140596665Y-103052619D01*
X140501427Y-103100238D01*
X140406189Y-103195476D01*
X140358570Y-103385952D01*
X140358570Y-103719285D01*
X140406189Y-103909761D01*
X140501427Y-104005000D01*
X140596665Y-104052619D01*
X141644284Y-104052619D02*
X141739522Y-104052619D01*
X141834760Y-104005000D01*
X141882379Y-103957380D01*
X141929999Y-103862142D01*
X141977618Y-103671666D01*
X141977618Y-103433571D01*
X141929999Y-103243095D01*
X141882379Y-103147857D01*
X141834760Y-103100238D01*
X141739522Y-103052619D01*
X141644284Y-103052619D01*
X141549046Y-103100238D01*
X141501427Y-103147857D01*
X141453808Y-103243095D01*
X141406189Y-103433571D01*
X141406189Y-103671666D01*
X141453808Y-103862142D01*
X141501427Y-103957380D01*
X141549046Y-104005000D01*
X141644284Y-104052619D01*
%TO.C,NT7*%
X134930000Y-105592619D02*
X134930000Y-106592619D01*
X135168095Y-106592619D01*
X135310952Y-106545000D01*
X135406190Y-106449761D01*
X135453809Y-106354523D01*
X135501428Y-106164047D01*
X135501428Y-106021190D01*
X135453809Y-105830714D01*
X135406190Y-105735476D01*
X135310952Y-105640238D01*
X135168095Y-105592619D01*
X134930000Y-105592619D01*
X135882380Y-106497380D02*
X135930000Y-106545000D01*
X136025238Y-106592619D01*
X136263333Y-106592619D01*
X136358571Y-106545000D01*
X136406190Y-106497380D01*
X136453809Y-106402142D01*
X136453809Y-106306904D01*
X136406190Y-106164047D01*
X135834761Y-105592619D01*
X136453809Y-105592619D01*
X137596666Y-106640238D02*
X136739523Y-105354523D01*
X138453809Y-106545000D02*
X138358571Y-106592619D01*
X138215714Y-106592619D01*
X138072857Y-106545000D01*
X137977619Y-106449761D01*
X137930000Y-106354523D01*
X137882380Y-106164047D01*
X137882380Y-106021190D01*
X137930000Y-105830714D01*
X137977619Y-105735476D01*
X138072857Y-105640238D01*
X138215714Y-105592619D01*
X138310952Y-105592619D01*
X138453809Y-105640238D01*
X138501428Y-105687857D01*
X138501428Y-106021190D01*
X138310952Y-106021190D01*
X138930000Y-105592619D02*
X138930000Y-106592619D01*
X139310952Y-106592619D01*
X139406190Y-106545000D01*
X139453809Y-106497380D01*
X139501428Y-106402142D01*
X139501428Y-106259285D01*
X139453809Y-106164047D01*
X139406190Y-106116428D01*
X139310952Y-106068809D01*
X138930000Y-106068809D01*
X139930000Y-105592619D02*
X139930000Y-106592619D01*
X140596666Y-106592619D02*
X140787142Y-106592619D01*
X140882380Y-106545000D01*
X140977619Y-106449761D01*
X141025238Y-106259285D01*
X141025238Y-105925952D01*
X140977619Y-105735476D01*
X140882380Y-105640238D01*
X140787142Y-105592619D01*
X140596666Y-105592619D01*
X140501428Y-105640238D01*
X140406190Y-105735476D01*
X140358571Y-105925952D01*
X140358571Y-106259285D01*
X140406190Y-106449761D01*
X140501428Y-106545000D01*
X140596666Y-106592619D01*
X141882380Y-106259285D02*
X141882380Y-105592619D01*
X141644285Y-106640238D02*
X141406190Y-105925952D01*
X142025238Y-105925952D01*
%TO.C,NT6*%
X134929999Y-108132619D02*
X134929999Y-109132619D01*
X135168094Y-109132619D01*
X135310951Y-109085000D01*
X135406189Y-108989761D01*
X135453808Y-108894523D01*
X135501427Y-108704047D01*
X135501427Y-108561190D01*
X135453808Y-108370714D01*
X135406189Y-108275476D01*
X135310951Y-108180238D01*
X135168094Y-108132619D01*
X134929999Y-108132619D01*
X136453808Y-108132619D02*
X135882379Y-108132619D01*
X136168094Y-108132619D02*
X136168094Y-109132619D01*
X136072856Y-108989761D01*
X135977618Y-108894523D01*
X135882379Y-108846904D01*
X137596665Y-109180238D02*
X136739522Y-107894523D01*
X138453808Y-109085000D02*
X138358570Y-109132619D01*
X138215713Y-109132619D01*
X138072856Y-109085000D01*
X137977618Y-108989761D01*
X137929999Y-108894523D01*
X137882379Y-108704047D01*
X137882379Y-108561190D01*
X137929999Y-108370714D01*
X137977618Y-108275476D01*
X138072856Y-108180238D01*
X138215713Y-108132619D01*
X138310951Y-108132619D01*
X138453808Y-108180238D01*
X138501427Y-108227857D01*
X138501427Y-108561190D01*
X138310951Y-108561190D01*
X138929999Y-108132619D02*
X138929999Y-109132619D01*
X139310951Y-109132619D01*
X139406189Y-109085000D01*
X139453808Y-109037380D01*
X139501427Y-108942142D01*
X139501427Y-108799285D01*
X139453808Y-108704047D01*
X139406189Y-108656428D01*
X139310951Y-108608809D01*
X138929999Y-108608809D01*
X139929999Y-108132619D02*
X139929999Y-109132619D01*
X140596665Y-109132619D02*
X140787141Y-109132619D01*
X140882379Y-109085000D01*
X140977618Y-108989761D01*
X141025237Y-108799285D01*
X141025237Y-108465952D01*
X140977618Y-108275476D01*
X140882379Y-108180238D01*
X140787141Y-108132619D01*
X140596665Y-108132619D01*
X140501427Y-108180238D01*
X140406189Y-108275476D01*
X140358570Y-108465952D01*
X140358570Y-108799285D01*
X140406189Y-108989761D01*
X140501427Y-109085000D01*
X140596665Y-109132619D01*
X141929999Y-109132619D02*
X141453808Y-109132619D01*
X141406189Y-108656428D01*
X141453808Y-108704047D01*
X141549046Y-108751666D01*
X141787141Y-108751666D01*
X141882379Y-108704047D01*
X141929999Y-108656428D01*
X141977618Y-108561190D01*
X141977618Y-108323095D01*
X141929999Y-108227857D01*
X141882379Y-108180238D01*
X141787141Y-108132619D01*
X141549046Y-108132619D01*
X141453808Y-108180238D01*
X141406189Y-108227857D01*
%TO.C,NT5*%
X134961809Y-97845619D02*
X134961809Y-98845619D01*
X135199904Y-98845619D01*
X135342761Y-98798000D01*
X135438000Y-98702761D01*
X135485619Y-98607523D01*
X135533238Y-98417047D01*
X135533238Y-98274190D01*
X135485619Y-98083714D01*
X135438000Y-97988476D01*
X135342761Y-97893238D01*
X135199904Y-97845619D01*
X134961809Y-97845619D01*
X136104666Y-98417047D02*
X136009428Y-98464666D01*
X135961809Y-98512285D01*
X135914190Y-98607523D01*
X135914190Y-98655142D01*
X135961809Y-98750380D01*
X136009428Y-98798000D01*
X136104666Y-98845619D01*
X136295142Y-98845619D01*
X136390380Y-98798000D01*
X136438000Y-98750380D01*
X136485619Y-98655142D01*
X136485619Y-98607523D01*
X136438000Y-98512285D01*
X136390380Y-98464666D01*
X136295142Y-98417047D01*
X136104666Y-98417047D01*
X136009428Y-98369428D01*
X135961809Y-98321809D01*
X135914190Y-98226571D01*
X135914190Y-98036095D01*
X135961809Y-97940857D01*
X136009428Y-97893238D01*
X136104666Y-97845619D01*
X136295142Y-97845619D01*
X136390380Y-97893238D01*
X136438000Y-97940857D01*
X136485619Y-98036095D01*
X136485619Y-98226571D01*
X136438000Y-98321809D01*
X136390380Y-98369428D01*
X136295142Y-98417047D01*
X137628476Y-98893238D02*
X136771333Y-97607523D01*
X138485619Y-98798000D02*
X138390380Y-98845619D01*
X138247523Y-98845619D01*
X138104666Y-98798000D01*
X138009428Y-98702761D01*
X137961809Y-98607523D01*
X137914190Y-98417047D01*
X137914190Y-98274190D01*
X137961809Y-98083714D01*
X138009428Y-97988476D01*
X138104666Y-97893238D01*
X138247523Y-97845619D01*
X138342761Y-97845619D01*
X138485619Y-97893238D01*
X138533238Y-97940857D01*
X138533238Y-98274190D01*
X138342761Y-98274190D01*
X138961809Y-97845619D02*
X138961809Y-98845619D01*
X139342761Y-98845619D01*
X139438000Y-98798000D01*
X139485619Y-98750380D01*
X139533238Y-98655142D01*
X139533238Y-98512285D01*
X139485619Y-98417047D01*
X139438000Y-98369428D01*
X139342761Y-98321809D01*
X138961809Y-98321809D01*
X139961809Y-97845619D02*
X139961809Y-98845619D01*
X140628476Y-98845619D02*
X140818952Y-98845619D01*
X140914190Y-98798000D01*
X141009428Y-98702761D01*
X141057047Y-98512285D01*
X141057047Y-98178952D01*
X141009428Y-97988476D01*
X140914190Y-97893238D01*
X140818952Y-97845619D01*
X140628476Y-97845619D01*
X140533238Y-97893238D01*
X140438000Y-97988476D01*
X140390380Y-98178952D01*
X140390380Y-98512285D01*
X140438000Y-98702761D01*
X140533238Y-98798000D01*
X140628476Y-98845619D01*
X142009428Y-97845619D02*
X141438000Y-97845619D01*
X141723714Y-97845619D02*
X141723714Y-98845619D01*
X141628476Y-98702761D01*
X141533238Y-98607523D01*
X141438000Y-98559904D01*
X142914190Y-98845619D02*
X142438000Y-98845619D01*
X142390380Y-98369428D01*
X142438000Y-98417047D01*
X142533238Y-98464666D01*
X142771333Y-98464666D01*
X142866571Y-98417047D01*
X142914190Y-98369428D01*
X142961809Y-98274190D01*
X142961809Y-98036095D01*
X142914190Y-97940857D01*
X142866571Y-97893238D01*
X142771333Y-97845619D01*
X142533238Y-97845619D01*
X142438000Y-97893238D01*
X142390380Y-97940857D01*
%TO.C,NT4*%
X146851190Y-100147380D02*
X146851190Y-99147380D01*
X146613095Y-99147380D01*
X146470238Y-99195000D01*
X146375000Y-99290238D01*
X146327380Y-99385476D01*
X146279761Y-99575952D01*
X146279761Y-99718809D01*
X146327380Y-99909285D01*
X146375000Y-100004523D01*
X146470238Y-100099761D01*
X146613095Y-100147380D01*
X146851190Y-100147380D01*
X145946428Y-99147380D02*
X145279761Y-99147380D01*
X145708333Y-100147380D01*
X144184523Y-99099761D02*
X145041666Y-100385476D01*
X143327380Y-99195000D02*
X143422619Y-99147380D01*
X143565476Y-99147380D01*
X143708333Y-99195000D01*
X143803571Y-99290238D01*
X143851190Y-99385476D01*
X143898809Y-99575952D01*
X143898809Y-99718809D01*
X143851190Y-99909285D01*
X143803571Y-100004523D01*
X143708333Y-100099761D01*
X143565476Y-100147380D01*
X143470238Y-100147380D01*
X143327380Y-100099761D01*
X143279761Y-100052142D01*
X143279761Y-99718809D01*
X143470238Y-99718809D01*
X142851190Y-100147380D02*
X142851190Y-99147380D01*
X142470238Y-99147380D01*
X142375000Y-99195000D01*
X142327380Y-99242619D01*
X142279761Y-99337857D01*
X142279761Y-99480714D01*
X142327380Y-99575952D01*
X142375000Y-99623571D01*
X142470238Y-99671190D01*
X142851190Y-99671190D01*
X141851190Y-100147380D02*
X141851190Y-99147380D01*
X141184523Y-99147380D02*
X140994047Y-99147380D01*
X140898809Y-99195000D01*
X140803571Y-99290238D01*
X140755952Y-99480714D01*
X140755952Y-99814047D01*
X140803571Y-100004523D01*
X140898809Y-100099761D01*
X140994047Y-100147380D01*
X141184523Y-100147380D01*
X141279761Y-100099761D01*
X141375000Y-100004523D01*
X141422619Y-99814047D01*
X141422619Y-99480714D01*
X141375000Y-99290238D01*
X141279761Y-99195000D01*
X141184523Y-99147380D01*
X139803571Y-100147380D02*
X140375000Y-100147380D01*
X140089285Y-100147380D02*
X140089285Y-99147380D01*
X140184523Y-99290238D01*
X140279761Y-99385476D01*
X140375000Y-99433095D01*
X139470238Y-99147380D02*
X138851190Y-99147380D01*
X139184523Y-99528333D01*
X139041666Y-99528333D01*
X138946428Y-99575952D01*
X138898809Y-99623571D01*
X138851190Y-99718809D01*
X138851190Y-99956904D01*
X138898809Y-100052142D01*
X138946428Y-100099761D01*
X139041666Y-100147380D01*
X139327380Y-100147380D01*
X139422619Y-100099761D01*
X139470238Y-100052142D01*
%TO.C,NT3*%
X146851190Y-102687380D02*
X146851190Y-101687380D01*
X146613095Y-101687380D01*
X146470238Y-101735000D01*
X146375000Y-101830238D01*
X146327380Y-101925476D01*
X146279761Y-102115952D01*
X146279761Y-102258809D01*
X146327380Y-102449285D01*
X146375000Y-102544523D01*
X146470238Y-102639761D01*
X146613095Y-102687380D01*
X146851190Y-102687380D01*
X145422619Y-101687380D02*
X145613095Y-101687380D01*
X145708333Y-101735000D01*
X145755952Y-101782619D01*
X145851190Y-101925476D01*
X145898809Y-102115952D01*
X145898809Y-102496904D01*
X145851190Y-102592142D01*
X145803571Y-102639761D01*
X145708333Y-102687380D01*
X145517857Y-102687380D01*
X145422619Y-102639761D01*
X145375000Y-102592142D01*
X145327380Y-102496904D01*
X145327380Y-102258809D01*
X145375000Y-102163571D01*
X145422619Y-102115952D01*
X145517857Y-102068333D01*
X145708333Y-102068333D01*
X145803571Y-102115952D01*
X145851190Y-102163571D01*
X145898809Y-102258809D01*
X144184523Y-101639761D02*
X145041666Y-102925476D01*
X143327380Y-101735000D02*
X143422619Y-101687380D01*
X143565476Y-101687380D01*
X143708333Y-101735000D01*
X143803571Y-101830238D01*
X143851190Y-101925476D01*
X143898809Y-102115952D01*
X143898809Y-102258809D01*
X143851190Y-102449285D01*
X143803571Y-102544523D01*
X143708333Y-102639761D01*
X143565476Y-102687380D01*
X143470238Y-102687380D01*
X143327380Y-102639761D01*
X143279761Y-102592142D01*
X143279761Y-102258809D01*
X143470238Y-102258809D01*
X142851190Y-102687380D02*
X142851190Y-101687380D01*
X142470238Y-101687380D01*
X142375000Y-101735000D01*
X142327380Y-101782619D01*
X142279761Y-101877857D01*
X142279761Y-102020714D01*
X142327380Y-102115952D01*
X142375000Y-102163571D01*
X142470238Y-102211190D01*
X142851190Y-102211190D01*
X141851190Y-102687380D02*
X141851190Y-101687380D01*
X141184523Y-101687380D02*
X140994047Y-101687380D01*
X140898809Y-101735000D01*
X140803571Y-101830238D01*
X140755952Y-102020714D01*
X140755952Y-102354047D01*
X140803571Y-102544523D01*
X140898809Y-102639761D01*
X140994047Y-102687380D01*
X141184523Y-102687380D01*
X141279761Y-102639761D01*
X141375000Y-102544523D01*
X141422619Y-102354047D01*
X141422619Y-102020714D01*
X141375000Y-101830238D01*
X141279761Y-101735000D01*
X141184523Y-101687380D01*
X139803571Y-102687380D02*
X140375000Y-102687380D01*
X140089285Y-102687380D02*
X140089285Y-101687380D01*
X140184523Y-101830238D01*
X140279761Y-101925476D01*
X140375000Y-101973095D01*
X139422619Y-101782619D02*
X139375000Y-101735000D01*
X139279761Y-101687380D01*
X139041666Y-101687380D01*
X138946428Y-101735000D01*
X138898809Y-101782619D01*
X138851190Y-101877857D01*
X138851190Y-101973095D01*
X138898809Y-102115952D01*
X139470238Y-102687380D01*
X138851190Y-102687380D01*
%TO.C,NT2*%
X146851190Y-105227380D02*
X146851190Y-104227380D01*
X146613095Y-104227380D01*
X146470238Y-104275000D01*
X146375000Y-104370238D01*
X146327380Y-104465476D01*
X146279761Y-104655952D01*
X146279761Y-104798809D01*
X146327380Y-104989285D01*
X146375000Y-105084523D01*
X146470238Y-105179761D01*
X146613095Y-105227380D01*
X146851190Y-105227380D01*
X145375000Y-104227380D02*
X145851190Y-104227380D01*
X145898809Y-104703571D01*
X145851190Y-104655952D01*
X145755952Y-104608333D01*
X145517857Y-104608333D01*
X145422619Y-104655952D01*
X145375000Y-104703571D01*
X145327380Y-104798809D01*
X145327380Y-105036904D01*
X145375000Y-105132142D01*
X145422619Y-105179761D01*
X145517857Y-105227380D01*
X145755952Y-105227380D01*
X145851190Y-105179761D01*
X145898809Y-105132142D01*
X144184523Y-104179761D02*
X145041666Y-105465476D01*
X143327380Y-104275000D02*
X143422619Y-104227380D01*
X143565476Y-104227380D01*
X143708333Y-104275000D01*
X143803571Y-104370238D01*
X143851190Y-104465476D01*
X143898809Y-104655952D01*
X143898809Y-104798809D01*
X143851190Y-104989285D01*
X143803571Y-105084523D01*
X143708333Y-105179761D01*
X143565476Y-105227380D01*
X143470238Y-105227380D01*
X143327380Y-105179761D01*
X143279761Y-105132142D01*
X143279761Y-104798809D01*
X143470238Y-104798809D01*
X142851190Y-105227380D02*
X142851190Y-104227380D01*
X142470238Y-104227380D01*
X142375000Y-104275000D01*
X142327380Y-104322619D01*
X142279761Y-104417857D01*
X142279761Y-104560714D01*
X142327380Y-104655952D01*
X142375000Y-104703571D01*
X142470238Y-104751190D01*
X142851190Y-104751190D01*
X141851190Y-105227380D02*
X141851190Y-104227380D01*
X141184523Y-104227380D02*
X140994047Y-104227380D01*
X140898809Y-104275000D01*
X140803571Y-104370238D01*
X140755952Y-104560714D01*
X140755952Y-104894047D01*
X140803571Y-105084523D01*
X140898809Y-105179761D01*
X140994047Y-105227380D01*
X141184523Y-105227380D01*
X141279761Y-105179761D01*
X141375000Y-105084523D01*
X141422619Y-104894047D01*
X141422619Y-104560714D01*
X141375000Y-104370238D01*
X141279761Y-104275000D01*
X141184523Y-104227380D01*
X139803571Y-105227380D02*
X140375000Y-105227380D01*
X140089285Y-105227380D02*
X140089285Y-104227380D01*
X140184523Y-104370238D01*
X140279761Y-104465476D01*
X140375000Y-104513095D01*
X138946428Y-104560714D02*
X138946428Y-105227380D01*
X139184523Y-104179761D02*
X139422619Y-104894047D01*
X138803571Y-104894047D01*
%TO.C,NT1*%
X146851190Y-107767380D02*
X146851190Y-106767380D01*
X146613095Y-106767380D01*
X146470238Y-106815000D01*
X146375000Y-106910238D01*
X146327380Y-107005476D01*
X146279761Y-107195952D01*
X146279761Y-107338809D01*
X146327380Y-107529285D01*
X146375000Y-107624523D01*
X146470238Y-107719761D01*
X146613095Y-107767380D01*
X146851190Y-107767380D01*
X145660714Y-106767380D02*
X145565476Y-106767380D01*
X145470238Y-106815000D01*
X145422619Y-106862619D01*
X145375000Y-106957857D01*
X145327380Y-107148333D01*
X145327380Y-107386428D01*
X145375000Y-107576904D01*
X145422619Y-107672142D01*
X145470238Y-107719761D01*
X145565476Y-107767380D01*
X145660714Y-107767380D01*
X145755952Y-107719761D01*
X145803571Y-107672142D01*
X145851190Y-107576904D01*
X145898809Y-107386428D01*
X145898809Y-107148333D01*
X145851190Y-106957857D01*
X145803571Y-106862619D01*
X145755952Y-106815000D01*
X145660714Y-106767380D01*
X144184523Y-106719761D02*
X145041666Y-108005476D01*
X143327380Y-106815000D02*
X143422619Y-106767380D01*
X143565476Y-106767380D01*
X143708333Y-106815000D01*
X143803571Y-106910238D01*
X143851190Y-107005476D01*
X143898809Y-107195952D01*
X143898809Y-107338809D01*
X143851190Y-107529285D01*
X143803571Y-107624523D01*
X143708333Y-107719761D01*
X143565476Y-107767380D01*
X143470238Y-107767380D01*
X143327380Y-107719761D01*
X143279761Y-107672142D01*
X143279761Y-107338809D01*
X143470238Y-107338809D01*
X142851190Y-107767380D02*
X142851190Y-106767380D01*
X142470238Y-106767380D01*
X142375000Y-106815000D01*
X142327380Y-106862619D01*
X142279761Y-106957857D01*
X142279761Y-107100714D01*
X142327380Y-107195952D01*
X142375000Y-107243571D01*
X142470238Y-107291190D01*
X142851190Y-107291190D01*
X141851190Y-107767380D02*
X141851190Y-106767380D01*
X141184523Y-106767380D02*
X140994047Y-106767380D01*
X140898809Y-106815000D01*
X140803571Y-106910238D01*
X140755952Y-107100714D01*
X140755952Y-107434047D01*
X140803571Y-107624523D01*
X140898809Y-107719761D01*
X140994047Y-107767380D01*
X141184523Y-107767380D01*
X141279761Y-107719761D01*
X141375000Y-107624523D01*
X141422619Y-107434047D01*
X141422619Y-107100714D01*
X141375000Y-106910238D01*
X141279761Y-106815000D01*
X141184523Y-106767380D01*
X139803571Y-107767380D02*
X140375000Y-107767380D01*
X140089285Y-107767380D02*
X140089285Y-106767380D01*
X140184523Y-106910238D01*
X140279761Y-107005476D01*
X140375000Y-107053095D01*
X138946428Y-106767380D02*
X139136904Y-106767380D01*
X139232142Y-106815000D01*
X139279761Y-106862619D01*
X139375000Y-107005476D01*
X139422619Y-107195952D01*
X139422619Y-107576904D01*
X139375000Y-107672142D01*
X139327380Y-107719761D01*
X139232142Y-107767380D01*
X139041666Y-107767380D01*
X138946428Y-107719761D01*
X138898809Y-107672142D01*
X138851190Y-107576904D01*
X138851190Y-107338809D01*
X138898809Y-107243571D01*
X138946428Y-107195952D01*
X139041666Y-107148333D01*
X139232142Y-107148333D01*
X139327380Y-107195952D01*
X139375000Y-107243571D01*
X139422619Y-107338809D01*
%TO.C,JP1*%
X138875000Y-111942619D02*
X138875000Y-112942619D01*
X139113095Y-112942619D01*
X139255952Y-112895000D01*
X139351190Y-112799761D01*
X139398809Y-112704523D01*
X139446428Y-112514047D01*
X139446428Y-112371190D01*
X139398809Y-112180714D01*
X139351190Y-112085476D01*
X139255952Y-111990238D01*
X139113095Y-111942619D01*
X138875000Y-111942619D01*
X140255952Y-111990238D02*
X140160714Y-111942619D01*
X139970238Y-111942619D01*
X139875000Y-111990238D01*
X139827380Y-112085476D01*
X139827380Y-112466428D01*
X139875000Y-112561666D01*
X139970238Y-112609285D01*
X140160714Y-112609285D01*
X140255952Y-112561666D01*
X140303571Y-112466428D01*
X140303571Y-112371190D01*
X139827380Y-112275952D01*
X141113095Y-111990238D02*
X141017857Y-111942619D01*
X140827380Y-111942619D01*
X140732142Y-111990238D01*
X140684523Y-112085476D01*
X140684523Y-112466428D01*
X140732142Y-112561666D01*
X140827380Y-112609285D01*
X141017857Y-112609285D01*
X141113095Y-112561666D01*
X141160714Y-112466428D01*
X141160714Y-112371190D01*
X140684523Y-112275952D01*
X141589285Y-112609285D02*
X141589285Y-111609285D01*
X141589285Y-112561666D02*
X141684523Y-112609285D01*
X141875000Y-112609285D01*
X141970238Y-112561666D01*
X142017857Y-112514047D01*
X142065476Y-112418809D01*
X142065476Y-112133095D01*
X142017857Y-112037857D01*
X141970238Y-111990238D01*
X141875000Y-111942619D01*
X141684523Y-111942619D01*
X141589285Y-111990238D01*
X142255952Y-111847380D02*
X143017857Y-111847380D01*
X143208333Y-111990238D02*
X143351190Y-111942619D01*
X143589285Y-111942619D01*
X143684523Y-111990238D01*
X143732142Y-112037857D01*
X143779761Y-112133095D01*
X143779761Y-112228333D01*
X143732142Y-112323571D01*
X143684523Y-112371190D01*
X143589285Y-112418809D01*
X143398809Y-112466428D01*
X143303571Y-112514047D01*
X143255952Y-112561666D01*
X143208333Y-112656904D01*
X143208333Y-112752142D01*
X143255952Y-112847380D01*
X143303571Y-112895000D01*
X143398809Y-112942619D01*
X143636904Y-112942619D01*
X143779761Y-112895000D01*
X144351190Y-111942619D02*
X144255952Y-111990238D01*
X144208333Y-112085476D01*
X144208333Y-112942619D01*
X145113095Y-111990238D02*
X145017857Y-111942619D01*
X144827380Y-111942619D01*
X144732142Y-111990238D01*
X144684523Y-112085476D01*
X144684523Y-112466428D01*
X144732142Y-112561666D01*
X144827380Y-112609285D01*
X145017857Y-112609285D01*
X145113095Y-112561666D01*
X145160714Y-112466428D01*
X145160714Y-112371190D01*
X144684523Y-112275952D01*
X145970238Y-111990238D02*
X145875000Y-111942619D01*
X145684523Y-111942619D01*
X145589285Y-111990238D01*
X145541666Y-112085476D01*
X145541666Y-112466428D01*
X145589285Y-112561666D01*
X145684523Y-112609285D01*
X145875000Y-112609285D01*
X145970238Y-112561666D01*
X146017857Y-112466428D01*
X146017857Y-112371190D01*
X145541666Y-112275952D01*
X146446428Y-112609285D02*
X146446428Y-111609285D01*
X146446428Y-112561666D02*
X146541666Y-112609285D01*
X146732142Y-112609285D01*
X146827380Y-112561666D01*
X146875000Y-112514047D01*
X146922619Y-112418809D01*
X146922619Y-112133095D01*
X146875000Y-112037857D01*
X146827380Y-111990238D01*
X146732142Y-111942619D01*
X146541666Y-111942619D01*
X146446428Y-111990238D01*
%TO.C,U2*%
X132841904Y-75652380D02*
X132841904Y-76461904D01*
X132794285Y-76557142D01*
X132746666Y-76604761D01*
X132651428Y-76652380D01*
X132460952Y-76652380D01*
X132365714Y-76604761D01*
X132318095Y-76557142D01*
X132270476Y-76461904D01*
X132270476Y-75652380D01*
X131841904Y-75747619D02*
X131794285Y-75700000D01*
X131699047Y-75652380D01*
X131460952Y-75652380D01*
X131365714Y-75700000D01*
X131318095Y-75747619D01*
X131270476Y-75842857D01*
X131270476Y-75938095D01*
X131318095Y-76080952D01*
X131889523Y-76652380D01*
X131270476Y-76652380D01*
%TD*%
M02*
