%TF.GenerationSoftware,KiCad,Pcbnew,(5.1.5)-3*%
%TF.CreationDate,2021-07-21T11:08:43+02:00*%
%TF.ProjectId,cece-pcb,63656365-2d70-4636-922e-6b696361645f,rev?*%
%TF.SameCoordinates,Original*%
%TF.FileFunction,Paste,Top*%
%TF.FilePolarity,Positive*%
%FSLAX46Y46*%
G04 Gerber Fmt 4.6, Leading zero omitted, Abs format (unit mm)*
G04 Created by KiCad (PCBNEW (5.1.5)-3) date 2021-07-21 11:08:43*
%MOMM*%
%LPD*%
G04 APERTURE LIST*
%ADD10C,0.100000*%
%ADD11R,1.300000X1.550000*%
%ADD12R,1.000000X2.500000*%
G04 APERTURE END LIST*
D10*
%TO.C,R108*%
G36*
X123022505Y-60769204D02*
G01*
X123046773Y-60772804D01*
X123070572Y-60778765D01*
X123093671Y-60787030D01*
X123115850Y-60797520D01*
X123136893Y-60810132D01*
X123156599Y-60824747D01*
X123174777Y-60841223D01*
X123191253Y-60859401D01*
X123205868Y-60879107D01*
X123218480Y-60900150D01*
X123228970Y-60922329D01*
X123237235Y-60945428D01*
X123243196Y-60969227D01*
X123246796Y-60993495D01*
X123248000Y-61017999D01*
X123248000Y-61918001D01*
X123246796Y-61942505D01*
X123243196Y-61966773D01*
X123237235Y-61990572D01*
X123228970Y-62013671D01*
X123218480Y-62035850D01*
X123205868Y-62056893D01*
X123191253Y-62076599D01*
X123174777Y-62094777D01*
X123156599Y-62111253D01*
X123136893Y-62125868D01*
X123115850Y-62138480D01*
X123093671Y-62148970D01*
X123070572Y-62157235D01*
X123046773Y-62163196D01*
X123022505Y-62166796D01*
X122998001Y-62168000D01*
X122347999Y-62168000D01*
X122323495Y-62166796D01*
X122299227Y-62163196D01*
X122275428Y-62157235D01*
X122252329Y-62148970D01*
X122230150Y-62138480D01*
X122209107Y-62125868D01*
X122189401Y-62111253D01*
X122171223Y-62094777D01*
X122154747Y-62076599D01*
X122140132Y-62056893D01*
X122127520Y-62035850D01*
X122117030Y-62013671D01*
X122108765Y-61990572D01*
X122102804Y-61966773D01*
X122099204Y-61942505D01*
X122098000Y-61918001D01*
X122098000Y-61017999D01*
X122099204Y-60993495D01*
X122102804Y-60969227D01*
X122108765Y-60945428D01*
X122117030Y-60922329D01*
X122127520Y-60900150D01*
X122140132Y-60879107D01*
X122154747Y-60859401D01*
X122171223Y-60841223D01*
X122189401Y-60824747D01*
X122209107Y-60810132D01*
X122230150Y-60797520D01*
X122252329Y-60787030D01*
X122275428Y-60778765D01*
X122299227Y-60772804D01*
X122323495Y-60769204D01*
X122347999Y-60768000D01*
X122998001Y-60768000D01*
X123022505Y-60769204D01*
G37*
G36*
X125072505Y-60769204D02*
G01*
X125096773Y-60772804D01*
X125120572Y-60778765D01*
X125143671Y-60787030D01*
X125165850Y-60797520D01*
X125186893Y-60810132D01*
X125206599Y-60824747D01*
X125224777Y-60841223D01*
X125241253Y-60859401D01*
X125255868Y-60879107D01*
X125268480Y-60900150D01*
X125278970Y-60922329D01*
X125287235Y-60945428D01*
X125293196Y-60969227D01*
X125296796Y-60993495D01*
X125298000Y-61017999D01*
X125298000Y-61918001D01*
X125296796Y-61942505D01*
X125293196Y-61966773D01*
X125287235Y-61990572D01*
X125278970Y-62013671D01*
X125268480Y-62035850D01*
X125255868Y-62056893D01*
X125241253Y-62076599D01*
X125224777Y-62094777D01*
X125206599Y-62111253D01*
X125186893Y-62125868D01*
X125165850Y-62138480D01*
X125143671Y-62148970D01*
X125120572Y-62157235D01*
X125096773Y-62163196D01*
X125072505Y-62166796D01*
X125048001Y-62168000D01*
X124397999Y-62168000D01*
X124373495Y-62166796D01*
X124349227Y-62163196D01*
X124325428Y-62157235D01*
X124302329Y-62148970D01*
X124280150Y-62138480D01*
X124259107Y-62125868D01*
X124239401Y-62111253D01*
X124221223Y-62094777D01*
X124204747Y-62076599D01*
X124190132Y-62056893D01*
X124177520Y-62035850D01*
X124167030Y-62013671D01*
X124158765Y-61990572D01*
X124152804Y-61966773D01*
X124149204Y-61942505D01*
X124148000Y-61918001D01*
X124148000Y-61017999D01*
X124149204Y-60993495D01*
X124152804Y-60969227D01*
X124158765Y-60945428D01*
X124167030Y-60922329D01*
X124177520Y-60900150D01*
X124190132Y-60879107D01*
X124204747Y-60859401D01*
X124221223Y-60841223D01*
X124239401Y-60824747D01*
X124259107Y-60810132D01*
X124280150Y-60797520D01*
X124302329Y-60787030D01*
X124325428Y-60778765D01*
X124349227Y-60772804D01*
X124373495Y-60769204D01*
X124397999Y-60768000D01*
X125048001Y-60768000D01*
X125072505Y-60769204D01*
G37*
%TD*%
%TO.C,C109*%
G36*
X111592505Y-31051204D02*
G01*
X111616773Y-31054804D01*
X111640572Y-31060765D01*
X111663671Y-31069030D01*
X111685850Y-31079520D01*
X111706893Y-31092132D01*
X111726599Y-31106747D01*
X111744777Y-31123223D01*
X111761253Y-31141401D01*
X111775868Y-31161107D01*
X111788480Y-31182150D01*
X111798970Y-31204329D01*
X111807235Y-31227428D01*
X111813196Y-31251227D01*
X111816796Y-31275495D01*
X111818000Y-31299999D01*
X111818000Y-32200001D01*
X111816796Y-32224505D01*
X111813196Y-32248773D01*
X111807235Y-32272572D01*
X111798970Y-32295671D01*
X111788480Y-32317850D01*
X111775868Y-32338893D01*
X111761253Y-32358599D01*
X111744777Y-32376777D01*
X111726599Y-32393253D01*
X111706893Y-32407868D01*
X111685850Y-32420480D01*
X111663671Y-32430970D01*
X111640572Y-32439235D01*
X111616773Y-32445196D01*
X111592505Y-32448796D01*
X111568001Y-32450000D01*
X110917999Y-32450000D01*
X110893495Y-32448796D01*
X110869227Y-32445196D01*
X110845428Y-32439235D01*
X110822329Y-32430970D01*
X110800150Y-32420480D01*
X110779107Y-32407868D01*
X110759401Y-32393253D01*
X110741223Y-32376777D01*
X110724747Y-32358599D01*
X110710132Y-32338893D01*
X110697520Y-32317850D01*
X110687030Y-32295671D01*
X110678765Y-32272572D01*
X110672804Y-32248773D01*
X110669204Y-32224505D01*
X110668000Y-32200001D01*
X110668000Y-31299999D01*
X110669204Y-31275495D01*
X110672804Y-31251227D01*
X110678765Y-31227428D01*
X110687030Y-31204329D01*
X110697520Y-31182150D01*
X110710132Y-31161107D01*
X110724747Y-31141401D01*
X110741223Y-31123223D01*
X110759401Y-31106747D01*
X110779107Y-31092132D01*
X110800150Y-31079520D01*
X110822329Y-31069030D01*
X110845428Y-31060765D01*
X110869227Y-31054804D01*
X110893495Y-31051204D01*
X110917999Y-31050000D01*
X111568001Y-31050000D01*
X111592505Y-31051204D01*
G37*
G36*
X113642505Y-31051204D02*
G01*
X113666773Y-31054804D01*
X113690572Y-31060765D01*
X113713671Y-31069030D01*
X113735850Y-31079520D01*
X113756893Y-31092132D01*
X113776599Y-31106747D01*
X113794777Y-31123223D01*
X113811253Y-31141401D01*
X113825868Y-31161107D01*
X113838480Y-31182150D01*
X113848970Y-31204329D01*
X113857235Y-31227428D01*
X113863196Y-31251227D01*
X113866796Y-31275495D01*
X113868000Y-31299999D01*
X113868000Y-32200001D01*
X113866796Y-32224505D01*
X113863196Y-32248773D01*
X113857235Y-32272572D01*
X113848970Y-32295671D01*
X113838480Y-32317850D01*
X113825868Y-32338893D01*
X113811253Y-32358599D01*
X113794777Y-32376777D01*
X113776599Y-32393253D01*
X113756893Y-32407868D01*
X113735850Y-32420480D01*
X113713671Y-32430970D01*
X113690572Y-32439235D01*
X113666773Y-32445196D01*
X113642505Y-32448796D01*
X113618001Y-32450000D01*
X112967999Y-32450000D01*
X112943495Y-32448796D01*
X112919227Y-32445196D01*
X112895428Y-32439235D01*
X112872329Y-32430970D01*
X112850150Y-32420480D01*
X112829107Y-32407868D01*
X112809401Y-32393253D01*
X112791223Y-32376777D01*
X112774747Y-32358599D01*
X112760132Y-32338893D01*
X112747520Y-32317850D01*
X112737030Y-32295671D01*
X112728765Y-32272572D01*
X112722804Y-32248773D01*
X112719204Y-32224505D01*
X112718000Y-32200001D01*
X112718000Y-31299999D01*
X112719204Y-31275495D01*
X112722804Y-31251227D01*
X112728765Y-31227428D01*
X112737030Y-31204329D01*
X112747520Y-31182150D01*
X112760132Y-31161107D01*
X112774747Y-31141401D01*
X112791223Y-31123223D01*
X112809401Y-31106747D01*
X112829107Y-31092132D01*
X112850150Y-31079520D01*
X112872329Y-31069030D01*
X112895428Y-31060765D01*
X112919227Y-31054804D01*
X112943495Y-31051204D01*
X112967999Y-31050000D01*
X113618001Y-31050000D01*
X113642505Y-31051204D01*
G37*
%TD*%
%TO.C,C108*%
G36*
X111592505Y-29019204D02*
G01*
X111616773Y-29022804D01*
X111640572Y-29028765D01*
X111663671Y-29037030D01*
X111685850Y-29047520D01*
X111706893Y-29060132D01*
X111726599Y-29074747D01*
X111744777Y-29091223D01*
X111761253Y-29109401D01*
X111775868Y-29129107D01*
X111788480Y-29150150D01*
X111798970Y-29172329D01*
X111807235Y-29195428D01*
X111813196Y-29219227D01*
X111816796Y-29243495D01*
X111818000Y-29267999D01*
X111818000Y-30168001D01*
X111816796Y-30192505D01*
X111813196Y-30216773D01*
X111807235Y-30240572D01*
X111798970Y-30263671D01*
X111788480Y-30285850D01*
X111775868Y-30306893D01*
X111761253Y-30326599D01*
X111744777Y-30344777D01*
X111726599Y-30361253D01*
X111706893Y-30375868D01*
X111685850Y-30388480D01*
X111663671Y-30398970D01*
X111640572Y-30407235D01*
X111616773Y-30413196D01*
X111592505Y-30416796D01*
X111568001Y-30418000D01*
X110917999Y-30418000D01*
X110893495Y-30416796D01*
X110869227Y-30413196D01*
X110845428Y-30407235D01*
X110822329Y-30398970D01*
X110800150Y-30388480D01*
X110779107Y-30375868D01*
X110759401Y-30361253D01*
X110741223Y-30344777D01*
X110724747Y-30326599D01*
X110710132Y-30306893D01*
X110697520Y-30285850D01*
X110687030Y-30263671D01*
X110678765Y-30240572D01*
X110672804Y-30216773D01*
X110669204Y-30192505D01*
X110668000Y-30168001D01*
X110668000Y-29267999D01*
X110669204Y-29243495D01*
X110672804Y-29219227D01*
X110678765Y-29195428D01*
X110687030Y-29172329D01*
X110697520Y-29150150D01*
X110710132Y-29129107D01*
X110724747Y-29109401D01*
X110741223Y-29091223D01*
X110759401Y-29074747D01*
X110779107Y-29060132D01*
X110800150Y-29047520D01*
X110822329Y-29037030D01*
X110845428Y-29028765D01*
X110869227Y-29022804D01*
X110893495Y-29019204D01*
X110917999Y-29018000D01*
X111568001Y-29018000D01*
X111592505Y-29019204D01*
G37*
G36*
X113642505Y-29019204D02*
G01*
X113666773Y-29022804D01*
X113690572Y-29028765D01*
X113713671Y-29037030D01*
X113735850Y-29047520D01*
X113756893Y-29060132D01*
X113776599Y-29074747D01*
X113794777Y-29091223D01*
X113811253Y-29109401D01*
X113825868Y-29129107D01*
X113838480Y-29150150D01*
X113848970Y-29172329D01*
X113857235Y-29195428D01*
X113863196Y-29219227D01*
X113866796Y-29243495D01*
X113868000Y-29267999D01*
X113868000Y-30168001D01*
X113866796Y-30192505D01*
X113863196Y-30216773D01*
X113857235Y-30240572D01*
X113848970Y-30263671D01*
X113838480Y-30285850D01*
X113825868Y-30306893D01*
X113811253Y-30326599D01*
X113794777Y-30344777D01*
X113776599Y-30361253D01*
X113756893Y-30375868D01*
X113735850Y-30388480D01*
X113713671Y-30398970D01*
X113690572Y-30407235D01*
X113666773Y-30413196D01*
X113642505Y-30416796D01*
X113618001Y-30418000D01*
X112967999Y-30418000D01*
X112943495Y-30416796D01*
X112919227Y-30413196D01*
X112895428Y-30407235D01*
X112872329Y-30398970D01*
X112850150Y-30388480D01*
X112829107Y-30375868D01*
X112809401Y-30361253D01*
X112791223Y-30344777D01*
X112774747Y-30326599D01*
X112760132Y-30306893D01*
X112747520Y-30285850D01*
X112737030Y-30263671D01*
X112728765Y-30240572D01*
X112722804Y-30216773D01*
X112719204Y-30192505D01*
X112718000Y-30168001D01*
X112718000Y-29267999D01*
X112719204Y-29243495D01*
X112722804Y-29219227D01*
X112728765Y-29195428D01*
X112737030Y-29172329D01*
X112747520Y-29150150D01*
X112760132Y-29129107D01*
X112774747Y-29109401D01*
X112791223Y-29091223D01*
X112809401Y-29074747D01*
X112829107Y-29060132D01*
X112850150Y-29047520D01*
X112872329Y-29037030D01*
X112895428Y-29028765D01*
X112919227Y-29022804D01*
X112943495Y-29019204D01*
X112967999Y-29018000D01*
X113618001Y-29018000D01*
X113642505Y-29019204D01*
G37*
%TD*%
D11*
%TO.C,SW102*%
X135545000Y-65875000D03*
X140045000Y-65875000D03*
X140045000Y-57925000D03*
X135545000Y-57925000D03*
%TD*%
%TO.C,SW101*%
X135545000Y-33075000D03*
X140045000Y-33075000D03*
X140045000Y-25125000D03*
X135545000Y-25125000D03*
%TD*%
D10*
%TO.C,C107*%
G36*
X117822505Y-28137204D02*
G01*
X117846773Y-28140804D01*
X117870572Y-28146765D01*
X117893671Y-28155030D01*
X117915850Y-28165520D01*
X117936893Y-28178132D01*
X117956599Y-28192747D01*
X117974777Y-28209223D01*
X117991253Y-28227401D01*
X118005868Y-28247107D01*
X118018480Y-28268150D01*
X118028970Y-28290329D01*
X118037235Y-28313428D01*
X118043196Y-28337227D01*
X118046796Y-28361495D01*
X118048000Y-28385999D01*
X118048000Y-29036001D01*
X118046796Y-29060505D01*
X118043196Y-29084773D01*
X118037235Y-29108572D01*
X118028970Y-29131671D01*
X118018480Y-29153850D01*
X118005868Y-29174893D01*
X117991253Y-29194599D01*
X117974777Y-29212777D01*
X117956599Y-29229253D01*
X117936893Y-29243868D01*
X117915850Y-29256480D01*
X117893671Y-29266970D01*
X117870572Y-29275235D01*
X117846773Y-29281196D01*
X117822505Y-29284796D01*
X117798001Y-29286000D01*
X116897999Y-29286000D01*
X116873495Y-29284796D01*
X116849227Y-29281196D01*
X116825428Y-29275235D01*
X116802329Y-29266970D01*
X116780150Y-29256480D01*
X116759107Y-29243868D01*
X116739401Y-29229253D01*
X116721223Y-29212777D01*
X116704747Y-29194599D01*
X116690132Y-29174893D01*
X116677520Y-29153850D01*
X116667030Y-29131671D01*
X116658765Y-29108572D01*
X116652804Y-29084773D01*
X116649204Y-29060505D01*
X116648000Y-29036001D01*
X116648000Y-28385999D01*
X116649204Y-28361495D01*
X116652804Y-28337227D01*
X116658765Y-28313428D01*
X116667030Y-28290329D01*
X116677520Y-28268150D01*
X116690132Y-28247107D01*
X116704747Y-28227401D01*
X116721223Y-28209223D01*
X116739401Y-28192747D01*
X116759107Y-28178132D01*
X116780150Y-28165520D01*
X116802329Y-28155030D01*
X116825428Y-28146765D01*
X116849227Y-28140804D01*
X116873495Y-28137204D01*
X116897999Y-28136000D01*
X117798001Y-28136000D01*
X117822505Y-28137204D01*
G37*
G36*
X117822505Y-26087204D02*
G01*
X117846773Y-26090804D01*
X117870572Y-26096765D01*
X117893671Y-26105030D01*
X117915850Y-26115520D01*
X117936893Y-26128132D01*
X117956599Y-26142747D01*
X117974777Y-26159223D01*
X117991253Y-26177401D01*
X118005868Y-26197107D01*
X118018480Y-26218150D01*
X118028970Y-26240329D01*
X118037235Y-26263428D01*
X118043196Y-26287227D01*
X118046796Y-26311495D01*
X118048000Y-26335999D01*
X118048000Y-26986001D01*
X118046796Y-27010505D01*
X118043196Y-27034773D01*
X118037235Y-27058572D01*
X118028970Y-27081671D01*
X118018480Y-27103850D01*
X118005868Y-27124893D01*
X117991253Y-27144599D01*
X117974777Y-27162777D01*
X117956599Y-27179253D01*
X117936893Y-27193868D01*
X117915850Y-27206480D01*
X117893671Y-27216970D01*
X117870572Y-27225235D01*
X117846773Y-27231196D01*
X117822505Y-27234796D01*
X117798001Y-27236000D01*
X116897999Y-27236000D01*
X116873495Y-27234796D01*
X116849227Y-27231196D01*
X116825428Y-27225235D01*
X116802329Y-27216970D01*
X116780150Y-27206480D01*
X116759107Y-27193868D01*
X116739401Y-27179253D01*
X116721223Y-27162777D01*
X116704747Y-27144599D01*
X116690132Y-27124893D01*
X116677520Y-27103850D01*
X116667030Y-27081671D01*
X116658765Y-27058572D01*
X116652804Y-27034773D01*
X116649204Y-27010505D01*
X116648000Y-26986001D01*
X116648000Y-26335999D01*
X116649204Y-26311495D01*
X116652804Y-26287227D01*
X116658765Y-26263428D01*
X116667030Y-26240329D01*
X116677520Y-26218150D01*
X116690132Y-26197107D01*
X116704747Y-26177401D01*
X116721223Y-26159223D01*
X116739401Y-26142747D01*
X116759107Y-26128132D01*
X116780150Y-26115520D01*
X116802329Y-26105030D01*
X116825428Y-26096765D01*
X116849227Y-26090804D01*
X116873495Y-26087204D01*
X116897999Y-26086000D01*
X117798001Y-26086000D01*
X117822505Y-26087204D01*
G37*
%TD*%
%TO.C,U103*%
G36*
X121046703Y-29545722D02*
G01*
X121061264Y-29547882D01*
X121075543Y-29551459D01*
X121089403Y-29556418D01*
X121102710Y-29562712D01*
X121115336Y-29570280D01*
X121127159Y-29579048D01*
X121138066Y-29588934D01*
X121147952Y-29599841D01*
X121156720Y-29611664D01*
X121164288Y-29624290D01*
X121170582Y-29637597D01*
X121175541Y-29651457D01*
X121179118Y-29665736D01*
X121181278Y-29680297D01*
X121182000Y-29695000D01*
X121182000Y-29995000D01*
X121181278Y-30009703D01*
X121179118Y-30024264D01*
X121175541Y-30038543D01*
X121170582Y-30052403D01*
X121164288Y-30065710D01*
X121156720Y-30078336D01*
X121147952Y-30090159D01*
X121138066Y-30101066D01*
X121127159Y-30110952D01*
X121115336Y-30119720D01*
X121102710Y-30127288D01*
X121089403Y-30133582D01*
X121075543Y-30138541D01*
X121061264Y-30142118D01*
X121046703Y-30144278D01*
X121032000Y-30145000D01*
X119382000Y-30145000D01*
X119367297Y-30144278D01*
X119352736Y-30142118D01*
X119338457Y-30138541D01*
X119324597Y-30133582D01*
X119311290Y-30127288D01*
X119298664Y-30119720D01*
X119286841Y-30110952D01*
X119275934Y-30101066D01*
X119266048Y-30090159D01*
X119257280Y-30078336D01*
X119249712Y-30065710D01*
X119243418Y-30052403D01*
X119238459Y-30038543D01*
X119234882Y-30024264D01*
X119232722Y-30009703D01*
X119232000Y-29995000D01*
X119232000Y-29695000D01*
X119232722Y-29680297D01*
X119234882Y-29665736D01*
X119238459Y-29651457D01*
X119243418Y-29637597D01*
X119249712Y-29624290D01*
X119257280Y-29611664D01*
X119266048Y-29599841D01*
X119275934Y-29588934D01*
X119286841Y-29579048D01*
X119298664Y-29570280D01*
X119311290Y-29562712D01*
X119324597Y-29556418D01*
X119338457Y-29551459D01*
X119352736Y-29547882D01*
X119367297Y-29545722D01*
X119382000Y-29545000D01*
X121032000Y-29545000D01*
X121046703Y-29545722D01*
G37*
G36*
X121046703Y-28275722D02*
G01*
X121061264Y-28277882D01*
X121075543Y-28281459D01*
X121089403Y-28286418D01*
X121102710Y-28292712D01*
X121115336Y-28300280D01*
X121127159Y-28309048D01*
X121138066Y-28318934D01*
X121147952Y-28329841D01*
X121156720Y-28341664D01*
X121164288Y-28354290D01*
X121170582Y-28367597D01*
X121175541Y-28381457D01*
X121179118Y-28395736D01*
X121181278Y-28410297D01*
X121182000Y-28425000D01*
X121182000Y-28725000D01*
X121181278Y-28739703D01*
X121179118Y-28754264D01*
X121175541Y-28768543D01*
X121170582Y-28782403D01*
X121164288Y-28795710D01*
X121156720Y-28808336D01*
X121147952Y-28820159D01*
X121138066Y-28831066D01*
X121127159Y-28840952D01*
X121115336Y-28849720D01*
X121102710Y-28857288D01*
X121089403Y-28863582D01*
X121075543Y-28868541D01*
X121061264Y-28872118D01*
X121046703Y-28874278D01*
X121032000Y-28875000D01*
X119382000Y-28875000D01*
X119367297Y-28874278D01*
X119352736Y-28872118D01*
X119338457Y-28868541D01*
X119324597Y-28863582D01*
X119311290Y-28857288D01*
X119298664Y-28849720D01*
X119286841Y-28840952D01*
X119275934Y-28831066D01*
X119266048Y-28820159D01*
X119257280Y-28808336D01*
X119249712Y-28795710D01*
X119243418Y-28782403D01*
X119238459Y-28768543D01*
X119234882Y-28754264D01*
X119232722Y-28739703D01*
X119232000Y-28725000D01*
X119232000Y-28425000D01*
X119232722Y-28410297D01*
X119234882Y-28395736D01*
X119238459Y-28381457D01*
X119243418Y-28367597D01*
X119249712Y-28354290D01*
X119257280Y-28341664D01*
X119266048Y-28329841D01*
X119275934Y-28318934D01*
X119286841Y-28309048D01*
X119298664Y-28300280D01*
X119311290Y-28292712D01*
X119324597Y-28286418D01*
X119338457Y-28281459D01*
X119352736Y-28277882D01*
X119367297Y-28275722D01*
X119382000Y-28275000D01*
X121032000Y-28275000D01*
X121046703Y-28275722D01*
G37*
G36*
X121046703Y-27005722D02*
G01*
X121061264Y-27007882D01*
X121075543Y-27011459D01*
X121089403Y-27016418D01*
X121102710Y-27022712D01*
X121115336Y-27030280D01*
X121127159Y-27039048D01*
X121138066Y-27048934D01*
X121147952Y-27059841D01*
X121156720Y-27071664D01*
X121164288Y-27084290D01*
X121170582Y-27097597D01*
X121175541Y-27111457D01*
X121179118Y-27125736D01*
X121181278Y-27140297D01*
X121182000Y-27155000D01*
X121182000Y-27455000D01*
X121181278Y-27469703D01*
X121179118Y-27484264D01*
X121175541Y-27498543D01*
X121170582Y-27512403D01*
X121164288Y-27525710D01*
X121156720Y-27538336D01*
X121147952Y-27550159D01*
X121138066Y-27561066D01*
X121127159Y-27570952D01*
X121115336Y-27579720D01*
X121102710Y-27587288D01*
X121089403Y-27593582D01*
X121075543Y-27598541D01*
X121061264Y-27602118D01*
X121046703Y-27604278D01*
X121032000Y-27605000D01*
X119382000Y-27605000D01*
X119367297Y-27604278D01*
X119352736Y-27602118D01*
X119338457Y-27598541D01*
X119324597Y-27593582D01*
X119311290Y-27587288D01*
X119298664Y-27579720D01*
X119286841Y-27570952D01*
X119275934Y-27561066D01*
X119266048Y-27550159D01*
X119257280Y-27538336D01*
X119249712Y-27525710D01*
X119243418Y-27512403D01*
X119238459Y-27498543D01*
X119234882Y-27484264D01*
X119232722Y-27469703D01*
X119232000Y-27455000D01*
X119232000Y-27155000D01*
X119232722Y-27140297D01*
X119234882Y-27125736D01*
X119238459Y-27111457D01*
X119243418Y-27097597D01*
X119249712Y-27084290D01*
X119257280Y-27071664D01*
X119266048Y-27059841D01*
X119275934Y-27048934D01*
X119286841Y-27039048D01*
X119298664Y-27030280D01*
X119311290Y-27022712D01*
X119324597Y-27016418D01*
X119338457Y-27011459D01*
X119352736Y-27007882D01*
X119367297Y-27005722D01*
X119382000Y-27005000D01*
X121032000Y-27005000D01*
X121046703Y-27005722D01*
G37*
G36*
X121046703Y-25735722D02*
G01*
X121061264Y-25737882D01*
X121075543Y-25741459D01*
X121089403Y-25746418D01*
X121102710Y-25752712D01*
X121115336Y-25760280D01*
X121127159Y-25769048D01*
X121138066Y-25778934D01*
X121147952Y-25789841D01*
X121156720Y-25801664D01*
X121164288Y-25814290D01*
X121170582Y-25827597D01*
X121175541Y-25841457D01*
X121179118Y-25855736D01*
X121181278Y-25870297D01*
X121182000Y-25885000D01*
X121182000Y-26185000D01*
X121181278Y-26199703D01*
X121179118Y-26214264D01*
X121175541Y-26228543D01*
X121170582Y-26242403D01*
X121164288Y-26255710D01*
X121156720Y-26268336D01*
X121147952Y-26280159D01*
X121138066Y-26291066D01*
X121127159Y-26300952D01*
X121115336Y-26309720D01*
X121102710Y-26317288D01*
X121089403Y-26323582D01*
X121075543Y-26328541D01*
X121061264Y-26332118D01*
X121046703Y-26334278D01*
X121032000Y-26335000D01*
X119382000Y-26335000D01*
X119367297Y-26334278D01*
X119352736Y-26332118D01*
X119338457Y-26328541D01*
X119324597Y-26323582D01*
X119311290Y-26317288D01*
X119298664Y-26309720D01*
X119286841Y-26300952D01*
X119275934Y-26291066D01*
X119266048Y-26280159D01*
X119257280Y-26268336D01*
X119249712Y-26255710D01*
X119243418Y-26242403D01*
X119238459Y-26228543D01*
X119234882Y-26214264D01*
X119232722Y-26199703D01*
X119232000Y-26185000D01*
X119232000Y-25885000D01*
X119232722Y-25870297D01*
X119234882Y-25855736D01*
X119238459Y-25841457D01*
X119243418Y-25827597D01*
X119249712Y-25814290D01*
X119257280Y-25801664D01*
X119266048Y-25789841D01*
X119275934Y-25778934D01*
X119286841Y-25769048D01*
X119298664Y-25760280D01*
X119311290Y-25752712D01*
X119324597Y-25746418D01*
X119338457Y-25741459D01*
X119352736Y-25737882D01*
X119367297Y-25735722D01*
X119382000Y-25735000D01*
X121032000Y-25735000D01*
X121046703Y-25735722D01*
G37*
G36*
X125996703Y-25735722D02*
G01*
X126011264Y-25737882D01*
X126025543Y-25741459D01*
X126039403Y-25746418D01*
X126052710Y-25752712D01*
X126065336Y-25760280D01*
X126077159Y-25769048D01*
X126088066Y-25778934D01*
X126097952Y-25789841D01*
X126106720Y-25801664D01*
X126114288Y-25814290D01*
X126120582Y-25827597D01*
X126125541Y-25841457D01*
X126129118Y-25855736D01*
X126131278Y-25870297D01*
X126132000Y-25885000D01*
X126132000Y-26185000D01*
X126131278Y-26199703D01*
X126129118Y-26214264D01*
X126125541Y-26228543D01*
X126120582Y-26242403D01*
X126114288Y-26255710D01*
X126106720Y-26268336D01*
X126097952Y-26280159D01*
X126088066Y-26291066D01*
X126077159Y-26300952D01*
X126065336Y-26309720D01*
X126052710Y-26317288D01*
X126039403Y-26323582D01*
X126025543Y-26328541D01*
X126011264Y-26332118D01*
X125996703Y-26334278D01*
X125982000Y-26335000D01*
X124332000Y-26335000D01*
X124317297Y-26334278D01*
X124302736Y-26332118D01*
X124288457Y-26328541D01*
X124274597Y-26323582D01*
X124261290Y-26317288D01*
X124248664Y-26309720D01*
X124236841Y-26300952D01*
X124225934Y-26291066D01*
X124216048Y-26280159D01*
X124207280Y-26268336D01*
X124199712Y-26255710D01*
X124193418Y-26242403D01*
X124188459Y-26228543D01*
X124184882Y-26214264D01*
X124182722Y-26199703D01*
X124182000Y-26185000D01*
X124182000Y-25885000D01*
X124182722Y-25870297D01*
X124184882Y-25855736D01*
X124188459Y-25841457D01*
X124193418Y-25827597D01*
X124199712Y-25814290D01*
X124207280Y-25801664D01*
X124216048Y-25789841D01*
X124225934Y-25778934D01*
X124236841Y-25769048D01*
X124248664Y-25760280D01*
X124261290Y-25752712D01*
X124274597Y-25746418D01*
X124288457Y-25741459D01*
X124302736Y-25737882D01*
X124317297Y-25735722D01*
X124332000Y-25735000D01*
X125982000Y-25735000D01*
X125996703Y-25735722D01*
G37*
G36*
X125996703Y-27005722D02*
G01*
X126011264Y-27007882D01*
X126025543Y-27011459D01*
X126039403Y-27016418D01*
X126052710Y-27022712D01*
X126065336Y-27030280D01*
X126077159Y-27039048D01*
X126088066Y-27048934D01*
X126097952Y-27059841D01*
X126106720Y-27071664D01*
X126114288Y-27084290D01*
X126120582Y-27097597D01*
X126125541Y-27111457D01*
X126129118Y-27125736D01*
X126131278Y-27140297D01*
X126132000Y-27155000D01*
X126132000Y-27455000D01*
X126131278Y-27469703D01*
X126129118Y-27484264D01*
X126125541Y-27498543D01*
X126120582Y-27512403D01*
X126114288Y-27525710D01*
X126106720Y-27538336D01*
X126097952Y-27550159D01*
X126088066Y-27561066D01*
X126077159Y-27570952D01*
X126065336Y-27579720D01*
X126052710Y-27587288D01*
X126039403Y-27593582D01*
X126025543Y-27598541D01*
X126011264Y-27602118D01*
X125996703Y-27604278D01*
X125982000Y-27605000D01*
X124332000Y-27605000D01*
X124317297Y-27604278D01*
X124302736Y-27602118D01*
X124288457Y-27598541D01*
X124274597Y-27593582D01*
X124261290Y-27587288D01*
X124248664Y-27579720D01*
X124236841Y-27570952D01*
X124225934Y-27561066D01*
X124216048Y-27550159D01*
X124207280Y-27538336D01*
X124199712Y-27525710D01*
X124193418Y-27512403D01*
X124188459Y-27498543D01*
X124184882Y-27484264D01*
X124182722Y-27469703D01*
X124182000Y-27455000D01*
X124182000Y-27155000D01*
X124182722Y-27140297D01*
X124184882Y-27125736D01*
X124188459Y-27111457D01*
X124193418Y-27097597D01*
X124199712Y-27084290D01*
X124207280Y-27071664D01*
X124216048Y-27059841D01*
X124225934Y-27048934D01*
X124236841Y-27039048D01*
X124248664Y-27030280D01*
X124261290Y-27022712D01*
X124274597Y-27016418D01*
X124288457Y-27011459D01*
X124302736Y-27007882D01*
X124317297Y-27005722D01*
X124332000Y-27005000D01*
X125982000Y-27005000D01*
X125996703Y-27005722D01*
G37*
G36*
X125996703Y-28275722D02*
G01*
X126011264Y-28277882D01*
X126025543Y-28281459D01*
X126039403Y-28286418D01*
X126052710Y-28292712D01*
X126065336Y-28300280D01*
X126077159Y-28309048D01*
X126088066Y-28318934D01*
X126097952Y-28329841D01*
X126106720Y-28341664D01*
X126114288Y-28354290D01*
X126120582Y-28367597D01*
X126125541Y-28381457D01*
X126129118Y-28395736D01*
X126131278Y-28410297D01*
X126132000Y-28425000D01*
X126132000Y-28725000D01*
X126131278Y-28739703D01*
X126129118Y-28754264D01*
X126125541Y-28768543D01*
X126120582Y-28782403D01*
X126114288Y-28795710D01*
X126106720Y-28808336D01*
X126097952Y-28820159D01*
X126088066Y-28831066D01*
X126077159Y-28840952D01*
X126065336Y-28849720D01*
X126052710Y-28857288D01*
X126039403Y-28863582D01*
X126025543Y-28868541D01*
X126011264Y-28872118D01*
X125996703Y-28874278D01*
X125982000Y-28875000D01*
X124332000Y-28875000D01*
X124317297Y-28874278D01*
X124302736Y-28872118D01*
X124288457Y-28868541D01*
X124274597Y-28863582D01*
X124261290Y-28857288D01*
X124248664Y-28849720D01*
X124236841Y-28840952D01*
X124225934Y-28831066D01*
X124216048Y-28820159D01*
X124207280Y-28808336D01*
X124199712Y-28795710D01*
X124193418Y-28782403D01*
X124188459Y-28768543D01*
X124184882Y-28754264D01*
X124182722Y-28739703D01*
X124182000Y-28725000D01*
X124182000Y-28425000D01*
X124182722Y-28410297D01*
X124184882Y-28395736D01*
X124188459Y-28381457D01*
X124193418Y-28367597D01*
X124199712Y-28354290D01*
X124207280Y-28341664D01*
X124216048Y-28329841D01*
X124225934Y-28318934D01*
X124236841Y-28309048D01*
X124248664Y-28300280D01*
X124261290Y-28292712D01*
X124274597Y-28286418D01*
X124288457Y-28281459D01*
X124302736Y-28277882D01*
X124317297Y-28275722D01*
X124332000Y-28275000D01*
X125982000Y-28275000D01*
X125996703Y-28275722D01*
G37*
G36*
X125996703Y-29545722D02*
G01*
X126011264Y-29547882D01*
X126025543Y-29551459D01*
X126039403Y-29556418D01*
X126052710Y-29562712D01*
X126065336Y-29570280D01*
X126077159Y-29579048D01*
X126088066Y-29588934D01*
X126097952Y-29599841D01*
X126106720Y-29611664D01*
X126114288Y-29624290D01*
X126120582Y-29637597D01*
X126125541Y-29651457D01*
X126129118Y-29665736D01*
X126131278Y-29680297D01*
X126132000Y-29695000D01*
X126132000Y-29995000D01*
X126131278Y-30009703D01*
X126129118Y-30024264D01*
X126125541Y-30038543D01*
X126120582Y-30052403D01*
X126114288Y-30065710D01*
X126106720Y-30078336D01*
X126097952Y-30090159D01*
X126088066Y-30101066D01*
X126077159Y-30110952D01*
X126065336Y-30119720D01*
X126052710Y-30127288D01*
X126039403Y-30133582D01*
X126025543Y-30138541D01*
X126011264Y-30142118D01*
X125996703Y-30144278D01*
X125982000Y-30145000D01*
X124332000Y-30145000D01*
X124317297Y-30144278D01*
X124302736Y-30142118D01*
X124288457Y-30138541D01*
X124274597Y-30133582D01*
X124261290Y-30127288D01*
X124248664Y-30119720D01*
X124236841Y-30110952D01*
X124225934Y-30101066D01*
X124216048Y-30090159D01*
X124207280Y-30078336D01*
X124199712Y-30065710D01*
X124193418Y-30052403D01*
X124188459Y-30038543D01*
X124184882Y-30024264D01*
X124182722Y-30009703D01*
X124182000Y-29995000D01*
X124182000Y-29695000D01*
X124182722Y-29680297D01*
X124184882Y-29665736D01*
X124188459Y-29651457D01*
X124193418Y-29637597D01*
X124199712Y-29624290D01*
X124207280Y-29611664D01*
X124216048Y-29599841D01*
X124225934Y-29588934D01*
X124236841Y-29579048D01*
X124248664Y-29570280D01*
X124261290Y-29562712D01*
X124274597Y-29556418D01*
X124288457Y-29551459D01*
X124302736Y-29547882D01*
X124317297Y-29545722D01*
X124332000Y-29545000D01*
X125982000Y-29545000D01*
X125996703Y-29545722D01*
G37*
%TD*%
D12*
%TO.C,U102*%
X147902000Y-37866000D03*
X145902000Y-37866000D03*
X143902000Y-37866000D03*
X141902000Y-37866000D03*
X139902000Y-37866000D03*
X137902000Y-37866000D03*
X135902000Y-37866000D03*
X133902000Y-37866000D03*
X133902000Y-53066000D03*
X135902000Y-53066000D03*
X137902000Y-53066000D03*
X139902000Y-53066000D03*
X141902000Y-53066000D03*
X143902000Y-53066000D03*
X145902000Y-53066000D03*
X147902000Y-53066000D03*
%TD*%
M02*
