%TF.GenerationSoftware,KiCad,Pcbnew,(5.1.5)-3*%
%TF.CreationDate,2021-07-21T11:08:43+02:00*%
%TF.ProjectId,cece-pcb,63656365-2d70-4636-922e-6b696361645f,rev?*%
%TF.SameCoordinates,Original*%
%TF.FileFunction,Legend,Bot*%
%TF.FilePolarity,Positive*%
%FSLAX46Y46*%
G04 Gerber Fmt 4.6, Leading zero omitted, Abs format (unit mm)*
G04 Created by KiCad (PCBNEW (5.1.5)-3) date 2021-07-21 11:08:43*
%MOMM*%
%LPD*%
G04 APERTURE LIST*
%ADD10C,0.120000*%
%ADD11C,0.150000*%
G04 APERTURE END LIST*
D10*
%TO.C,R109*%
X121921748Y-59488000D02*
X122444252Y-59488000D01*
X121921748Y-60908000D02*
X122444252Y-60908000D01*
%TO.C,Q101*%
X118347617Y-65120264D02*
G75*
G03X118740000Y-65708000I2302383J1112264D01*
G01*
X118293600Y-62909193D02*
G75*
G02X120650000Y-61408000I2356400J-1098807D01*
G01*
X123006400Y-62909193D02*
G75*
G03X120650000Y-61408000I-2356400J-1098807D01*
G01*
X122972631Y-65130045D02*
G75*
G02X122590000Y-65708000I-2322631J1122045D01*
G01*
X122590000Y-65708000D02*
X118740000Y-65708000D01*
%TO.C,R106*%
X135815000Y-63126252D02*
X135815000Y-62603748D01*
X137235000Y-63126252D02*
X137235000Y-62603748D01*
%TO.C,C104*%
X133103252Y-41858000D02*
X132580748Y-41858000D01*
X133103252Y-40438000D02*
X132580748Y-40438000D01*
%TO.C,D102*%
X113624000Y-30464000D02*
X117474000Y-30464000D01*
X113624000Y-28464000D02*
X117474000Y-28464000D01*
X113624000Y-30464000D02*
X113624000Y-28464000D01*
%TO.C,J202*%
X114614000Y-75879000D02*
X114614000Y-74549000D01*
X113284000Y-75879000D02*
X114614000Y-75879000D01*
X112014000Y-75879000D02*
X112014000Y-73219000D01*
X112014000Y-73219000D02*
X106874000Y-73219000D01*
X112014000Y-75879000D02*
X106874000Y-75879000D01*
X106874000Y-75879000D02*
X106874000Y-73219000D01*
%TO.C,J103*%
X106874000Y-64300000D02*
X106874000Y-65630000D01*
X106874000Y-65630000D02*
X108204000Y-65630000D01*
X109474000Y-65630000D02*
X114614000Y-65630000D01*
X114614000Y-62970000D02*
X114614000Y-65630000D01*
X109474000Y-62970000D02*
X114614000Y-62970000D01*
X109474000Y-62970000D02*
X109474000Y-65630000D01*
%TO.C,D101*%
X114810000Y-27996000D02*
X116270000Y-27996000D01*
X114810000Y-24836000D02*
X116970000Y-24836000D01*
X114810000Y-24836000D02*
X114810000Y-25766000D01*
X114810000Y-27996000D02*
X114810000Y-27066000D01*
%TO.C,U101*%
X134452000Y-47360000D02*
X134452000Y-49810000D01*
X131232000Y-49160000D02*
X131232000Y-47360000D01*
%TO.C,RV201*%
X118124000Y-104505000D02*
X116760000Y-104505000D01*
X122000000Y-104505000D02*
X120636000Y-104505000D01*
X118124000Y-112245000D02*
X116760000Y-112245000D01*
X122000000Y-112245000D02*
X120636000Y-112245000D01*
X116760000Y-112245000D02*
X116760000Y-104505000D01*
X122000000Y-112245000D02*
X122000000Y-104505000D01*
%TO.C,R202*%
X146082000Y-83920000D02*
X146082000Y-83590000D01*
X152622000Y-83920000D02*
X146082000Y-83920000D01*
X152622000Y-83590000D02*
X152622000Y-83920000D01*
X146082000Y-81180000D02*
X146082000Y-81510000D01*
X152622000Y-81180000D02*
X146082000Y-81180000D01*
X152622000Y-81510000D02*
X152622000Y-81180000D01*
%TO.C,R107*%
X107390000Y-29710748D02*
X107390000Y-30233252D01*
X105970000Y-29710748D02*
X105970000Y-30233252D01*
%TO.C,R105*%
X109930000Y-29710748D02*
X109930000Y-30233252D01*
X108510000Y-29710748D02*
X108510000Y-30233252D01*
%TO.C,R104*%
X139199252Y-53288000D02*
X138676748Y-53288000D01*
X139199252Y-51868000D02*
X138676748Y-51868000D01*
%TO.C,R103*%
X139199252Y-50494000D02*
X138676748Y-50494000D01*
X139199252Y-49074000D02*
X138676748Y-49074000D01*
%TO.C,R102*%
X143009252Y-35254000D02*
X142486748Y-35254000D01*
X143009252Y-33834000D02*
X142486748Y-33834000D01*
%TO.C,R101*%
X143009252Y-38302000D02*
X142486748Y-38302000D01*
X143009252Y-36882000D02*
X142486748Y-36882000D01*
%TO.C,Q201*%
X152162383Y-85612736D02*
G75*
G03X151770000Y-85025000I-2302383J-1112264D01*
G01*
X152216400Y-87823807D02*
G75*
G02X149860000Y-89325000I-2356400J1098807D01*
G01*
X147503600Y-87823807D02*
G75*
G03X149860000Y-89325000I2356400J1098807D01*
G01*
X147537369Y-85602955D02*
G75*
G02X147920000Y-85025000I2322631J-1122045D01*
G01*
X147920000Y-85025000D02*
X151770000Y-85025000D01*
%TO.C,JP103*%
X146292000Y-40402000D02*
X143492000Y-40402000D01*
X143492000Y-40402000D02*
X143492000Y-42402000D01*
X143492000Y-42402000D02*
X146292000Y-42402000D01*
X146292000Y-42402000D02*
X146292000Y-40402000D01*
%TO.C,FB101*%
X134568000Y-37838748D02*
X134568000Y-38361252D01*
X133148000Y-37838748D02*
X133148000Y-38361252D01*
%TO.C,F201*%
X106918000Y-109505000D02*
X106918000Y-114745000D01*
X115158000Y-109505000D02*
X115158000Y-114745000D01*
X115158000Y-114745000D02*
X106918000Y-114745000D01*
X115158000Y-109505000D02*
X106918000Y-109505000D01*
%TO.C,D203*%
X136045000Y-82035000D02*
X128745000Y-82035000D01*
X136045000Y-86335000D02*
X128745000Y-86335000D01*
X136045000Y-82035000D02*
X136045000Y-86335000D01*
%TO.C,D201*%
X156245000Y-90335000D02*
X156245000Y-93275000D01*
X156005000Y-90335000D02*
X156005000Y-93275000D01*
X156125000Y-90335000D02*
X156125000Y-93275000D01*
X151585000Y-93275000D02*
X151585000Y-93145000D01*
X157025000Y-93275000D02*
X151585000Y-93275000D01*
X157025000Y-93145000D02*
X157025000Y-93275000D01*
X151585000Y-90335000D02*
X151585000Y-90465000D01*
X157025000Y-90335000D02*
X151585000Y-90335000D01*
X157025000Y-90465000D02*
X157025000Y-90335000D01*
%TO.C,C106*%
X111962000Y-29710748D02*
X111962000Y-30233252D01*
X110542000Y-29710748D02*
X110542000Y-30233252D01*
%TO.C,C105*%
X103938000Y-30233252D02*
X103938000Y-29710748D01*
X105358000Y-30233252D02*
X105358000Y-29710748D01*
%TO.C,C103*%
X133103252Y-43890000D02*
X132580748Y-43890000D01*
X133103252Y-42470000D02*
X132580748Y-42470000D01*
%TO.C,C102*%
X133103252Y-45922000D02*
X132580748Y-45922000D01*
X133103252Y-44502000D02*
X132580748Y-44502000D01*
%TO.C,C101*%
X132589748Y-50852000D02*
X133112252Y-50852000D01*
X132589748Y-52272000D02*
X133112252Y-52272000D01*
%TO.C,R109*%
D11*
X119483047Y-60650380D02*
X119816380Y-60174190D01*
X120054476Y-60650380D02*
X120054476Y-59650380D01*
X119673523Y-59650380D01*
X119578285Y-59698000D01*
X119530666Y-59745619D01*
X119483047Y-59840857D01*
X119483047Y-59983714D01*
X119530666Y-60078952D01*
X119578285Y-60126571D01*
X119673523Y-60174190D01*
X120054476Y-60174190D01*
X118530666Y-60650380D02*
X119102095Y-60650380D01*
X118816380Y-60650380D02*
X118816380Y-59650380D01*
X118911619Y-59793238D01*
X119006857Y-59888476D01*
X119102095Y-59936095D01*
X117911619Y-59650380D02*
X117816380Y-59650380D01*
X117721142Y-59698000D01*
X117673523Y-59745619D01*
X117625904Y-59840857D01*
X117578285Y-60031333D01*
X117578285Y-60269428D01*
X117625904Y-60459904D01*
X117673523Y-60555142D01*
X117721142Y-60602761D01*
X117816380Y-60650380D01*
X117911619Y-60650380D01*
X118006857Y-60602761D01*
X118054476Y-60555142D01*
X118102095Y-60459904D01*
X118149714Y-60269428D01*
X118149714Y-60031333D01*
X118102095Y-59840857D01*
X118054476Y-59745619D01*
X118006857Y-59698000D01*
X117911619Y-59650380D01*
X117102095Y-60650380D02*
X116911619Y-60650380D01*
X116816380Y-60602761D01*
X116768761Y-60555142D01*
X116673523Y-60412285D01*
X116625904Y-60221809D01*
X116625904Y-59840857D01*
X116673523Y-59745619D01*
X116721142Y-59698000D01*
X116816380Y-59650380D01*
X117006857Y-59650380D01*
X117102095Y-59698000D01*
X117149714Y-59745619D01*
X117197333Y-59840857D01*
X117197333Y-60078952D01*
X117149714Y-60174190D01*
X117102095Y-60221809D01*
X117006857Y-60269428D01*
X116816380Y-60269428D01*
X116721142Y-60221809D01*
X116673523Y-60174190D01*
X116625904Y-60078952D01*
%TO.C,Q101*%
X126269619Y-62523619D02*
X126364857Y-62476000D01*
X126460095Y-62380761D01*
X126602952Y-62237904D01*
X126698190Y-62190285D01*
X126793428Y-62190285D01*
X126745809Y-62428380D02*
X126841047Y-62380761D01*
X126936285Y-62285523D01*
X126983904Y-62095047D01*
X126983904Y-61761714D01*
X126936285Y-61571238D01*
X126841047Y-61476000D01*
X126745809Y-61428380D01*
X126555333Y-61428380D01*
X126460095Y-61476000D01*
X126364857Y-61571238D01*
X126317238Y-61761714D01*
X126317238Y-62095047D01*
X126364857Y-62285523D01*
X126460095Y-62380761D01*
X126555333Y-62428380D01*
X126745809Y-62428380D01*
X125364857Y-62428380D02*
X125936285Y-62428380D01*
X125650571Y-62428380D02*
X125650571Y-61428380D01*
X125745809Y-61571238D01*
X125841047Y-61666476D01*
X125936285Y-61714095D01*
X124745809Y-61428380D02*
X124650571Y-61428380D01*
X124555333Y-61476000D01*
X124507714Y-61523619D01*
X124460095Y-61618857D01*
X124412476Y-61809333D01*
X124412476Y-62047428D01*
X124460095Y-62237904D01*
X124507714Y-62333142D01*
X124555333Y-62380761D01*
X124650571Y-62428380D01*
X124745809Y-62428380D01*
X124841047Y-62380761D01*
X124888666Y-62333142D01*
X124936285Y-62237904D01*
X124983904Y-62047428D01*
X124983904Y-61809333D01*
X124936285Y-61618857D01*
X124888666Y-61523619D01*
X124841047Y-61476000D01*
X124745809Y-61428380D01*
X123460095Y-62428380D02*
X124031523Y-62428380D01*
X123745809Y-62428380D02*
X123745809Y-61428380D01*
X123841047Y-61571238D01*
X123936285Y-61666476D01*
X124031523Y-61714095D01*
%TO.C,R106*%
X135453380Y-61745952D02*
X134977190Y-61412619D01*
X135453380Y-61174523D02*
X134453380Y-61174523D01*
X134453380Y-61555476D01*
X134501000Y-61650714D01*
X134548619Y-61698333D01*
X134643857Y-61745952D01*
X134786714Y-61745952D01*
X134881952Y-61698333D01*
X134929571Y-61650714D01*
X134977190Y-61555476D01*
X134977190Y-61174523D01*
X135453380Y-62698333D02*
X135453380Y-62126904D01*
X135453380Y-62412619D02*
X134453380Y-62412619D01*
X134596238Y-62317380D01*
X134691476Y-62222142D01*
X134739095Y-62126904D01*
X134453380Y-63317380D02*
X134453380Y-63412619D01*
X134501000Y-63507857D01*
X134548619Y-63555476D01*
X134643857Y-63603095D01*
X134834333Y-63650714D01*
X135072428Y-63650714D01*
X135262904Y-63603095D01*
X135358142Y-63555476D01*
X135405761Y-63507857D01*
X135453380Y-63412619D01*
X135453380Y-63317380D01*
X135405761Y-63222142D01*
X135358142Y-63174523D01*
X135262904Y-63126904D01*
X135072428Y-63079285D01*
X134834333Y-63079285D01*
X134643857Y-63126904D01*
X134548619Y-63174523D01*
X134501000Y-63222142D01*
X134453380Y-63317380D01*
X134453380Y-64507857D02*
X134453380Y-64317380D01*
X134501000Y-64222142D01*
X134548619Y-64174523D01*
X134691476Y-64079285D01*
X134881952Y-64031666D01*
X135262904Y-64031666D01*
X135358142Y-64079285D01*
X135405761Y-64126904D01*
X135453380Y-64222142D01*
X135453380Y-64412619D01*
X135405761Y-64507857D01*
X135358142Y-64555476D01*
X135262904Y-64603095D01*
X135024809Y-64603095D01*
X134929571Y-64555476D01*
X134881952Y-64507857D01*
X134834333Y-64412619D01*
X134834333Y-64222142D01*
X134881952Y-64126904D01*
X134929571Y-64079285D01*
X135024809Y-64031666D01*
%TO.C,C104*%
X128881047Y-41759142D02*
X128928666Y-41806761D01*
X129071523Y-41854380D01*
X129166761Y-41854380D01*
X129309619Y-41806761D01*
X129404857Y-41711523D01*
X129452476Y-41616285D01*
X129500095Y-41425809D01*
X129500095Y-41282952D01*
X129452476Y-41092476D01*
X129404857Y-40997238D01*
X129309619Y-40902000D01*
X129166761Y-40854380D01*
X129071523Y-40854380D01*
X128928666Y-40902000D01*
X128881047Y-40949619D01*
X127928666Y-41854380D02*
X128500095Y-41854380D01*
X128214380Y-41854380D02*
X128214380Y-40854380D01*
X128309619Y-40997238D01*
X128404857Y-41092476D01*
X128500095Y-41140095D01*
X127309619Y-40854380D02*
X127214380Y-40854380D01*
X127119142Y-40902000D01*
X127071523Y-40949619D01*
X127023904Y-41044857D01*
X126976285Y-41235333D01*
X126976285Y-41473428D01*
X127023904Y-41663904D01*
X127071523Y-41759142D01*
X127119142Y-41806761D01*
X127214380Y-41854380D01*
X127309619Y-41854380D01*
X127404857Y-41806761D01*
X127452476Y-41759142D01*
X127500095Y-41663904D01*
X127547714Y-41473428D01*
X127547714Y-41235333D01*
X127500095Y-41044857D01*
X127452476Y-40949619D01*
X127404857Y-40902000D01*
X127309619Y-40854380D01*
X126119142Y-41187714D02*
X126119142Y-41854380D01*
X126357238Y-40806761D02*
X126595333Y-41521047D01*
X125976285Y-41521047D01*
%TO.C,D102*%
X121832476Y-29916380D02*
X121832476Y-28916380D01*
X121594380Y-28916380D01*
X121451523Y-28964000D01*
X121356285Y-29059238D01*
X121308666Y-29154476D01*
X121261047Y-29344952D01*
X121261047Y-29487809D01*
X121308666Y-29678285D01*
X121356285Y-29773523D01*
X121451523Y-29868761D01*
X121594380Y-29916380D01*
X121832476Y-29916380D01*
X120308666Y-29916380D02*
X120880095Y-29916380D01*
X120594380Y-29916380D02*
X120594380Y-28916380D01*
X120689619Y-29059238D01*
X120784857Y-29154476D01*
X120880095Y-29202095D01*
X119689619Y-28916380D02*
X119594380Y-28916380D01*
X119499142Y-28964000D01*
X119451523Y-29011619D01*
X119403904Y-29106857D01*
X119356285Y-29297333D01*
X119356285Y-29535428D01*
X119403904Y-29725904D01*
X119451523Y-29821142D01*
X119499142Y-29868761D01*
X119594380Y-29916380D01*
X119689619Y-29916380D01*
X119784857Y-29868761D01*
X119832476Y-29821142D01*
X119880095Y-29725904D01*
X119927714Y-29535428D01*
X119927714Y-29297333D01*
X119880095Y-29106857D01*
X119832476Y-29011619D01*
X119784857Y-28964000D01*
X119689619Y-28916380D01*
X118975333Y-29011619D02*
X118927714Y-28964000D01*
X118832476Y-28916380D01*
X118594380Y-28916380D01*
X118499142Y-28964000D01*
X118451523Y-29011619D01*
X118403904Y-29106857D01*
X118403904Y-29202095D01*
X118451523Y-29344952D01*
X119022952Y-29916380D01*
X118403904Y-29916380D01*
%TO.C,J202*%
X116161619Y-75834714D02*
X115447333Y-75834714D01*
X115304476Y-75882333D01*
X115209238Y-75977571D01*
X115161619Y-76120428D01*
X115161619Y-76215666D01*
X116066380Y-75406142D02*
X116114000Y-75358523D01*
X116161619Y-75263285D01*
X116161619Y-75025190D01*
X116114000Y-74929952D01*
X116066380Y-74882333D01*
X115971142Y-74834714D01*
X115875904Y-74834714D01*
X115733047Y-74882333D01*
X115161619Y-75453761D01*
X115161619Y-74834714D01*
X116161619Y-74215666D02*
X116161619Y-74120428D01*
X116114000Y-74025190D01*
X116066380Y-73977571D01*
X115971142Y-73929952D01*
X115780666Y-73882333D01*
X115542571Y-73882333D01*
X115352095Y-73929952D01*
X115256857Y-73977571D01*
X115209238Y-74025190D01*
X115161619Y-74120428D01*
X115161619Y-74215666D01*
X115209238Y-74310904D01*
X115256857Y-74358523D01*
X115352095Y-74406142D01*
X115542571Y-74453761D01*
X115780666Y-74453761D01*
X115971142Y-74406142D01*
X116066380Y-74358523D01*
X116114000Y-74310904D01*
X116161619Y-74215666D01*
X116066380Y-73501380D02*
X116114000Y-73453761D01*
X116161619Y-73358523D01*
X116161619Y-73120428D01*
X116114000Y-73025190D01*
X116066380Y-72977571D01*
X115971142Y-72929952D01*
X115875904Y-72929952D01*
X115733047Y-72977571D01*
X115161619Y-73549000D01*
X115161619Y-72929952D01*
%TO.C,J103*%
X104886380Y-63014285D02*
X105600666Y-63014285D01*
X105743523Y-62966666D01*
X105838761Y-62871428D01*
X105886380Y-62728571D01*
X105886380Y-62633333D01*
X105886380Y-64014285D02*
X105886380Y-63442857D01*
X105886380Y-63728571D02*
X104886380Y-63728571D01*
X105029238Y-63633333D01*
X105124476Y-63538095D01*
X105172095Y-63442857D01*
X104886380Y-64633333D02*
X104886380Y-64728571D01*
X104934000Y-64823809D01*
X104981619Y-64871428D01*
X105076857Y-64919047D01*
X105267333Y-64966666D01*
X105505428Y-64966666D01*
X105695904Y-64919047D01*
X105791142Y-64871428D01*
X105838761Y-64823809D01*
X105886380Y-64728571D01*
X105886380Y-64633333D01*
X105838761Y-64538095D01*
X105791142Y-64490476D01*
X105695904Y-64442857D01*
X105505428Y-64395238D01*
X105267333Y-64395238D01*
X105076857Y-64442857D01*
X104981619Y-64490476D01*
X104934000Y-64538095D01*
X104886380Y-64633333D01*
X104886380Y-65300000D02*
X104886380Y-65919047D01*
X105267333Y-65585714D01*
X105267333Y-65728571D01*
X105314952Y-65823809D01*
X105362571Y-65871428D01*
X105457809Y-65919047D01*
X105695904Y-65919047D01*
X105791142Y-65871428D01*
X105838761Y-65823809D01*
X105886380Y-65728571D01*
X105886380Y-65442857D01*
X105838761Y-65347619D01*
X105791142Y-65300000D01*
%TO.C,D101*%
X119832380Y-24979523D02*
X118832380Y-24979523D01*
X118832380Y-25217619D01*
X118880000Y-25360476D01*
X118975238Y-25455714D01*
X119070476Y-25503333D01*
X119260952Y-25550952D01*
X119403809Y-25550952D01*
X119594285Y-25503333D01*
X119689523Y-25455714D01*
X119784761Y-25360476D01*
X119832380Y-25217619D01*
X119832380Y-24979523D01*
X119832380Y-26503333D02*
X119832380Y-25931904D01*
X119832380Y-26217619D02*
X118832380Y-26217619D01*
X118975238Y-26122380D01*
X119070476Y-26027142D01*
X119118095Y-25931904D01*
X118832380Y-27122380D02*
X118832380Y-27217619D01*
X118880000Y-27312857D01*
X118927619Y-27360476D01*
X119022857Y-27408095D01*
X119213333Y-27455714D01*
X119451428Y-27455714D01*
X119641904Y-27408095D01*
X119737142Y-27360476D01*
X119784761Y-27312857D01*
X119832380Y-27217619D01*
X119832380Y-27122380D01*
X119784761Y-27027142D01*
X119737142Y-26979523D01*
X119641904Y-26931904D01*
X119451428Y-26884285D01*
X119213333Y-26884285D01*
X119022857Y-26931904D01*
X118927619Y-26979523D01*
X118880000Y-27027142D01*
X118832380Y-27122380D01*
X119832380Y-28408095D02*
X119832380Y-27836666D01*
X119832380Y-28122380D02*
X118832380Y-28122380D01*
X118975238Y-28027142D01*
X119070476Y-27931904D01*
X119118095Y-27836666D01*
%TO.C,U101*%
X128484380Y-46545714D02*
X129293904Y-46545714D01*
X129389142Y-46593333D01*
X129436761Y-46640952D01*
X129484380Y-46736190D01*
X129484380Y-46926666D01*
X129436761Y-47021904D01*
X129389142Y-47069523D01*
X129293904Y-47117142D01*
X128484380Y-47117142D01*
X129484380Y-48117142D02*
X129484380Y-47545714D01*
X129484380Y-47831428D02*
X128484380Y-47831428D01*
X128627238Y-47736190D01*
X128722476Y-47640952D01*
X128770095Y-47545714D01*
X128484380Y-48736190D02*
X128484380Y-48831428D01*
X128532000Y-48926666D01*
X128579619Y-48974285D01*
X128674857Y-49021904D01*
X128865333Y-49069523D01*
X129103428Y-49069523D01*
X129293904Y-49021904D01*
X129389142Y-48974285D01*
X129436761Y-48926666D01*
X129484380Y-48831428D01*
X129484380Y-48736190D01*
X129436761Y-48640952D01*
X129389142Y-48593333D01*
X129293904Y-48545714D01*
X129103428Y-48498095D01*
X128865333Y-48498095D01*
X128674857Y-48545714D01*
X128579619Y-48593333D01*
X128532000Y-48640952D01*
X128484380Y-48736190D01*
X129484380Y-50021904D02*
X129484380Y-49450476D01*
X129484380Y-49736190D02*
X128484380Y-49736190D01*
X128627238Y-49640952D01*
X128722476Y-49545714D01*
X128770095Y-49450476D01*
%TO.C,RV201*%
X123652380Y-107652380D02*
X123176190Y-107319047D01*
X123652380Y-107080952D02*
X122652380Y-107080952D01*
X122652380Y-107461904D01*
X122700000Y-107557142D01*
X122747619Y-107604761D01*
X122842857Y-107652380D01*
X122985714Y-107652380D01*
X123080952Y-107604761D01*
X123128571Y-107557142D01*
X123176190Y-107461904D01*
X123176190Y-107080952D01*
X122652380Y-107938095D02*
X123652380Y-108271428D01*
X122652380Y-108604761D01*
X122747619Y-108890476D02*
X122700000Y-108938095D01*
X122652380Y-109033333D01*
X122652380Y-109271428D01*
X122700000Y-109366666D01*
X122747619Y-109414285D01*
X122842857Y-109461904D01*
X122938095Y-109461904D01*
X123080952Y-109414285D01*
X123652380Y-108842857D01*
X123652380Y-109461904D01*
X122652380Y-110080952D02*
X122652380Y-110176190D01*
X122700000Y-110271428D01*
X122747619Y-110319047D01*
X122842857Y-110366666D01*
X123033333Y-110414285D01*
X123271428Y-110414285D01*
X123461904Y-110366666D01*
X123557142Y-110319047D01*
X123604761Y-110271428D01*
X123652380Y-110176190D01*
X123652380Y-110080952D01*
X123604761Y-109985714D01*
X123557142Y-109938095D01*
X123461904Y-109890476D01*
X123271428Y-109842857D01*
X123033333Y-109842857D01*
X122842857Y-109890476D01*
X122747619Y-109938095D01*
X122700000Y-109985714D01*
X122652380Y-110080952D01*
X123652380Y-111366666D02*
X123652380Y-110795238D01*
X123652380Y-111080952D02*
X122652380Y-111080952D01*
X122795238Y-110985714D01*
X122890476Y-110890476D01*
X122938095Y-110795238D01*
%TO.C,R202*%
X150471047Y-80716380D02*
X150804380Y-80240190D01*
X151042476Y-80716380D02*
X151042476Y-79716380D01*
X150661523Y-79716380D01*
X150566285Y-79764000D01*
X150518666Y-79811619D01*
X150471047Y-79906857D01*
X150471047Y-80049714D01*
X150518666Y-80144952D01*
X150566285Y-80192571D01*
X150661523Y-80240190D01*
X151042476Y-80240190D01*
X150090095Y-79811619D02*
X150042476Y-79764000D01*
X149947238Y-79716380D01*
X149709142Y-79716380D01*
X149613904Y-79764000D01*
X149566285Y-79811619D01*
X149518666Y-79906857D01*
X149518666Y-80002095D01*
X149566285Y-80144952D01*
X150137714Y-80716380D01*
X149518666Y-80716380D01*
X148899619Y-79716380D02*
X148804380Y-79716380D01*
X148709142Y-79764000D01*
X148661523Y-79811619D01*
X148613904Y-79906857D01*
X148566285Y-80097333D01*
X148566285Y-80335428D01*
X148613904Y-80525904D01*
X148661523Y-80621142D01*
X148709142Y-80668761D01*
X148804380Y-80716380D01*
X148899619Y-80716380D01*
X148994857Y-80668761D01*
X149042476Y-80621142D01*
X149090095Y-80525904D01*
X149137714Y-80335428D01*
X149137714Y-80097333D01*
X149090095Y-79906857D01*
X149042476Y-79811619D01*
X148994857Y-79764000D01*
X148899619Y-79716380D01*
X148185333Y-79811619D02*
X148137714Y-79764000D01*
X148042476Y-79716380D01*
X147804380Y-79716380D01*
X147709142Y-79764000D01*
X147661523Y-79811619D01*
X147613904Y-79906857D01*
X147613904Y-80002095D01*
X147661523Y-80144952D01*
X148232952Y-80716380D01*
X147613904Y-80716380D01*
%TO.C,R107*%
X104084380Y-33170952D02*
X103608190Y-32837619D01*
X104084380Y-32599523D02*
X103084380Y-32599523D01*
X103084380Y-32980476D01*
X103132000Y-33075714D01*
X103179619Y-33123333D01*
X103274857Y-33170952D01*
X103417714Y-33170952D01*
X103512952Y-33123333D01*
X103560571Y-33075714D01*
X103608190Y-32980476D01*
X103608190Y-32599523D01*
X104084380Y-34123333D02*
X104084380Y-33551904D01*
X104084380Y-33837619D02*
X103084380Y-33837619D01*
X103227238Y-33742380D01*
X103322476Y-33647142D01*
X103370095Y-33551904D01*
X103084380Y-34742380D02*
X103084380Y-34837619D01*
X103132000Y-34932857D01*
X103179619Y-34980476D01*
X103274857Y-35028095D01*
X103465333Y-35075714D01*
X103703428Y-35075714D01*
X103893904Y-35028095D01*
X103989142Y-34980476D01*
X104036761Y-34932857D01*
X104084380Y-34837619D01*
X104084380Y-34742380D01*
X104036761Y-34647142D01*
X103989142Y-34599523D01*
X103893904Y-34551904D01*
X103703428Y-34504285D01*
X103465333Y-34504285D01*
X103274857Y-34551904D01*
X103179619Y-34599523D01*
X103132000Y-34647142D01*
X103084380Y-34742380D01*
X103084380Y-35409047D02*
X103084380Y-36075714D01*
X104084380Y-35647142D01*
%TO.C,R105*%
X109926380Y-32662952D02*
X109450190Y-32329619D01*
X109926380Y-32091523D02*
X108926380Y-32091523D01*
X108926380Y-32472476D01*
X108974000Y-32567714D01*
X109021619Y-32615333D01*
X109116857Y-32662952D01*
X109259714Y-32662952D01*
X109354952Y-32615333D01*
X109402571Y-32567714D01*
X109450190Y-32472476D01*
X109450190Y-32091523D01*
X109926380Y-33615333D02*
X109926380Y-33043904D01*
X109926380Y-33329619D02*
X108926380Y-33329619D01*
X109069238Y-33234380D01*
X109164476Y-33139142D01*
X109212095Y-33043904D01*
X108926380Y-34234380D02*
X108926380Y-34329619D01*
X108974000Y-34424857D01*
X109021619Y-34472476D01*
X109116857Y-34520095D01*
X109307333Y-34567714D01*
X109545428Y-34567714D01*
X109735904Y-34520095D01*
X109831142Y-34472476D01*
X109878761Y-34424857D01*
X109926380Y-34329619D01*
X109926380Y-34234380D01*
X109878761Y-34139142D01*
X109831142Y-34091523D01*
X109735904Y-34043904D01*
X109545428Y-33996285D01*
X109307333Y-33996285D01*
X109116857Y-34043904D01*
X109021619Y-34091523D01*
X108974000Y-34139142D01*
X108926380Y-34234380D01*
X108926380Y-35472476D02*
X108926380Y-34996285D01*
X109402571Y-34948666D01*
X109354952Y-34996285D01*
X109307333Y-35091523D01*
X109307333Y-35329619D01*
X109354952Y-35424857D01*
X109402571Y-35472476D01*
X109497809Y-35520095D01*
X109735904Y-35520095D01*
X109831142Y-35472476D01*
X109878761Y-35424857D01*
X109926380Y-35329619D01*
X109926380Y-35091523D01*
X109878761Y-34996285D01*
X109831142Y-34948666D01*
%TO.C,R104*%
X144375047Y-53030380D02*
X144708380Y-52554190D01*
X144946476Y-53030380D02*
X144946476Y-52030380D01*
X144565523Y-52030380D01*
X144470285Y-52078000D01*
X144422666Y-52125619D01*
X144375047Y-52220857D01*
X144375047Y-52363714D01*
X144422666Y-52458952D01*
X144470285Y-52506571D01*
X144565523Y-52554190D01*
X144946476Y-52554190D01*
X143422666Y-53030380D02*
X143994095Y-53030380D01*
X143708380Y-53030380D02*
X143708380Y-52030380D01*
X143803619Y-52173238D01*
X143898857Y-52268476D01*
X143994095Y-52316095D01*
X142803619Y-52030380D02*
X142708380Y-52030380D01*
X142613142Y-52078000D01*
X142565523Y-52125619D01*
X142517904Y-52220857D01*
X142470285Y-52411333D01*
X142470285Y-52649428D01*
X142517904Y-52839904D01*
X142565523Y-52935142D01*
X142613142Y-52982761D01*
X142708380Y-53030380D01*
X142803619Y-53030380D01*
X142898857Y-52982761D01*
X142946476Y-52935142D01*
X142994095Y-52839904D01*
X143041714Y-52649428D01*
X143041714Y-52411333D01*
X142994095Y-52220857D01*
X142946476Y-52125619D01*
X142898857Y-52078000D01*
X142803619Y-52030380D01*
X141613142Y-52363714D02*
X141613142Y-53030380D01*
X141851238Y-51982761D02*
X142089333Y-52697047D01*
X141470285Y-52697047D01*
%TO.C,R103*%
X144375047Y-50236380D02*
X144708380Y-49760190D01*
X144946476Y-50236380D02*
X144946476Y-49236380D01*
X144565523Y-49236380D01*
X144470285Y-49284000D01*
X144422666Y-49331619D01*
X144375047Y-49426857D01*
X144375047Y-49569714D01*
X144422666Y-49664952D01*
X144470285Y-49712571D01*
X144565523Y-49760190D01*
X144946476Y-49760190D01*
X143422666Y-50236380D02*
X143994095Y-50236380D01*
X143708380Y-50236380D02*
X143708380Y-49236380D01*
X143803619Y-49379238D01*
X143898857Y-49474476D01*
X143994095Y-49522095D01*
X142803619Y-49236380D02*
X142708380Y-49236380D01*
X142613142Y-49284000D01*
X142565523Y-49331619D01*
X142517904Y-49426857D01*
X142470285Y-49617333D01*
X142470285Y-49855428D01*
X142517904Y-50045904D01*
X142565523Y-50141142D01*
X142613142Y-50188761D01*
X142708380Y-50236380D01*
X142803619Y-50236380D01*
X142898857Y-50188761D01*
X142946476Y-50141142D01*
X142994095Y-50045904D01*
X143041714Y-49855428D01*
X143041714Y-49617333D01*
X142994095Y-49426857D01*
X142946476Y-49331619D01*
X142898857Y-49284000D01*
X142803619Y-49236380D01*
X142136952Y-49236380D02*
X141517904Y-49236380D01*
X141851238Y-49617333D01*
X141708380Y-49617333D01*
X141613142Y-49664952D01*
X141565523Y-49712571D01*
X141517904Y-49807809D01*
X141517904Y-50045904D01*
X141565523Y-50141142D01*
X141613142Y-50188761D01*
X141708380Y-50236380D01*
X141994095Y-50236380D01*
X142089333Y-50188761D01*
X142136952Y-50141142D01*
%TO.C,R102*%
X140057047Y-34996380D02*
X140390380Y-34520190D01*
X140628476Y-34996380D02*
X140628476Y-33996380D01*
X140247523Y-33996380D01*
X140152285Y-34044000D01*
X140104666Y-34091619D01*
X140057047Y-34186857D01*
X140057047Y-34329714D01*
X140104666Y-34424952D01*
X140152285Y-34472571D01*
X140247523Y-34520190D01*
X140628476Y-34520190D01*
X139104666Y-34996380D02*
X139676095Y-34996380D01*
X139390380Y-34996380D02*
X139390380Y-33996380D01*
X139485619Y-34139238D01*
X139580857Y-34234476D01*
X139676095Y-34282095D01*
X138485619Y-33996380D02*
X138390380Y-33996380D01*
X138295142Y-34044000D01*
X138247523Y-34091619D01*
X138199904Y-34186857D01*
X138152285Y-34377333D01*
X138152285Y-34615428D01*
X138199904Y-34805904D01*
X138247523Y-34901142D01*
X138295142Y-34948761D01*
X138390380Y-34996380D01*
X138485619Y-34996380D01*
X138580857Y-34948761D01*
X138628476Y-34901142D01*
X138676095Y-34805904D01*
X138723714Y-34615428D01*
X138723714Y-34377333D01*
X138676095Y-34186857D01*
X138628476Y-34091619D01*
X138580857Y-34044000D01*
X138485619Y-33996380D01*
X137771333Y-34091619D02*
X137723714Y-34044000D01*
X137628476Y-33996380D01*
X137390380Y-33996380D01*
X137295142Y-34044000D01*
X137247523Y-34091619D01*
X137199904Y-34186857D01*
X137199904Y-34282095D01*
X137247523Y-34424952D01*
X137818952Y-34996380D01*
X137199904Y-34996380D01*
%TO.C,R101*%
X140057047Y-38044380D02*
X140390380Y-37568190D01*
X140628476Y-38044380D02*
X140628476Y-37044380D01*
X140247523Y-37044380D01*
X140152285Y-37092000D01*
X140104666Y-37139619D01*
X140057047Y-37234857D01*
X140057047Y-37377714D01*
X140104666Y-37472952D01*
X140152285Y-37520571D01*
X140247523Y-37568190D01*
X140628476Y-37568190D01*
X139104666Y-38044380D02*
X139676095Y-38044380D01*
X139390380Y-38044380D02*
X139390380Y-37044380D01*
X139485619Y-37187238D01*
X139580857Y-37282476D01*
X139676095Y-37330095D01*
X138485619Y-37044380D02*
X138390380Y-37044380D01*
X138295142Y-37092000D01*
X138247523Y-37139619D01*
X138199904Y-37234857D01*
X138152285Y-37425333D01*
X138152285Y-37663428D01*
X138199904Y-37853904D01*
X138247523Y-37949142D01*
X138295142Y-37996761D01*
X138390380Y-38044380D01*
X138485619Y-38044380D01*
X138580857Y-37996761D01*
X138628476Y-37949142D01*
X138676095Y-37853904D01*
X138723714Y-37663428D01*
X138723714Y-37425333D01*
X138676095Y-37234857D01*
X138628476Y-37139619D01*
X138580857Y-37092000D01*
X138485619Y-37044380D01*
X137199904Y-38044380D02*
X137771333Y-38044380D01*
X137485619Y-38044380D02*
X137485619Y-37044380D01*
X137580857Y-37187238D01*
X137676095Y-37282476D01*
X137771333Y-37330095D01*
%TO.C,Q201*%
X145319619Y-85891619D02*
X145414857Y-85844000D01*
X145510095Y-85748761D01*
X145652952Y-85605904D01*
X145748190Y-85558285D01*
X145843428Y-85558285D01*
X145795809Y-85796380D02*
X145891047Y-85748761D01*
X145986285Y-85653523D01*
X146033904Y-85463047D01*
X146033904Y-85129714D01*
X145986285Y-84939238D01*
X145891047Y-84844000D01*
X145795809Y-84796380D01*
X145605333Y-84796380D01*
X145510095Y-84844000D01*
X145414857Y-84939238D01*
X145367238Y-85129714D01*
X145367238Y-85463047D01*
X145414857Y-85653523D01*
X145510095Y-85748761D01*
X145605333Y-85796380D01*
X145795809Y-85796380D01*
X144986285Y-84891619D02*
X144938666Y-84844000D01*
X144843428Y-84796380D01*
X144605333Y-84796380D01*
X144510095Y-84844000D01*
X144462476Y-84891619D01*
X144414857Y-84986857D01*
X144414857Y-85082095D01*
X144462476Y-85224952D01*
X145033904Y-85796380D01*
X144414857Y-85796380D01*
X143795809Y-84796380D02*
X143700571Y-84796380D01*
X143605333Y-84844000D01*
X143557714Y-84891619D01*
X143510095Y-84986857D01*
X143462476Y-85177333D01*
X143462476Y-85415428D01*
X143510095Y-85605904D01*
X143557714Y-85701142D01*
X143605333Y-85748761D01*
X143700571Y-85796380D01*
X143795809Y-85796380D01*
X143891047Y-85748761D01*
X143938666Y-85701142D01*
X143986285Y-85605904D01*
X144033904Y-85415428D01*
X144033904Y-85177333D01*
X143986285Y-84986857D01*
X143938666Y-84891619D01*
X143891047Y-84844000D01*
X143795809Y-84796380D01*
X142510095Y-85796380D02*
X143081523Y-85796380D01*
X142795809Y-85796380D02*
X142795809Y-84796380D01*
X142891047Y-84939238D01*
X142986285Y-85034476D01*
X143081523Y-85082095D01*
%TO.C,JP103*%
X148892000Y-43754380D02*
X148892000Y-42754380D01*
X148653904Y-42754380D01*
X148511047Y-42802000D01*
X148415809Y-42897238D01*
X148368190Y-42992476D01*
X148320571Y-43182952D01*
X148320571Y-43325809D01*
X148368190Y-43516285D01*
X148415809Y-43611523D01*
X148511047Y-43706761D01*
X148653904Y-43754380D01*
X148892000Y-43754380D01*
X147511047Y-43706761D02*
X147606285Y-43754380D01*
X147796761Y-43754380D01*
X147892000Y-43706761D01*
X147939619Y-43611523D01*
X147939619Y-43230571D01*
X147892000Y-43135333D01*
X147796761Y-43087714D01*
X147606285Y-43087714D01*
X147511047Y-43135333D01*
X147463428Y-43230571D01*
X147463428Y-43325809D01*
X147939619Y-43421047D01*
X146653904Y-43706761D02*
X146749142Y-43754380D01*
X146939619Y-43754380D01*
X147034857Y-43706761D01*
X147082476Y-43611523D01*
X147082476Y-43230571D01*
X147034857Y-43135333D01*
X146939619Y-43087714D01*
X146749142Y-43087714D01*
X146653904Y-43135333D01*
X146606285Y-43230571D01*
X146606285Y-43325809D01*
X147082476Y-43421047D01*
X146177714Y-43087714D02*
X146177714Y-44087714D01*
X146177714Y-43135333D02*
X146082476Y-43087714D01*
X145892000Y-43087714D01*
X145796761Y-43135333D01*
X145749142Y-43182952D01*
X145701523Y-43278190D01*
X145701523Y-43563904D01*
X145749142Y-43659142D01*
X145796761Y-43706761D01*
X145892000Y-43754380D01*
X146082476Y-43754380D01*
X146177714Y-43706761D01*
X145511047Y-43849619D02*
X144749142Y-43849619D01*
X144558666Y-43706761D02*
X144415809Y-43754380D01*
X144177714Y-43754380D01*
X144082476Y-43706761D01*
X144034857Y-43659142D01*
X143987238Y-43563904D01*
X143987238Y-43468666D01*
X144034857Y-43373428D01*
X144082476Y-43325809D01*
X144177714Y-43278190D01*
X144368190Y-43230571D01*
X144463428Y-43182952D01*
X144511047Y-43135333D01*
X144558666Y-43040095D01*
X144558666Y-42944857D01*
X144511047Y-42849619D01*
X144463428Y-42802000D01*
X144368190Y-42754380D01*
X144130095Y-42754380D01*
X143987238Y-42802000D01*
X143415809Y-43754380D02*
X143511047Y-43706761D01*
X143558666Y-43611523D01*
X143558666Y-42754380D01*
X142653904Y-43706761D02*
X142749142Y-43754380D01*
X142939619Y-43754380D01*
X143034857Y-43706761D01*
X143082476Y-43611523D01*
X143082476Y-43230571D01*
X143034857Y-43135333D01*
X142939619Y-43087714D01*
X142749142Y-43087714D01*
X142653904Y-43135333D01*
X142606285Y-43230571D01*
X142606285Y-43325809D01*
X143082476Y-43421047D01*
X141796761Y-43706761D02*
X141892000Y-43754380D01*
X142082476Y-43754380D01*
X142177714Y-43706761D01*
X142225333Y-43611523D01*
X142225333Y-43230571D01*
X142177714Y-43135333D01*
X142082476Y-43087714D01*
X141892000Y-43087714D01*
X141796761Y-43135333D01*
X141749142Y-43230571D01*
X141749142Y-43325809D01*
X142225333Y-43421047D01*
X141320571Y-43087714D02*
X141320571Y-44087714D01*
X141320571Y-43135333D02*
X141225333Y-43087714D01*
X141034857Y-43087714D01*
X140939619Y-43135333D01*
X140892000Y-43182952D01*
X140844380Y-43278190D01*
X140844380Y-43563904D01*
X140892000Y-43659142D01*
X140939619Y-43706761D01*
X141034857Y-43754380D01*
X141225333Y-43754380D01*
X141320571Y-43706761D01*
%TO.C,FB101*%
X132136571Y-34282285D02*
X132136571Y-33948952D01*
X132660380Y-33948952D02*
X131660380Y-33948952D01*
X131660380Y-34425142D01*
X132136571Y-35139428D02*
X132184190Y-35282285D01*
X132231809Y-35329904D01*
X132327047Y-35377523D01*
X132469904Y-35377523D01*
X132565142Y-35329904D01*
X132612761Y-35282285D01*
X132660380Y-35187047D01*
X132660380Y-34806095D01*
X131660380Y-34806095D01*
X131660380Y-35139428D01*
X131708000Y-35234666D01*
X131755619Y-35282285D01*
X131850857Y-35329904D01*
X131946095Y-35329904D01*
X132041333Y-35282285D01*
X132088952Y-35234666D01*
X132136571Y-35139428D01*
X132136571Y-34806095D01*
X132660380Y-36329904D02*
X132660380Y-35758476D01*
X132660380Y-36044190D02*
X131660380Y-36044190D01*
X131803238Y-35948952D01*
X131898476Y-35853714D01*
X131946095Y-35758476D01*
X131660380Y-36948952D02*
X131660380Y-37044190D01*
X131708000Y-37139428D01*
X131755619Y-37187047D01*
X131850857Y-37234666D01*
X132041333Y-37282285D01*
X132279428Y-37282285D01*
X132469904Y-37234666D01*
X132565142Y-37187047D01*
X132612761Y-37139428D01*
X132660380Y-37044190D01*
X132660380Y-36948952D01*
X132612761Y-36853714D01*
X132565142Y-36806095D01*
X132469904Y-36758476D01*
X132279428Y-36710857D01*
X132041333Y-36710857D01*
X131850857Y-36758476D01*
X131755619Y-36806095D01*
X131708000Y-36853714D01*
X131660380Y-36948952D01*
X132660380Y-38234666D02*
X132660380Y-37663238D01*
X132660380Y-37948952D02*
X131660380Y-37948952D01*
X131803238Y-37853714D01*
X131898476Y-37758476D01*
X131946095Y-37663238D01*
%TO.C,F201*%
X112410714Y-108243571D02*
X112744047Y-108243571D01*
X112744047Y-108767380D02*
X112744047Y-107767380D01*
X112267857Y-107767380D01*
X111934523Y-107862619D02*
X111886904Y-107815000D01*
X111791666Y-107767380D01*
X111553571Y-107767380D01*
X111458333Y-107815000D01*
X111410714Y-107862619D01*
X111363095Y-107957857D01*
X111363095Y-108053095D01*
X111410714Y-108195952D01*
X111982142Y-108767380D01*
X111363095Y-108767380D01*
X110744047Y-107767380D02*
X110648809Y-107767380D01*
X110553571Y-107815000D01*
X110505952Y-107862619D01*
X110458333Y-107957857D01*
X110410714Y-108148333D01*
X110410714Y-108386428D01*
X110458333Y-108576904D01*
X110505952Y-108672142D01*
X110553571Y-108719761D01*
X110648809Y-108767380D01*
X110744047Y-108767380D01*
X110839285Y-108719761D01*
X110886904Y-108672142D01*
X110934523Y-108576904D01*
X110982142Y-108386428D01*
X110982142Y-108148333D01*
X110934523Y-107957857D01*
X110886904Y-107862619D01*
X110839285Y-107815000D01*
X110744047Y-107767380D01*
X109458333Y-108767380D02*
X110029761Y-108767380D01*
X109744047Y-108767380D02*
X109744047Y-107767380D01*
X109839285Y-107910238D01*
X109934523Y-108005476D01*
X110029761Y-108053095D01*
X116633095Y-114482380D02*
X117204523Y-114482380D01*
X116918809Y-114482380D02*
X116918809Y-113482380D01*
X117014047Y-113625238D01*
X117109285Y-113720476D01*
X117204523Y-113768095D01*
X116252142Y-114196666D02*
X115775952Y-114196666D01*
X116347380Y-114482380D02*
X116014047Y-113482380D01*
X115680714Y-114482380D01*
X114633095Y-114434761D02*
X114537857Y-114482380D01*
X114347380Y-114482380D01*
X114252142Y-114434761D01*
X114204523Y-114339523D01*
X114204523Y-114291904D01*
X114252142Y-114196666D01*
X114347380Y-114149047D01*
X114490238Y-114149047D01*
X114585476Y-114101428D01*
X114633095Y-114006190D01*
X114633095Y-113958571D01*
X114585476Y-113863333D01*
X114490238Y-113815714D01*
X114347380Y-113815714D01*
X114252142Y-113863333D01*
X113633095Y-114482380D02*
X113728333Y-114434761D01*
X113775952Y-114339523D01*
X113775952Y-113482380D01*
X113109285Y-114482380D02*
X113204523Y-114434761D01*
X113252142Y-114387142D01*
X113299761Y-114291904D01*
X113299761Y-114006190D01*
X113252142Y-113910952D01*
X113204523Y-113863333D01*
X113109285Y-113815714D01*
X112966428Y-113815714D01*
X112871190Y-113863333D01*
X112823571Y-113910952D01*
X112775952Y-114006190D01*
X112775952Y-114291904D01*
X112823571Y-114387142D01*
X112871190Y-114434761D01*
X112966428Y-114482380D01*
X113109285Y-114482380D01*
X112442619Y-113815714D02*
X112252142Y-114482380D01*
X112061666Y-114006190D01*
X111871190Y-114482380D01*
X111680714Y-113815714D01*
X110537857Y-114482380D02*
X110537857Y-113482380D01*
X110537857Y-113863333D02*
X110442619Y-113815714D01*
X110252142Y-113815714D01*
X110156904Y-113863333D01*
X110109285Y-113910952D01*
X110061666Y-114006190D01*
X110061666Y-114291904D01*
X110109285Y-114387142D01*
X110156904Y-114434761D01*
X110252142Y-114482380D01*
X110442619Y-114482380D01*
X110537857Y-114434761D01*
X109490238Y-114482380D02*
X109585476Y-114434761D01*
X109633095Y-114339523D01*
X109633095Y-113482380D01*
X108966428Y-114482380D02*
X109061666Y-114434761D01*
X109109285Y-114387142D01*
X109156904Y-114291904D01*
X109156904Y-114006190D01*
X109109285Y-113910952D01*
X109061666Y-113863333D01*
X108966428Y-113815714D01*
X108823571Y-113815714D01*
X108728333Y-113863333D01*
X108680714Y-113910952D01*
X108633095Y-114006190D01*
X108633095Y-114291904D01*
X108680714Y-114387142D01*
X108728333Y-114434761D01*
X108823571Y-114482380D01*
X108966428Y-114482380D01*
X108299761Y-113815714D02*
X108109285Y-114482380D01*
X107918809Y-114006190D01*
X107728333Y-114482380D01*
X107537857Y-113815714D01*
%TO.C,D203*%
X133135476Y-81637380D02*
X133135476Y-80637380D01*
X132897380Y-80637380D01*
X132754523Y-80685000D01*
X132659285Y-80780238D01*
X132611666Y-80875476D01*
X132564047Y-81065952D01*
X132564047Y-81208809D01*
X132611666Y-81399285D01*
X132659285Y-81494523D01*
X132754523Y-81589761D01*
X132897380Y-81637380D01*
X133135476Y-81637380D01*
X132183095Y-80732619D02*
X132135476Y-80685000D01*
X132040238Y-80637380D01*
X131802142Y-80637380D01*
X131706904Y-80685000D01*
X131659285Y-80732619D01*
X131611666Y-80827857D01*
X131611666Y-80923095D01*
X131659285Y-81065952D01*
X132230714Y-81637380D01*
X131611666Y-81637380D01*
X130992619Y-80637380D02*
X130897380Y-80637380D01*
X130802142Y-80685000D01*
X130754523Y-80732619D01*
X130706904Y-80827857D01*
X130659285Y-81018333D01*
X130659285Y-81256428D01*
X130706904Y-81446904D01*
X130754523Y-81542142D01*
X130802142Y-81589761D01*
X130897380Y-81637380D01*
X130992619Y-81637380D01*
X131087857Y-81589761D01*
X131135476Y-81542142D01*
X131183095Y-81446904D01*
X131230714Y-81256428D01*
X131230714Y-81018333D01*
X131183095Y-80827857D01*
X131135476Y-80732619D01*
X131087857Y-80685000D01*
X130992619Y-80637380D01*
X130325952Y-80637380D02*
X129706904Y-80637380D01*
X130040238Y-81018333D01*
X129897380Y-81018333D01*
X129802142Y-81065952D01*
X129754523Y-81113571D01*
X129706904Y-81208809D01*
X129706904Y-81446904D01*
X129754523Y-81542142D01*
X129802142Y-81589761D01*
X129897380Y-81637380D01*
X130183095Y-81637380D01*
X130278333Y-81589761D01*
X130325952Y-81542142D01*
%TO.C,D201*%
X156630476Y-94797380D02*
X156630476Y-93797380D01*
X156392380Y-93797380D01*
X156249523Y-93845000D01*
X156154285Y-93940238D01*
X156106666Y-94035476D01*
X156059047Y-94225952D01*
X156059047Y-94368809D01*
X156106666Y-94559285D01*
X156154285Y-94654523D01*
X156249523Y-94749761D01*
X156392380Y-94797380D01*
X156630476Y-94797380D01*
X155678095Y-93892619D02*
X155630476Y-93845000D01*
X155535238Y-93797380D01*
X155297142Y-93797380D01*
X155201904Y-93845000D01*
X155154285Y-93892619D01*
X155106666Y-93987857D01*
X155106666Y-94083095D01*
X155154285Y-94225952D01*
X155725714Y-94797380D01*
X155106666Y-94797380D01*
X154487619Y-93797380D02*
X154392380Y-93797380D01*
X154297142Y-93845000D01*
X154249523Y-93892619D01*
X154201904Y-93987857D01*
X154154285Y-94178333D01*
X154154285Y-94416428D01*
X154201904Y-94606904D01*
X154249523Y-94702142D01*
X154297142Y-94749761D01*
X154392380Y-94797380D01*
X154487619Y-94797380D01*
X154582857Y-94749761D01*
X154630476Y-94702142D01*
X154678095Y-94606904D01*
X154725714Y-94416428D01*
X154725714Y-94178333D01*
X154678095Y-93987857D01*
X154630476Y-93892619D01*
X154582857Y-93845000D01*
X154487619Y-93797380D01*
X153201904Y-94797380D02*
X153773333Y-94797380D01*
X153487619Y-94797380D02*
X153487619Y-93797380D01*
X153582857Y-93940238D01*
X153678095Y-94035476D01*
X153773333Y-94083095D01*
X158376904Y-90157380D02*
X158376904Y-89157380D01*
X157805476Y-90157380D02*
X158234047Y-89585952D01*
X157805476Y-89157380D02*
X158376904Y-89728809D01*
%TO.C,C106*%
X111609142Y-32662952D02*
X111656761Y-32615333D01*
X111704380Y-32472476D01*
X111704380Y-32377238D01*
X111656761Y-32234380D01*
X111561523Y-32139142D01*
X111466285Y-32091523D01*
X111275809Y-32043904D01*
X111132952Y-32043904D01*
X110942476Y-32091523D01*
X110847238Y-32139142D01*
X110752000Y-32234380D01*
X110704380Y-32377238D01*
X110704380Y-32472476D01*
X110752000Y-32615333D01*
X110799619Y-32662952D01*
X111704380Y-33615333D02*
X111704380Y-33043904D01*
X111704380Y-33329619D02*
X110704380Y-33329619D01*
X110847238Y-33234380D01*
X110942476Y-33139142D01*
X110990095Y-33043904D01*
X110704380Y-34234380D02*
X110704380Y-34329619D01*
X110752000Y-34424857D01*
X110799619Y-34472476D01*
X110894857Y-34520095D01*
X111085333Y-34567714D01*
X111323428Y-34567714D01*
X111513904Y-34520095D01*
X111609142Y-34472476D01*
X111656761Y-34424857D01*
X111704380Y-34329619D01*
X111704380Y-34234380D01*
X111656761Y-34139142D01*
X111609142Y-34091523D01*
X111513904Y-34043904D01*
X111323428Y-33996285D01*
X111085333Y-33996285D01*
X110894857Y-34043904D01*
X110799619Y-34091523D01*
X110752000Y-34139142D01*
X110704380Y-34234380D01*
X110704380Y-35424857D02*
X110704380Y-35234380D01*
X110752000Y-35139142D01*
X110799619Y-35091523D01*
X110942476Y-34996285D01*
X111132952Y-34948666D01*
X111513904Y-34948666D01*
X111609142Y-34996285D01*
X111656761Y-35043904D01*
X111704380Y-35139142D01*
X111704380Y-35329619D01*
X111656761Y-35424857D01*
X111609142Y-35472476D01*
X111513904Y-35520095D01*
X111275809Y-35520095D01*
X111180571Y-35472476D01*
X111132952Y-35424857D01*
X111085333Y-35329619D01*
X111085333Y-35139142D01*
X111132952Y-35043904D01*
X111180571Y-34996285D01*
X111275809Y-34948666D01*
%TO.C,C105*%
X103481142Y-28852952D02*
X103528761Y-28805333D01*
X103576380Y-28662476D01*
X103576380Y-28567238D01*
X103528761Y-28424380D01*
X103433523Y-28329142D01*
X103338285Y-28281523D01*
X103147809Y-28233904D01*
X103004952Y-28233904D01*
X102814476Y-28281523D01*
X102719238Y-28329142D01*
X102624000Y-28424380D01*
X102576380Y-28567238D01*
X102576380Y-28662476D01*
X102624000Y-28805333D01*
X102671619Y-28852952D01*
X103576380Y-29805333D02*
X103576380Y-29233904D01*
X103576380Y-29519619D02*
X102576380Y-29519619D01*
X102719238Y-29424380D01*
X102814476Y-29329142D01*
X102862095Y-29233904D01*
X102576380Y-30424380D02*
X102576380Y-30519619D01*
X102624000Y-30614857D01*
X102671619Y-30662476D01*
X102766857Y-30710095D01*
X102957333Y-30757714D01*
X103195428Y-30757714D01*
X103385904Y-30710095D01*
X103481142Y-30662476D01*
X103528761Y-30614857D01*
X103576380Y-30519619D01*
X103576380Y-30424380D01*
X103528761Y-30329142D01*
X103481142Y-30281523D01*
X103385904Y-30233904D01*
X103195428Y-30186285D01*
X102957333Y-30186285D01*
X102766857Y-30233904D01*
X102671619Y-30281523D01*
X102624000Y-30329142D01*
X102576380Y-30424380D01*
X102576380Y-31662476D02*
X102576380Y-31186285D01*
X103052571Y-31138666D01*
X103004952Y-31186285D01*
X102957333Y-31281523D01*
X102957333Y-31519619D01*
X103004952Y-31614857D01*
X103052571Y-31662476D01*
X103147809Y-31710095D01*
X103385904Y-31710095D01*
X103481142Y-31662476D01*
X103528761Y-31614857D01*
X103576380Y-31519619D01*
X103576380Y-31281523D01*
X103528761Y-31186285D01*
X103481142Y-31138666D01*
%TO.C,C103*%
X128881047Y-43537142D02*
X128928666Y-43584761D01*
X129071523Y-43632380D01*
X129166761Y-43632380D01*
X129309619Y-43584761D01*
X129404857Y-43489523D01*
X129452476Y-43394285D01*
X129500095Y-43203809D01*
X129500095Y-43060952D01*
X129452476Y-42870476D01*
X129404857Y-42775238D01*
X129309619Y-42680000D01*
X129166761Y-42632380D01*
X129071523Y-42632380D01*
X128928666Y-42680000D01*
X128881047Y-42727619D01*
X127928666Y-43632380D02*
X128500095Y-43632380D01*
X128214380Y-43632380D02*
X128214380Y-42632380D01*
X128309619Y-42775238D01*
X128404857Y-42870476D01*
X128500095Y-42918095D01*
X127309619Y-42632380D02*
X127214380Y-42632380D01*
X127119142Y-42680000D01*
X127071523Y-42727619D01*
X127023904Y-42822857D01*
X126976285Y-43013333D01*
X126976285Y-43251428D01*
X127023904Y-43441904D01*
X127071523Y-43537142D01*
X127119142Y-43584761D01*
X127214380Y-43632380D01*
X127309619Y-43632380D01*
X127404857Y-43584761D01*
X127452476Y-43537142D01*
X127500095Y-43441904D01*
X127547714Y-43251428D01*
X127547714Y-43013333D01*
X127500095Y-42822857D01*
X127452476Y-42727619D01*
X127404857Y-42680000D01*
X127309619Y-42632380D01*
X126642952Y-42632380D02*
X126023904Y-42632380D01*
X126357238Y-43013333D01*
X126214380Y-43013333D01*
X126119142Y-43060952D01*
X126071523Y-43108571D01*
X126023904Y-43203809D01*
X126023904Y-43441904D01*
X126071523Y-43537142D01*
X126119142Y-43584761D01*
X126214380Y-43632380D01*
X126500095Y-43632380D01*
X126595333Y-43584761D01*
X126642952Y-43537142D01*
%TO.C,C102*%
X128881047Y-45569142D02*
X128928666Y-45616761D01*
X129071523Y-45664380D01*
X129166761Y-45664380D01*
X129309619Y-45616761D01*
X129404857Y-45521523D01*
X129452476Y-45426285D01*
X129500095Y-45235809D01*
X129500095Y-45092952D01*
X129452476Y-44902476D01*
X129404857Y-44807238D01*
X129309619Y-44712000D01*
X129166761Y-44664380D01*
X129071523Y-44664380D01*
X128928666Y-44712000D01*
X128881047Y-44759619D01*
X127928666Y-45664380D02*
X128500095Y-45664380D01*
X128214380Y-45664380D02*
X128214380Y-44664380D01*
X128309619Y-44807238D01*
X128404857Y-44902476D01*
X128500095Y-44950095D01*
X127309619Y-44664380D02*
X127214380Y-44664380D01*
X127119142Y-44712000D01*
X127071523Y-44759619D01*
X127023904Y-44854857D01*
X126976285Y-45045333D01*
X126976285Y-45283428D01*
X127023904Y-45473904D01*
X127071523Y-45569142D01*
X127119142Y-45616761D01*
X127214380Y-45664380D01*
X127309619Y-45664380D01*
X127404857Y-45616761D01*
X127452476Y-45569142D01*
X127500095Y-45473904D01*
X127547714Y-45283428D01*
X127547714Y-45045333D01*
X127500095Y-44854857D01*
X127452476Y-44759619D01*
X127404857Y-44712000D01*
X127309619Y-44664380D01*
X126595333Y-44759619D02*
X126547714Y-44712000D01*
X126452476Y-44664380D01*
X126214380Y-44664380D01*
X126119142Y-44712000D01*
X126071523Y-44759619D01*
X126023904Y-44854857D01*
X126023904Y-44950095D01*
X126071523Y-45092952D01*
X126642952Y-45664380D01*
X126023904Y-45664380D01*
%TO.C,C101*%
X135739047Y-53951142D02*
X135786666Y-53998761D01*
X135929523Y-54046380D01*
X136024761Y-54046380D01*
X136167619Y-53998761D01*
X136262857Y-53903523D01*
X136310476Y-53808285D01*
X136358095Y-53617809D01*
X136358095Y-53474952D01*
X136310476Y-53284476D01*
X136262857Y-53189238D01*
X136167619Y-53094000D01*
X136024761Y-53046380D01*
X135929523Y-53046380D01*
X135786666Y-53094000D01*
X135739047Y-53141619D01*
X134786666Y-54046380D02*
X135358095Y-54046380D01*
X135072380Y-54046380D02*
X135072380Y-53046380D01*
X135167619Y-53189238D01*
X135262857Y-53284476D01*
X135358095Y-53332095D01*
X134167619Y-53046380D02*
X134072380Y-53046380D01*
X133977142Y-53094000D01*
X133929523Y-53141619D01*
X133881904Y-53236857D01*
X133834285Y-53427333D01*
X133834285Y-53665428D01*
X133881904Y-53855904D01*
X133929523Y-53951142D01*
X133977142Y-53998761D01*
X134072380Y-54046380D01*
X134167619Y-54046380D01*
X134262857Y-53998761D01*
X134310476Y-53951142D01*
X134358095Y-53855904D01*
X134405714Y-53665428D01*
X134405714Y-53427333D01*
X134358095Y-53236857D01*
X134310476Y-53141619D01*
X134262857Y-53094000D01*
X134167619Y-53046380D01*
X132881904Y-54046380D02*
X133453333Y-54046380D01*
X133167619Y-54046380D02*
X133167619Y-53046380D01*
X133262857Y-53189238D01*
X133358095Y-53284476D01*
X133453333Y-53332095D01*
%TD*%
M02*
