%TF.GenerationSoftware,KiCad,Pcbnew,(5.1.5)-3*%
%TF.CreationDate,2021-07-21T11:08:43+02:00*%
%TF.ProjectId,cece-pcb,63656365-2d70-4636-922e-6b696361645f,rev?*%
%TF.SameCoordinates,Original*%
%TF.FileFunction,Profile,NP*%
%FSLAX46Y46*%
G04 Gerber Fmt 4.6, Leading zero omitted, Abs format (unit mm)*
G04 Created by KiCad (PCBNEW (5.1.5)-3) date 2021-07-21 11:08:43*
%MOMM*%
%LPD*%
G04 APERTURE LIST*
%TA.AperFunction,Profile*%
%ADD10C,0.050000*%
%TD*%
%TA.AperFunction,Profile*%
%ADD11C,0.100000*%
%TD*%
G04 APERTURE END LIST*
D10*
X138100000Y-69400000D02*
X138100000Y-68500000D01*
X134500000Y-69400000D02*
X138100000Y-69400000D01*
X129100000Y-69400000D02*
X129100000Y-68500000D01*
X132500000Y-69400000D02*
X129100000Y-69400000D01*
X151600000Y-69400000D02*
X151600000Y-68500000D01*
X155000000Y-69400000D02*
X151600000Y-69400000D01*
X160600000Y-69400000D02*
X157000000Y-69400000D01*
X160600000Y-68500000D02*
X160600000Y-69400000D01*
X112600000Y-70500000D02*
G75*
G02X111600000Y-70500000I-500000J0D01*
G01*
X111600000Y-69900000D02*
G75*
G02X112600000Y-69900000I500000J0D01*
G01*
X112600000Y-69900000D02*
X112600000Y-70500000D01*
X111600000Y-69900000D02*
X111600000Y-70500000D01*
X110000000Y-69900000D02*
X110000000Y-70500000D01*
X109000000Y-69900000D02*
X109000000Y-70500000D01*
X109000000Y-69900000D02*
G75*
G02X110000000Y-69900000I500000J0D01*
G01*
X110000000Y-70500000D02*
G75*
G02X109000000Y-70500000I-500000J0D01*
G01*
X107500000Y-69900000D02*
X107500000Y-70500000D01*
X107000000Y-69400000D02*
G75*
G02X107500000Y-69900000I0J-500000D01*
G01*
X114500000Y-69900000D02*
X114500000Y-70500000D01*
X114500000Y-69900000D02*
G75*
G02X115000000Y-69400000I500000J0D01*
G01*
X115000000Y-71000000D02*
G75*
G02X114500000Y-70500000I0J500000D01*
G01*
X155000000Y-69400000D02*
G75*
G02X155500000Y-69900000I0J-500000D01*
G01*
X155500000Y-70500000D02*
G75*
G02X155000000Y-71000000I-500000J0D01*
G01*
X157000000Y-71000000D02*
G75*
G02X156500000Y-70500000I0J500000D01*
G01*
X156500000Y-69900000D02*
G75*
G02X157000000Y-69400000I500000J0D01*
G01*
X155500000Y-70500000D02*
X155500000Y-69900000D01*
X156500000Y-70500000D02*
X156500000Y-69900000D01*
X134000000Y-70500000D02*
X134000000Y-69900000D01*
X134500000Y-71000000D02*
G75*
G02X134000000Y-70500000I0J500000D01*
G01*
X134000000Y-69900000D02*
G75*
G02X134500000Y-69400000I500000J0D01*
G01*
X133000000Y-70500000D02*
X133000000Y-69900000D01*
X133000000Y-70500000D02*
G75*
G02X132500000Y-71000000I-500000J0D01*
G01*
X132500000Y-69400000D02*
G75*
G02X133000000Y-69900000I0J-500000D01*
G01*
X106600000Y-69400000D02*
X106600000Y-68500000D01*
X102300000Y-68500000D02*
X102300000Y-70000000D01*
X164900000Y-68500000D02*
X164900000Y-70000000D01*
X160600000Y-68500000D02*
G75*
G02X161100000Y-68000000I500000J0D01*
G01*
X115600000Y-68500000D02*
X115600000Y-69400000D01*
X116100000Y-68000000D02*
X128600000Y-68000000D01*
X115600000Y-68500000D02*
G75*
G02X116100000Y-68000000I500000J0D01*
G01*
X128600000Y-68000000D02*
G75*
G02X129100000Y-68500000I0J-500000D01*
G01*
X132500000Y-71000000D02*
X115000000Y-71000000D01*
X151100000Y-68000000D02*
G75*
G02X151600000Y-68500000I0J-500000D01*
G01*
X155000000Y-71000000D02*
X134500000Y-71000000D01*
X138100000Y-68500000D02*
G75*
G02X138600000Y-68000000I500000J0D01*
G01*
X138600000Y-68000000D02*
X151100000Y-68000000D01*
X165500000Y-70000000D02*
G75*
G02X165500000Y-71000000I0J-500000D01*
G01*
X165500000Y-71000000D02*
X157000000Y-71000000D01*
X164900000Y-70000000D02*
X165500000Y-70000000D01*
X161100000Y-68000000D02*
X164400000Y-68000000D01*
X164400000Y-68000000D02*
G75*
G02X164900000Y-68500000I0J-500000D01*
G01*
X106600000Y-69400000D02*
X107000000Y-69400000D01*
X102300000Y-70000000D02*
X101500000Y-70000000D01*
X106100000Y-68000000D02*
G75*
G02X106600000Y-68500000I0J-500000D01*
G01*
X102300000Y-68500000D02*
G75*
G02X102800000Y-68000000I500000J0D01*
G01*
X102800000Y-68000000D02*
X106100000Y-68000000D01*
X107000000Y-71000000D02*
X101500000Y-71000000D01*
X107500000Y-70500000D02*
G75*
G02X107000000Y-71000000I-500000J0D01*
G01*
X101500000Y-71000000D02*
G75*
G02X101500000Y-70000000I0J500000D01*
G01*
X115000000Y-69400000D02*
X115600000Y-69400000D01*
X127500000Y-28000000D02*
G75*
G02X128500000Y-28000000I500000J0D01*
G01*
X125500000Y-32500000D02*
G75*
G02X125500000Y-31500000I0J500000D01*
G01*
D11*
X128500000Y-28000000D02*
X128500000Y-32500000D01*
X127500000Y-31500000D02*
X127500000Y-28000000D01*
X125500000Y-31500000D02*
X127500000Y-31500000D01*
X128500000Y-32500000D02*
X125500000Y-32500000D01*
D10*
X158000000Y-99500000D02*
X158000000Y-96000000D01*
X158000000Y-96000000D02*
G75*
G03X157000000Y-96000000I-500000J0D01*
G01*
X157000000Y-100500000D02*
X157000000Y-96000000D01*
X163500000Y-99500000D02*
X158000000Y-99500000D01*
X163500000Y-100500000D02*
G75*
G03X163500000Y-99500000I0J500000D01*
G01*
X163500000Y-100500000D02*
X157000000Y-100500000D01*
X150500000Y-96000000D02*
G75*
G02X151500000Y-96000000I500000J0D01*
G01*
X151500000Y-100500000D02*
X151500000Y-96000000D01*
X145000000Y-100500000D02*
X151500000Y-100500000D01*
X150500000Y-99500000D02*
X150500000Y-96000000D01*
X145000000Y-99500000D02*
X150500000Y-99500000D01*
X145000000Y-100500000D02*
G75*
G02X145000000Y-99500000I0J500000D01*
G01*
X115500000Y-101500000D02*
X122500000Y-101500000D01*
X115500000Y-104000000D02*
X115500000Y-101500000D01*
X116500000Y-102500000D02*
X122500000Y-102500000D01*
X116500000Y-105000000D02*
X116500000Y-102500000D01*
X122500000Y-101500000D02*
G75*
G02X122500000Y-102500000I0J-500000D01*
G01*
X103500000Y-105000000D02*
X116500000Y-105000000D01*
X115500000Y-104000000D02*
X103500000Y-104000000D01*
X103500000Y-105000000D02*
G75*
G02X103500000Y-104000000I0J500000D01*
G01*
X131900000Y-113500000D02*
G75*
G02X130900000Y-113500000I-500000J0D01*
G01*
X130900000Y-110000000D02*
X130900000Y-113500000D01*
X131900000Y-109000000D02*
X131900000Y-113500000D01*
X103500000Y-110000000D02*
X130900000Y-110000000D01*
X103500000Y-109000000D02*
X131900000Y-109000000D01*
X103500000Y-110000000D02*
G75*
G02X103500000Y-109000000I0J500000D01*
G01*
X165000000Y-21000000D02*
X167300000Y-21000000D01*
X165000000Y-23100000D02*
X165000000Y-21000000D01*
X160600000Y-23100000D02*
X165000000Y-23100000D01*
X160600000Y-21600000D02*
X160600000Y-23100000D01*
X151600000Y-21600000D02*
X160600000Y-21600000D01*
X151600000Y-23100000D02*
X151600000Y-21600000D01*
X138100000Y-23100000D02*
X151600000Y-23100000D01*
X138100000Y-21600000D02*
X138100000Y-23100000D01*
X129100000Y-21600000D02*
X138100000Y-21600000D01*
X129100000Y-21700000D02*
X129100000Y-21600000D01*
X129100000Y-23100000D02*
X129100000Y-21700000D01*
X115600000Y-23100000D02*
X129100000Y-23100000D01*
X115600000Y-21600000D02*
X115600000Y-23100000D01*
X106600000Y-21600000D02*
X115600000Y-21600000D01*
X106600000Y-21700000D02*
X106600000Y-21600000D01*
X106600000Y-23100000D02*
X106600000Y-21700000D01*
X102300000Y-23100000D02*
X106600000Y-23100000D01*
X102300000Y-21000000D02*
X102300000Y-23100000D01*
X167300000Y-70000000D02*
X167300000Y-21000000D01*
X100000000Y-21000000D02*
X100000000Y-70000000D01*
X100000000Y-21000000D02*
X102300000Y-21000000D01*
X100000000Y-115800000D02*
X100000000Y-70000000D01*
X167300000Y-115800000D02*
X100000000Y-115800000D01*
X167300000Y-70000000D02*
X167300000Y-115800000D01*
M02*
